<svg width="359" height="96" viewBox="0 0 359 96" fill="none" xmlns="http://www.w3.org/2000/svg">
<g filter="url(#filter0_d_593_17868)">
<rect x="10" y="10" width="339" height="76" rx="10" fill="#FFFCF7"/>
<rect x="10" y="10" width="339" height="76" rx="10" stroke="#FFA41B"/>
</g>
<path d="M33.5671 65.1699C37.1201 62.8509 43.3378 57.0533 39.7848 52.4152C36.5282 53.768 30.7254 58.2128 33.5671 65.1699Z" fill="#F59300"/>
<path d="M77.9251 65.1699C74.3721 62.8509 68.1544 57.0533 71.7074 52.4152C74.964 53.768 80.7668 58.2128 77.9251 65.1699Z" fill="#F59300"/>
<path d="M37.9902 64.6787C37.9902 62.6693 39.6383 60.0814 40.4258 59.2441H70.8035C72.3816 60.859 73.4193 62.9366 73.7563 65.1693L76.5415 67.0932L77.2165 69.9188L75.5289 72.7445H40.0883L37.9902 64.6787Z" fill="#F3AD66"/>
<path d="M55.7831 29.5467C53.0839 24.7628 52.634 27.5534 52.7465 29.5467C49.9349 29.4418 43.7043 29.9243 41.2751 32.6939C40.038 32.4841 36.8214 33.764 33.8523 40.5621C32.9526 42.0309 30.4784 45.0313 27.7792 45.283C25.6199 46.7937 26.8795 48.6401 27.7792 49.3745C29.4662 51.7874 33.8523 55.0396 34.5271 55.6691C35.2019 56.2985 35.2694 57.8092 36.8889 57.5574C37.7886 58.1869 39.7231 59.3829 40.2629 59.1311C40.9377 58.8163 45.3238 66.3698 55.7831 65.1109C66.2424 66.3698 70.2912 58.8163 70.966 59.1311C71.5058 59.3829 73.4402 58.1869 74.3399 57.5574C75.9594 57.8092 76.0269 56.2985 76.7017 55.6691C77.3765 55.0396 81.7627 51.7874 83.4497 49.3745C84.3494 48.6401 85.609 46.7937 83.4497 45.283C80.7505 45.0313 78.2762 42.0309 77.3765 40.5621C74.4074 33.764 71.1909 32.4841 69.9538 32.6939C67.5245 29.9243 61.2939 29.4418 58.4823 29.5467C58.2123 27.2807 56.5703 28.6025 55.7831 29.5467Z" fill="#FAC174"/>
<path d="M77.3767 40.563C74.4076 33.7648 71.1911 32.4849 69.9539 32.6948C66.445 45.3632 71.416 54.5489 74.3401 57.5583C75.9596 57.81 76.0271 56.2993 76.7019 55.6699C77.3767 55.0404 81.7628 51.7882 83.4498 49.3753C84.3496 48.641 85.6092 46.7946 83.4498 45.2839C80.7507 45.0321 78.2764 42.0317 77.3767 40.563Z" fill="#F3AD66"/>
<path d="M33.8523 40.563C36.8214 33.7648 40.038 32.4849 41.2751 32.6948C44.784 45.3632 39.813 54.5489 36.8889 57.5583C35.2694 57.81 35.2019 56.2993 34.5271 55.6699C33.8523 55.0404 29.4662 51.7882 27.7792 49.3753C26.8795 48.641 25.6199 46.7946 27.7792 45.2839C30.4784 45.0321 32.9526 42.0317 33.8523 40.563Z" fill="#F3AD66"/>
<path d="M49.7099 46.2278C49.7099 47.6183 48.5014 47.8014 47.0107 47.8014C45.52 47.8014 44.3115 47.6183 44.3115 46.2278C44.3115 44.8372 45.52 43.71 47.0107 43.71C48.5014 43.71 49.7099 44.8372 49.7099 46.2278Z" fill="#3C1826"/>
<path d="M66.58 46.2278C66.58 47.6183 65.3715 47.8014 63.8808 47.8014C62.3901 47.8014 61.1816 47.6183 61.1816 46.2278C61.1816 44.8372 62.3901 43.71 63.8808 43.71C65.3715 43.71 66.58 44.8372 66.58 46.2278Z" fill="#3C1826"/>
<path d="M56.7677 54.5136C56.0632 55.2154 54.8283 55.2154 54.1238 54.5136L52.8624 53.257C51.8436 52.2421 52.6541 50.6338 54.1843 50.6338L56.7072 50.6338C58.2375 50.6338 59.0479 52.2421 58.0291 53.257L56.7677 54.5136Z" fill="#3C1826"/>
<path d="M55.4453 55.041V56.9294" stroke="#32071A" stroke-width="1.2" stroke-linecap="round" stroke-linejoin="round"/>
<path d="M45.8231 54.4111C45.1483 56.824 46.2579 60.7057 55.4351 56.929C64.6123 60.7057 65.8945 56.824 65.2197 54.4111" stroke="#32071A" stroke-width="1.2" stroke-linecap="round" stroke-linejoin="round"/>
<path d="M35.2621 65.2314C36.2439 64.0866 39.353 64.5635 40.7849 64.9452C46.3077 67.521 46.6145 70.097 45.3872 72.3866C44.4054 74.2184 42.5236 73.7223 41.7054 73.2453C39.9871 74.848 38.7394 73.5315 38.3303 72.6728C36.6121 74.5046 34.7507 73.4361 34.0348 72.6728C33.2984 73.5887 32.0915 72.8637 31.5802 72.3866C29.1255 69.2384 34.0348 66.6624 35.2621 65.2314Z" fill="#FAC174"/>
<path d="M42.319 70.3828C42.4213 71.146 42.4417 72.787 41.7051 73.2449" stroke="#32071A" stroke-width="0.9" stroke-linecap="round" stroke-linejoin="round"/>
<path d="M38.3301 70.0977V72.6735" stroke="#32071A" stroke-width="0.9" stroke-linecap="round" stroke-linejoin="round"/>
<path d="M34.0348 70.0977C33.8302 70.5747 33.5437 71.7577 34.0348 72.6735" stroke="#32071A" stroke-width="0.9" stroke-linecap="round" stroke-linejoin="round"/>
<path d="M75.1071 65.2314C74.1253 64.0866 71.0161 64.5635 69.5843 64.9452C64.0614 67.521 63.7546 70.097 64.9819 72.3866C65.9637 74.2184 67.8456 73.7223 68.6638 73.2453C70.382 74.848 71.6297 73.5315 72.0388 72.6728C73.7571 74.5046 75.6185 73.4361 76.3344 72.6728C77.0707 73.5887 78.2776 72.8637 78.789 72.3866C81.2436 69.2384 76.3344 66.6624 75.1071 65.2314Z" fill="#FAC174"/>
<path d="M68.0502 70.3828C67.9479 71.146 67.9274 72.787 68.6641 73.2449" stroke="#32071A" stroke-width="0.9" stroke-linecap="round" stroke-linejoin="round"/>
<path d="M72.0391 70.0977V72.6735" stroke="#32071A" stroke-width="0.9" stroke-linecap="round" stroke-linejoin="round"/>
<path d="M76.3343 70.0977C76.5389 70.5747 76.8254 71.7577 76.3343 72.6735" stroke="#32071A" stroke-width="0.9" stroke-linecap="round" stroke-linejoin="round"/>
<ellipse cx="47.5139" cy="45.1162" rx="0.675058" ry="0.627923" fill="white"/>
<ellipse cx="63.0403" cy="45.1162" rx="0.675058" ry="0.627923" fill="white"/>
<path d="M36.9541 35.7472C40.3652 36.5109 48.8728 37.962 55.6147 37.6565C62.3565 37.962 70.8641 36.5109 74.2752 35.7472C72.3489 25.3604 61.0322 22.2546 55.6147 22C50.1971 22.2546 38.8804 25.3604 36.9541 35.7472Z" fill="#FFA41B"/>
<mask id="mask0_593_17868" style="mask-type:alpha" maskUnits="userSpaceOnUse" x="36" y="22" width="39" height="16">
<path d="M36.9541 35.7472C40.3652 36.5109 48.8728 37.962 55.6147 37.6565C62.3565 37.962 70.8641 36.5109 74.2752 35.7472C72.3489 25.3604 61.0322 22.2546 55.6147 22C50.1971 22.2546 38.8804 25.3604 36.9541 35.7472Z" fill="#FFA41B"/>
</mask>
<g mask="url(#mask0_593_17868)">
<ellipse cx="51.4683" cy="25.9245" rx="1.0367" ry="0.981132" fill="white"/>
<ellipse cx="63.9088" cy="28.8679" rx="1.0367" ry="0.981132" fill="white"/>
<ellipse cx="43.1744" cy="31.8112" rx="1.0367" ry="0.981132" fill="white"/>
<ellipse cx="55.6148" cy="34.7546" rx="1.0367" ry="0.981132" fill="white"/>
<ellipse cx="55.6148" cy="22.9811" rx="1.0367" ry="0.981132" fill="white"/>
<ellipse cx="68.0553" cy="25.9245" rx="1.0367" ry="0.981132" fill="white"/>
<ellipse cx="51.4683" cy="37.6979" rx="1.0367" ry="0.981132" fill="white"/>
<ellipse cx="47.3219" cy="28.8679" rx="1.0367" ry="0.981132" fill="white"/>
<ellipse cx="59.7623" cy="31.8112" rx="1.0367" ry="0.981132" fill="white"/>
<ellipse cx="72.2017" cy="34.7546" rx="1.0367" ry="0.981132" fill="white"/>
<ellipse cx="55.6148" cy="28.8679" rx="1.0367" ry="0.981132" fill="white"/>
<ellipse cx="68.0553" cy="31.8112" rx="1.0367" ry="0.981132" fill="white"/>
<ellipse cx="47.3219" cy="22.9811" rx="1.0367" ry="0.981132" fill="white"/>
<ellipse cx="39.0279" cy="34.7546" rx="1.0367" ry="0.981132" fill="white"/>
<ellipse cx="47.3219" cy="34.7546" rx="1.0367" ry="0.981132" fill="white"/>
<ellipse cx="59.7623" cy="37.6979" rx="1.0367" ry="0.981132" fill="white"/>
<ellipse cx="63.9088" cy="22.9811" rx="1.0367" ry="0.981132" fill="white"/>
<ellipse cx="59.7623" cy="25.9245" rx="1.0367" ry="0.981132" fill="white"/>
<ellipse cx="72.2017" cy="28.8679" rx="1.0367" ry="0.981132" fill="white"/>
<ellipse cx="39.0279" cy="28.8679" rx="1.0367" ry="0.981132" fill="white"/>
<ellipse cx="51.4683" cy="31.8112" rx="1.0367" ry="0.981132" fill="white"/>
<ellipse cx="63.9088" cy="34.7546" rx="1.0367" ry="0.981132" fill="white"/>
<ellipse cx="43.1744" cy="25.9245" rx="1.0367" ry="0.981132" fill="white"/>
</g>
<path d="M118.186 40.042H116.442V32.8027H118.186V40.042ZM119.867 37.1709H117.693V35.7559H119.867V37.1709ZM114.727 33.6299C114.727 34.7327 114.501 35.724 114.05 36.6035C113.603 37.4785 112.947 38.2305 112.081 38.8594C111.22 39.4837 110.172 39.9691 108.937 40.3154L108.226 38.9072C109.224 38.6429 110.069 38.2897 110.762 37.8477C111.454 37.4056 111.976 36.902 112.327 36.3369C112.678 35.7718 112.854 35.1611 112.854 34.5049V33.6299H114.727ZM113.927 35.0312H108.813V33.6299H113.927V35.0312ZM114.118 40.1924C114.957 40.1924 115.693 40.2949 116.326 40.5C116.964 40.7005 117.456 40.9922 117.803 41.375C118.149 41.7578 118.322 42.2067 118.322 42.7217C118.322 43.2412 118.149 43.6924 117.803 44.0752C117.456 44.458 116.966 44.752 116.333 44.957C115.7 45.1621 114.961 45.2646 114.118 45.2646C113.28 45.2646 112.541 45.1621 111.903 44.957C111.27 44.752 110.778 44.458 110.427 44.0752C110.08 43.6924 109.907 43.2412 109.907 42.7217C109.907 42.2113 110.083 41.7646 110.434 41.3818C110.785 40.9945 111.277 40.7005 111.91 40.5C112.548 40.2949 113.284 40.1924 114.118 40.1924ZM114.118 41.5459C113.599 41.5413 113.154 41.5869 112.785 41.6826C112.416 41.7738 112.131 41.9082 111.931 42.0859C111.73 42.2591 111.632 42.471 111.637 42.7217C111.632 42.9723 111.73 43.1865 111.931 43.3643C112.131 43.542 112.416 43.6787 112.785 43.7744C113.154 43.8656 113.599 43.9111 114.118 43.9111C114.638 43.9111 115.082 43.8656 115.451 43.7744C115.825 43.6787 116.11 43.542 116.306 43.3643C116.506 43.1865 116.606 42.9723 116.606 42.7217C116.606 42.471 116.506 42.2591 116.306 42.0859C116.11 41.9082 115.825 41.7738 115.451 41.6826C115.077 41.5869 114.633 41.5413 114.118 41.5459ZM123.771 33.6846C124.399 33.6846 124.96 33.8669 125.452 34.2314C125.949 34.5915 126.339 35.1087 126.621 35.7832C126.904 36.4531 127.047 37.2324 127.052 38.1211C127.047 39.0143 126.904 39.7982 126.621 40.4727C126.339 41.1426 125.949 41.6576 125.452 42.0176C124.96 42.3776 124.399 42.5576 123.771 42.5576C123.132 42.5576 122.565 42.3776 122.068 42.0176C121.572 41.6576 121.182 41.1426 120.899 40.4727C120.621 39.7982 120.482 39.0143 120.482 38.1211C120.482 37.2324 120.621 36.4531 120.899 35.7832C121.182 35.1087 121.572 34.5915 122.068 34.2314C122.565 33.8669 123.132 33.6846 123.771 33.6846ZM123.771 35.2637C123.451 35.2591 123.171 35.3685 122.93 35.5918C122.688 35.8151 122.499 36.141 122.362 36.5693C122.23 36.9977 122.164 37.515 122.164 38.1211C122.164 38.7272 122.23 39.2445 122.362 39.6729C122.499 40.1012 122.688 40.4271 122.93 40.6504C123.171 40.8691 123.451 40.9785 123.771 40.9785C124.094 40.9785 124.377 40.8691 124.618 40.6504C124.86 40.4271 125.044 40.1012 125.172 39.6729C125.304 39.2445 125.37 38.7272 125.37 38.1211C125.37 37.515 125.304 36.9977 125.172 36.5693C125.044 36.1364 124.86 35.8105 124.618 35.5918C124.377 35.3685 124.094 35.2591 123.771 35.2637ZM130.23 45.2578H128.48V32.8027H130.23V45.2578ZM132.076 38.9619H129.848V37.5059H132.076V38.9619ZM136.971 36.2002C136.966 37.18 136.827 38.1143 136.554 39.0029C136.28 39.8916 135.877 40.68 135.344 41.3682C134.811 42.0518 134.168 42.569 133.416 42.9199L132.418 41.5459C133.088 41.2451 133.658 40.8122 134.127 40.2471C134.601 39.6774 134.956 39.0439 135.193 38.3467C135.435 37.6449 135.556 36.9294 135.556 36.2002V34.751H136.971V36.2002ZM137.333 36.2002C137.333 36.8975 137.451 37.5765 137.688 38.2373C137.925 38.8936 138.276 39.4883 138.741 40.0215C139.211 40.5501 139.783 40.9535 140.457 41.2314L139.514 42.5986C138.743 42.2751 138.092 41.7897 137.559 41.1426C137.025 40.4909 136.624 39.7412 136.355 38.8936C136.087 38.0459 135.954 37.1481 135.959 36.2002V34.751H137.333V36.2002ZM139.944 35.4414H132.917V34.0195H139.944V35.4414ZM142.932 45.2578H141.161V32.8027H142.932V45.2578ZM149.569 42.4004H147.833V40.3701H149.569V42.4004ZM155.065 45.2578H153.336V32.8027H155.065V45.2578ZM145.16 41.7441C146.71 41.735 148.072 41.71 149.248 41.6689C150.428 41.6234 151.563 41.5277 152.652 41.3818L152.762 42.6738C151.559 42.8835 150.321 43.0202 149.05 43.084C147.778 43.1432 146.395 43.1729 144.9 43.1729L144.668 41.7441H145.16ZM152.475 35.5713H144.914V34.2041H152.475V35.5713ZM148.688 36.0635C149.298 36.0635 149.84 36.1615 150.314 36.3574C150.793 36.5488 151.162 36.8223 151.422 37.1777C151.686 37.5332 151.818 37.9411 151.818 38.4014C151.818 38.8571 151.686 39.2627 151.422 39.6182C151.162 39.9691 150.793 40.2425 150.314 40.4385C149.84 40.6344 149.298 40.7324 148.688 40.7324C148.086 40.7324 147.55 40.6344 147.081 40.4385C146.612 40.2425 146.245 39.9691 145.98 39.6182C145.721 39.2627 145.591 38.8571 145.591 38.4014C145.591 37.9411 145.721 37.5332 145.98 37.1777C146.245 36.8223 146.612 36.5488 147.081 36.3574C147.55 36.1615 148.086 36.0635 148.688 36.0635ZM148.688 37.3828C148.405 37.3828 148.154 37.4238 147.936 37.5059C147.721 37.5833 147.553 37.6995 147.43 37.8545C147.307 38.0094 147.245 38.1917 147.245 38.4014C147.245 38.6156 147.304 38.7979 147.423 38.9482C147.546 39.0941 147.717 39.208 147.936 39.29C148.154 39.3675 148.405 39.4062 148.688 39.4062C148.979 39.4062 149.237 39.3675 149.46 39.29C149.683 39.208 149.854 39.0941 149.973 38.9482C150.091 38.7979 150.15 38.6156 150.15 38.4014C150.15 38.1917 150.091 38.0094 149.973 37.8545C149.854 37.6995 149.683 37.5833 149.46 37.5059C149.237 37.4238 148.979 37.3828 148.688 37.3828ZM149.583 34.9834H147.833V32.8643H149.583V34.9834ZM161.751 41.9287H159.994V39.1807H161.751V41.9287ZM167.254 42.2295H165.504V32.8301H167.254V42.2295ZM167.527 45.0459H158.244V43.6377H167.527V45.0459ZM160.001 44.0137H158.244V41.3271H160.001V44.0137ZM156.665 38.3467C158.324 38.333 159.782 38.3034 161.04 38.2578C162.298 38.2077 163.506 38.1097 164.663 37.9639L164.752 39.2148C163.549 39.4154 162.289 39.5521 160.972 39.625C159.659 39.6934 158.292 39.7253 156.87 39.7207L156.665 38.3467ZM165.9 41.2383H163.125V40.0488H165.9V41.2383ZM160.712 33.2471C161.309 33.2471 161.844 33.3405 162.318 33.5273C162.792 33.7142 163.161 33.9785 163.426 34.3203C163.69 34.6576 163.822 35.0426 163.822 35.4756C163.822 35.9176 163.69 36.3027 163.426 36.6309C163.161 36.959 162.792 37.2165 162.318 37.4033C161.849 37.5856 161.313 37.6768 160.712 37.6768C160.101 37.6768 159.559 37.5856 159.085 37.4033C158.616 37.2165 158.249 36.959 157.984 36.6309C157.72 36.3027 157.588 35.9176 157.588 35.4756C157.588 35.0426 157.72 34.6553 157.984 34.3135C158.249 33.9717 158.618 33.7096 159.092 33.5273C159.566 33.3405 160.106 33.2471 160.712 33.2471ZM160.712 34.5254C160.416 34.5254 160.158 34.5618 159.939 34.6348C159.721 34.7077 159.548 34.8171 159.42 34.9629C159.297 35.1042 159.238 35.2751 159.242 35.4756C159.238 35.6761 159.297 35.847 159.42 35.9883C159.548 36.1296 159.721 36.2367 159.939 36.3096C160.158 36.3825 160.416 36.4189 160.712 36.4189C160.999 36.4189 161.25 36.3825 161.464 36.3096C161.683 36.2367 161.854 36.1296 161.977 35.9883C162.1 35.847 162.161 35.6761 162.161 35.4756C162.161 35.2796 162.1 35.1087 161.977 34.9629C161.854 34.8171 161.683 34.7077 161.464 34.6348C161.25 34.5618 160.999 34.5254 160.712 34.5254Z" fill="#FFA41B"/>
<path d="M111.719 55.7305C111.719 56.4375 111.586 57.1406 111.32 57.8398C111.055 58.5352 110.693 59.1582 110.236 59.709C109.779 60.2598 109.285 60.6719 108.754 60.9453L108.191 60.2188C108.688 59.9766 109.148 59.6133 109.574 59.1289C110.004 58.6445 110.346 58.1016 110.6 57.5C110.857 56.8984 110.988 56.3086 110.992 55.7305V54.0078H111.719V55.7305ZM111.895 55.7305C111.891 56.2773 112.008 56.832 112.246 57.3945C112.488 57.957 112.816 58.4668 113.23 58.9238C113.645 59.377 114.102 59.7227 114.602 59.9609L114.074 60.6875C113.531 60.4219 113.037 60.0293 112.592 59.5098C112.15 58.9902 111.801 58.4004 111.543 57.7402C111.285 57.0762 111.156 56.4062 111.156 55.7305V54.0078H111.895V55.7305ZM114.238 54.3711H108.566V53.6094H114.238V54.3711ZM116.43 62.9492H115.516V52.5312H116.43V62.9492ZM118.176 57.5352H116.219V56.75H118.176V57.5352ZM122.512 54.5C122.508 55 122.385 55.4629 122.143 55.8887C121.904 56.3145 121.566 56.6797 121.129 56.9844C120.691 57.2852 120.184 57.5078 119.605 57.6523L119.207 56.9141C119.703 56.8047 120.145 56.6289 120.531 56.3867C120.922 56.1445 121.223 55.8613 121.434 55.5371C121.645 55.2129 121.75 54.8672 121.75 54.5V54.3477H122.512V54.5ZM122.664 54.5C122.664 54.8477 122.771 55.1738 122.986 55.4785C123.201 55.7793 123.498 56.043 123.877 56.2695C124.256 56.4961 124.691 56.6641 125.184 56.7734L124.809 57.5117C124.23 57.3672 123.725 57.1504 123.291 56.8613C122.857 56.5684 122.52 56.2207 122.277 55.8184C122.035 55.416 121.914 54.9766 121.914 54.5V54.3477H122.664V54.5ZM124.984 54.4531H119.43V53.7266H124.984V54.4531ZM122.664 54.2188H121.75V52.5664H122.664V54.2188ZM122.688 62.6445H121.773V58.4961H122.688V62.6445ZM127.328 62.9609H126.426V52.543H127.328V62.9609ZM118.715 58.3906C120.133 58.3867 121.391 58.3672 122.488 58.332C123.59 58.293 124.648 58.207 125.664 58.0742L125.723 58.7422C124.672 58.918 123.586 59.0332 122.465 59.0879C121.348 59.1387 120.141 59.1641 118.844 59.1641L118.715 58.3906ZM137.359 54.1133H132.707V53.3398H137.359V54.1133ZM135.215 58.2617H134.301V55.6484H135.215V58.2617ZM137.898 53.9609C137.895 54.4766 137.877 54.9648 137.846 55.4258C137.814 55.8828 137.742 56.3984 137.629 56.9727L136.703 56.9023C136.82 56.3281 136.896 55.8262 136.932 55.3965C136.967 54.9668 136.988 54.5039 136.996 54.0078V53.8906V53.3398H137.898V53.8906V53.9609ZM140.289 60.3711H139.352V52.5312H140.289V60.3711ZM141.812 56.7148H139.867V55.9297H141.812V56.7148ZM140.629 62.7266H133.668V61.9531H140.629V62.7266ZM134.594 62.1992H133.668V59.668H134.594V62.1992ZM132.062 57.9453C133.305 57.9414 134.475 57.918 135.572 57.875C136.67 57.8281 137.695 57.7383 138.648 57.6055L138.707 58.2852C137.734 58.4531 136.707 58.5645 135.625 58.6191C134.543 58.6738 133.387 58.7031 132.156 58.707L132.062 57.9453ZM143.676 58.0391C144.742 58.0391 145.584 58.0215 146.201 57.9863C146.822 57.9512 147.445 57.8789 148.07 57.7695L148.164 58.5312C147.52 58.6406 146.883 58.7129 146.254 58.748C145.629 58.7832 144.77 58.8008 143.676 58.8008H142.926V58.0391H143.676ZM147.438 56.3164H143.852V58.4844H142.926V55.5898H146.5V54.0312H142.902V53.2812H147.438V56.3164ZM151.129 60.207H150.203V52.543H151.129V60.207ZM150.438 55.0508H148.141V54.3008H150.438V55.0508ZM151.445 62.668H144.355V61.9062H151.445V62.668ZM145.281 62.2578H144.355V59.6445H145.281V62.2578ZM150.438 57.3945H148.141V56.6328H150.438V57.3945ZM164.289 58.168H157.094V57.418H164.289V58.168ZM165.414 61.6367H155.875V60.8633H165.414V61.6367ZM161.066 61.1797H160.164V57.7461H161.066V61.1797ZM164.184 54.1367H158.02V57.7695H157.094V53.3867H164.184V54.1367ZM171.438 59.6562H170.535V57.8398H171.438V59.6562ZM170.992 52.7305C171.746 52.7305 172.398 52.8086 172.949 52.9648C173.504 53.1211 173.93 53.3477 174.227 53.6445C174.523 53.9375 174.672 54.2891 174.672 54.6992C174.672 55.1016 174.523 55.4492 174.227 55.7422C173.93 56.0312 173.504 56.252 172.949 56.4043C172.398 56.5566 171.746 56.6328 170.992 56.6328C170.238 56.6328 169.584 56.5566 169.029 56.4043C168.479 56.252 168.053 56.0312 167.752 55.7422C167.451 55.4492 167.301 55.1016 167.301 54.6992C167.301 54.2891 167.451 53.9375 167.752 53.6445C168.053 53.3477 168.479 53.1211 169.029 52.9648C169.584 52.8086 170.238 52.7305 170.992 52.7305ZM170.992 53.457C170.434 53.457 169.947 53.5059 169.533 53.6035C169.123 53.7012 168.807 53.8438 168.584 54.0312C168.361 54.2188 168.25 54.4414 168.25 54.6992C168.25 54.9492 168.361 55.1641 168.584 55.3438C168.807 55.5234 169.123 55.6621 169.533 55.7598C169.943 55.8574 170.43 55.9062 170.992 55.9062C171.547 55.9062 172.031 55.8574 172.445 55.7598C172.859 55.6621 173.178 55.5234 173.4 55.3438C173.623 55.1641 173.734 54.9492 173.734 54.6992C173.734 54.4414 173.623 54.2188 173.4 54.0312C173.178 53.8438 172.859 53.7012 172.445 53.6035C172.031 53.5059 171.547 53.457 170.992 53.457ZM174.578 62.8086H167.406V59.3867H174.578V62.8086ZM168.32 62.0586H173.676V60.125H168.32V62.0586ZM175.738 58.1914H166.246V57.4297H175.738V58.1914ZM181.363 52.7188C182.133 52.7188 182.793 52.7871 183.344 52.9238C183.898 53.0605 184.32 53.2637 184.609 53.5332C184.898 53.8027 185.043 54.1289 185.043 54.5117C185.043 54.9023 184.898 55.2344 184.609 55.5078C184.32 55.7812 183.9 55.9883 183.35 56.1289C182.799 56.2656 182.137 56.3359 181.363 56.3398C180.586 56.3359 179.922 56.2656 179.371 56.1289C178.824 55.9883 178.404 55.7812 178.111 55.5078C177.818 55.2344 177.672 54.9023 177.672 54.5117C177.672 54.1289 177.818 53.8027 178.111 53.5332C178.404 53.2637 178.826 53.0605 179.377 52.9238C179.928 52.7871 180.59 52.7188 181.363 52.7188ZM181.363 53.4102C180.789 53.4102 180.297 53.4551 179.887 53.5449C179.48 53.6348 179.168 53.7617 178.949 53.9258C178.734 54.0898 178.629 54.2852 178.633 54.5117C178.629 54.75 178.734 54.9551 178.949 55.127C179.168 55.2949 179.48 55.4219 179.887 55.5078C180.297 55.5938 180.789 55.6367 181.363 55.6367C181.938 55.6367 182.43 55.5938 182.84 55.5078C183.254 55.4219 183.568 55.2949 183.783 55.127C183.998 54.959 184.105 54.7539 184.105 54.5117C184.105 54.2852 183.998 54.0898 183.783 53.9258C183.568 53.7617 183.254 53.6348 182.84 53.5449C182.426 53.4551 181.934 53.4102 181.363 53.4102ZM186.109 57.793H176.617V57.043H186.109V57.793ZM184.891 61.0273H178.703V62.293H177.789V60.3477H183.988V59.3984H177.766V58.6953H184.891V61.0273ZM185.207 62.832H177.789V62.1055H185.207V62.832ZM198.145 58.625H197.23V52.5312H198.145V58.625ZM199.715 55.8242H197.887V55.0508H199.715V55.8242ZM191.348 54.7227H194.383V53.1289H195.297V57.9688H190.445V53.1289H191.348V54.7227ZM194.383 57.2305V55.4609H191.348V57.2305H194.383ZM198.227 59.9492H192.52V62.5859H191.605V59.2109H198.227V59.9492ZM198.426 62.8086H191.605V62.0586H198.426V62.8086ZM208.152 54.3477H201.379V53.5859H208.152V54.3477ZM209.863 61.4727H200.371V60.7109H209.863V61.4727ZM205 61.1094H204.098V56.9844H205V61.1094ZM208.727 54.7578C208.719 55.6211 208.691 56.3926 208.645 57.0723C208.602 57.752 208.5 58.5391 208.34 59.4336L207.402 59.3281C207.523 58.7266 207.611 58.1562 207.666 57.6172C207.725 57.0781 207.76 56.6094 207.771 56.2109C207.787 55.8086 207.797 55.3047 207.801 54.6992V54.6289V53.5859H208.727V54.6289V54.7578ZM222.355 58.332H221.441V52.543H222.355V58.332ZM217.281 53.9492C217.277 54.5781 217.148 55.1719 216.895 55.7305C216.645 56.2852 216.293 56.7695 215.84 57.1836C215.391 57.5938 214.875 57.9023 214.293 58.1094L213.824 57.3828C214.344 57.2031 214.807 56.9375 215.213 56.5859C215.623 56.2344 215.941 55.832 216.168 55.3789C216.395 54.9219 216.508 54.4453 216.508 53.9492V52.9297H217.281V53.9492ZM217.445 53.9492C217.441 54.4219 217.553 54.875 217.779 55.3086C218.01 55.7383 218.326 56.1191 218.729 56.4512C219.131 56.7793 219.59 57.0273 220.105 57.1953L219.66 57.9219C219.074 57.7227 218.557 57.4277 218.107 57.0371C217.658 56.6426 217.307 56.1816 217.053 55.6543C216.799 55.127 216.672 54.5586 216.672 53.9492V52.9297H217.445V53.9492ZM222.426 59.7031H215.418V58.9531H222.426V59.7031ZM222.531 62.8086H215.324V62.0586H222.531V62.8086ZM217.785 62.5039H216.883V59.2695H217.785V62.5039ZM220.984 62.5039H220.07V59.2695H220.984V62.5039ZM226.926 53.3398C227.43 53.3398 227.879 53.4883 228.273 53.7852C228.672 54.082 228.98 54.5059 229.199 55.0566C229.418 55.6074 229.527 56.2461 229.527 56.9727C229.527 57.7031 229.418 58.3418 229.199 58.8887C228.98 59.4316 228.672 59.8516 228.273 60.1484C227.879 60.4453 227.43 60.5938 226.926 60.5938C226.414 60.5938 225.959 60.4453 225.561 60.1484C225.166 59.8516 224.859 59.4316 224.641 58.8887C224.422 58.3418 224.312 57.7031 224.312 56.9727C224.312 56.2461 224.422 55.6074 224.641 55.0566C224.859 54.5059 225.166 54.082 225.561 53.7852C225.959 53.4883 226.414 53.3398 226.926 53.3398ZM226.926 54.1602C226.586 54.1602 226.285 54.2773 226.023 54.5117C225.766 54.7461 225.562 55.0762 225.414 55.502C225.266 55.9238 225.191 56.4141 225.191 56.9727C225.191 57.5312 225.266 58.0234 225.414 58.4492C225.562 58.8711 225.766 59.1973 226.023 59.4277C226.285 59.6582 226.586 59.7734 226.926 59.7734C227.262 59.7734 227.562 59.6582 227.828 59.4277C228.094 59.1973 228.299 58.8691 228.443 58.4434C228.588 58.0176 228.66 57.5273 228.66 56.9727C228.66 56.418 228.588 55.9277 228.443 55.502C228.299 55.0762 228.094 54.7461 227.828 54.5117C227.562 54.2773 227.262 54.1602 226.926 54.1602ZM232.762 62.9727H231.848V52.5312H232.762V62.9727ZM232.258 57.2773H229.223V56.5156H232.258V57.2773ZM237.766 61.0273H236.863V57.9102H237.766V61.0273ZM241.668 61.0273H240.742V57.9102H241.668V61.0273ZM244.035 61.6133H234.496V60.8398H244.035V61.6133ZM239.242 53.1875C239.98 53.1914 240.637 53.3047 241.211 53.5273C241.789 53.7461 242.24 54.0605 242.564 54.4707C242.889 54.877 243.051 55.3438 243.051 55.8711C243.051 56.4023 242.889 56.8691 242.564 57.2715C242.24 57.6738 241.789 57.9863 241.211 58.209C240.637 58.4316 239.98 58.543 239.242 58.543C238.504 58.543 237.846 58.4316 237.268 58.209C236.693 57.9863 236.244 57.6738 235.92 57.2715C235.596 56.8691 235.434 56.4023 235.434 55.8711C235.434 55.3438 235.596 54.877 235.92 54.4707C236.244 54.0605 236.693 53.7461 237.268 53.5273C237.846 53.3047 238.504 53.1914 239.242 53.1875ZM239.242 53.9492C238.676 53.9453 238.17 54.0234 237.725 54.1836C237.283 54.3398 236.939 54.5645 236.693 54.8574C236.447 55.1504 236.324 55.4883 236.324 55.8711C236.324 56.2539 236.447 56.5918 236.693 56.8848C236.939 57.1777 237.283 57.4062 237.725 57.5703C238.17 57.7344 238.676 57.8164 239.242 57.8164C239.805 57.8164 240.307 57.7344 240.748 57.5703C241.189 57.4062 241.535 57.1777 241.785 56.8848C242.035 56.5918 242.16 56.2539 242.16 55.8711C242.16 55.4883 242.035 55.1504 241.785 54.8574C241.535 54.5645 241.189 54.3398 240.748 54.1836C240.307 54.0234 239.805 53.9453 239.242 53.9492ZM246.473 59.6094H245.488L245.406 53.5156H246.555L246.473 59.6094ZM245.98 62.0703C245.844 62.0703 245.717 62.0352 245.6 61.9648C245.486 61.8945 245.395 61.8027 245.324 61.6895C245.258 61.5723 245.227 61.4453 245.23 61.3086C245.227 61.1758 245.258 61.0508 245.324 60.9336C245.395 60.8164 245.486 60.7246 245.6 60.6582C245.717 60.5918 245.844 60.5586 245.98 60.5586C246.117 60.5586 246.242 60.5918 246.355 60.6582C246.473 60.7246 246.564 60.8164 246.631 60.9336C246.697 61.0508 246.73 61.1758 246.73 61.3086C246.73 61.4453 246.697 61.5723 246.631 61.6895C246.564 61.8027 246.473 61.8945 246.355 61.9648C246.242 62.0352 246.117 62.0703 245.98 62.0703Z" fill="#8A8A8A"/>
<defs>
<filter id="filter0_d_593_17868" x="0.5" y="0.5" width="358" height="95" filterUnits="userSpaceOnUse" color-interpolation-filters="sRGB">
<feFlood flood-opacity="0" result="BackgroundImageFix"/>
<feColorMatrix in="SourceAlpha" type="matrix" values="0 0 0 0 0 0 0 0 0 0 0 0 0 0 0 0 0 0 127 0" result="hardAlpha"/>
<feMorphology radius="1" operator="dilate" in="SourceAlpha" result="effect1_dropShadow_593_17868"/>
<feOffset/>
<feGaussianBlur stdDeviation="4"/>
<feComposite in2="hardAlpha" operator="out"/>
<feColorMatrix type="matrix" values="0 0 0 0 0 0 0 0 0 0 0 0 0 0 0 0 0 0 0.1 0"/>
<feBlend mode="normal" in2="BackgroundImageFix" result="effect1_dropShadow_593_17868"/>
<feBlend mode="normal" in="SourceGraphic" in2="effect1_dropShadow_593_17868" result="shape"/>
</filter>
</defs>
</svg>
