<svg width="38" height="38" viewBox="0 0 38 38" fill="none" xmlns="http://www.w3.org/2000/svg">
<circle cx="19" cy="19" r="18" fill="#FFECFF" stroke="#CACACA" stroke-width="0.5"/>
<path d="M9.88556 26.2637C11.3544 25.2825 13.9248 22.8297 12.456 20.8674C11.1097 21.4398 8.7108 23.3203 9.88556 26.2637Z" fill="#F59300"/>
<path d="M28.2228 26.2637C26.754 25.2825 24.1836 22.8297 25.6524 20.8674C26.9987 21.4398 29.3976 23.3203 28.2228 26.2637Z" fill="#F59300"/>
<path d="M11.7139 26.057C11.7139 25.2069 12.3952 24.112 12.7207 23.7578H25.2789C25.9123 24.4211 26.8215 24.7468 27.732 24.6366L27.9995 24.6042L27.6509 27.0786L27.93 28.274L27.2323 29.4695H12.5812L11.7139 26.057Z" fill="#F3AD66"/>
<path d="M25.0097 26.5713C25.2526 28.4304 25.8914 28.4859 26.4307 28.7273C29.0939 28.694 30.4049 26.4654 30.4879 25.2404C30.4326 24.2938 29.6801 24.3971 29.3108 24.5671C29.3212 23.5475 28.4558 23.4162 28.0218 23.478C28.0638 22.9993 27.4935 22.9244 27.203 22.9469C25.5624 23.3282 24.9108 25.8139 25.0097 26.5713Z" fill="#FAC174"/>
<path d="M28.473 25.9989C28.9719 26.7687 28.1251 27.6565 27.251 27.9873C26.951 28.1009 26.6505 28.132 26.3646 27.9623C26.0787 27.7927 25.9708 27.5193 25.939 27.2088C25.8462 26.3044 26.2781 25.1704 27.2128 25.2512C27.4553 25.2721 27.7026 25.3487 27.9317 25.4846C28.1608 25.6205 28.3435 25.7991 28.473 25.9989Z" fill="#3C1826"/>
<path d="M27.4879 24.4568C27.409 24.792 27.158 25.0226 26.9272 24.9716C26.6964 24.9207 26.5733 24.6076 26.6521 24.2723C26.731 23.937 26.982 23.7065 27.2128 23.7575C27.4436 23.8084 27.5667 24.1215 27.4879 24.4568Z" fill="#3C1826"/>
<path d="M28.8327 24.8009C28.659 25.1008 28.3508 25.253 28.1444 25.1409C27.938 25.0287 27.9114 24.6947 28.0851 24.3948C28.2588 24.0949 28.5669 23.9426 28.7734 24.0548C28.9798 24.1669 29.0064 24.501 28.8327 24.8009Z" fill="#3C1826"/>
<path d="M29.7143 25.9365C29.4655 26.1818 29.1269 26.2504 28.9581 26.0897C28.7893 25.9291 28.8541 25.6 29.1029 25.3547C29.3517 25.1094 29.6903 25.0408 29.8592 25.2014C30.028 25.3621 29.9632 25.6912 29.7143 25.9365Z" fill="#3C1826"/>
<path d="M19.0697 11.1917C17.9538 9.1678 17.7679 10.3484 17.8144 11.1917C16.652 11.1474 14.0763 11.3515 13.0721 12.5233C12.5607 12.4345 11.231 12.976 10.0035 15.8521C9.63158 16.4735 8.60873 17.7429 7.49289 17.8494C6.60022 18.4886 7.12094 19.2697 7.49289 19.5804C8.19029 20.6013 10.0035 21.9772 10.2825 22.2435C10.5614 22.5098 10.5893 23.149 11.2588 23.0424C11.6308 23.3087 12.4305 23.8147 12.6536 23.7082C12.9326 23.5751 14.7458 26.7708 19.0697 26.2381C23.3936 26.7708 25.0673 23.5751 25.3463 23.7082C25.5695 23.8147 26.3691 23.3088 26.7411 23.0424C27.4106 23.149 27.4385 22.5098 27.7175 22.2435C27.9964 21.9772 29.8097 20.6013 30.5071 19.5804C30.879 19.2697 31.3997 18.4886 30.5071 17.8494C29.3912 17.7429 28.3684 16.4735 27.9964 15.8521C26.769 12.976 25.4393 12.4345 24.9279 12.5233C23.9236 11.3515 21.3479 11.1474 20.1855 11.1917C20.0739 10.233 19.3951 10.7923 19.0697 11.1917Z" fill="#FAC174"/>
<path d="M27.9972 15.8533C26.7697 12.9772 25.44 12.4357 24.9286 12.5245C23.478 17.8842 25.533 21.7705 26.7418 23.0437C27.4114 23.1502 27.4392 22.511 27.7182 22.2447C27.9972 21.9784 29.8104 20.6025 30.5078 19.5816C30.8798 19.271 31.4005 18.4898 30.5078 17.8506C29.392 17.7441 28.3691 16.4747 27.9972 15.8533Z" fill="#F3AD66"/>
<path d="M10.0035 15.8533C11.231 12.9772 12.5607 12.4357 13.0721 12.5245C14.5227 17.8842 12.4677 21.7705 11.2588 23.0437C10.5893 23.1502 10.5614 22.511 10.2825 22.2447C10.0035 21.9784 8.19029 20.6025 7.49289 19.5816C7.12094 19.271 6.60022 18.4898 7.49289 17.8506C8.60873 17.7441 9.63158 16.4747 10.0035 15.8533Z" fill="#F3AD66"/>
<path d="M16.5588 18.2508C16.5588 18.8391 16.0593 18.9166 15.443 18.9166C14.8267 18.9166 14.3271 18.8391 14.3271 18.2508C14.3271 17.6625 14.8267 17.1855 15.443 17.1855C16.0593 17.1855 16.5588 17.6625 16.5588 18.2508Z" fill="#3C1826"/>
<path d="M23.5334 18.2508C23.5334 18.8391 23.0339 18.9166 22.4176 18.9166C21.8013 18.9166 21.3018 18.8391 21.3018 18.2508C21.3018 17.6625 21.8013 17.1855 22.4176 17.1855C23.0339 17.1855 23.5334 17.6625 23.5334 18.2508Z" fill="#3C1826"/>
<path d="M19.4766 21.7567C19.1854 22.0536 18.6749 22.0536 18.3836 21.7567L17.8622 21.2251C17.441 20.7957 17.776 20.1152 18.4086 20.1152L19.4516 20.1152C20.0842 20.1152 20.4193 20.7957 19.9981 21.2251L19.4766 21.7567Z" fill="#3C1826"/>
<path d="M18.9297 21.9785V22.7774" stroke="#32071A" stroke-width="0.728569" stroke-linecap="round" stroke-linejoin="round"/>
<path d="M14.9517 21.7129C14.6728 22.7337 15.1315 24.376 18.9253 22.7781C22.7192 24.376 23.2492 22.7337 22.9703 21.7129" stroke="#32071A" stroke-width="0.728569" stroke-linecap="round" stroke-linejoin="round"/>
<path d="M10.5865 26.29C10.9924 25.8056 12.2777 26.0074 12.8696 26.1689C15.1528 27.2587 15.2796 28.3485 14.7722 29.3172C14.3663 30.0922 13.5884 29.8823 13.2501 29.6805C12.5398 30.3586 12.024 29.8016 11.8549 29.4383C11.1446 30.2133 10.3751 29.7612 10.0791 29.4383C9.77471 29.8258 9.2758 29.519 9.06439 29.3172C8.04965 27.9852 10.0791 26.8954 10.5865 26.29Z" fill="#FAC174"/>
<path d="M13.5038 28.4688C13.5461 28.7917 13.5545 29.4859 13.25 29.6796" stroke="#32071A" stroke-width="0.546427" stroke-linecap="round" stroke-linejoin="round"/>
<path d="M11.8545 28.3496V29.4394" stroke="#32071A" stroke-width="0.546427" stroke-linecap="round" stroke-linejoin="round"/>
<path d="M10.0789 28.3496C9.9943 28.5514 9.87587 29.0519 10.0789 29.4394" stroke="#32071A" stroke-width="0.546427" stroke-linecap="round" stroke-linejoin="round"/>
<ellipse cx="15.6511" cy="17.7793" rx="0.279069" ry="0.26566" fill="white"/>
<ellipse cx="22.0701" cy="17.7793" rx="0.27907" ry="0.26566" fill="white"/>
<path d="M11.2852 13.8161C12.6953 14.1392 16.2123 14.7531 18.9994 14.6239C21.7865 14.7531 25.3036 14.1392 26.7137 13.8161C25.9174 9.42172 21.2391 8.10771 18.9994 8C16.7598 8.10771 12.0815 9.42172 11.2852 13.8161Z" fill="#FFA41B"/>
<mask id="mask0_778_22187" style="mask-type:alpha" maskUnits="userSpaceOnUse" x="11" y="8" width="16" height="7">
<path d="M11.2861 13.8161C12.6963 14.1392 16.2133 14.7531 19.0004 14.6239C21.7875 14.7531 25.3045 14.1392 26.7147 13.8161C25.9184 9.42172 21.24 8.10771 19.0004 8C16.7608 8.10771 12.0824 9.42172 11.2861 13.8161Z" fill="#FFA41B"/>
</mask>
<g mask="url(#mask0_778_22187)">
<ellipse cx="17.286" cy="9.65924" rx="0.428571" ry="0.415094" fill="white"/>
<ellipse cx="22.4295" cy="10.9034" rx="0.42857" ry="0.415094" fill="white"/>
<ellipse cx="13.8573" cy="12.1514" rx="0.428571" ry="0.415094" fill="white"/>
<ellipse cx="19.0008" cy="13.3956" rx="0.428571" ry="0.415094" fill="white"/>
<ellipse cx="19.0008" cy="8.41314" rx="0.428571" ry="0.415094" fill="white"/>
<ellipse cx="24.1434" cy="9.65924" rx="0.428571" ry="0.415094" fill="white"/>
<ellipse cx="17.286" cy="14.6417" rx="0.428571" ry="0.415094" fill="white"/>
<ellipse cx="15.5721" cy="10.9034" rx="0.428571" ry="0.415094" fill="white"/>
<ellipse cx="20.7147" cy="12.1514" rx="0.428571" ry="0.415094" fill="white"/>
<ellipse cx="25.8573" cy="13.3956" rx="0.428571" ry="0.415094" fill="white"/>
<ellipse cx="19.0008" cy="10.9034" rx="0.428571" ry="0.415094" fill="white"/>
<ellipse cx="24.1434" cy="12.1514" rx="0.428571" ry="0.415094" fill="white"/>
<ellipse cx="15.5721" cy="8.41314" rx="0.428571" ry="0.415094" fill="white"/>
<ellipse cx="12.1434" cy="13.3956" rx="0.428571" ry="0.415094" fill="white"/>
<ellipse cx="15.5721" cy="13.3956" rx="0.428571" ry="0.415094" fill="white"/>
<ellipse cx="20.7147" cy="14.6417" rx="0.428571" ry="0.415094" fill="white"/>
<ellipse cx="22.4295" cy="8.41314" rx="0.42857" ry="0.415094" fill="white"/>
<ellipse cx="20.7147" cy="9.65924" rx="0.428571" ry="0.415094" fill="white"/>
<ellipse cx="25.8573" cy="10.9034" rx="0.428571" ry="0.415094" fill="white"/>
<ellipse cx="12.1434" cy="10.9034" rx="0.428571" ry="0.415094" fill="white"/>
<ellipse cx="17.286" cy="12.1514" rx="0.428571" ry="0.415094" fill="white"/>
<ellipse cx="22.4295" cy="13.3956" rx="0.42857" ry="0.415094" fill="white"/>
<ellipse cx="13.8573" cy="9.65924" rx="0.428571" ry="0.415094" fill="white"/>
</g>
<path d="M17.2861 23.3594C17.8576 24.3279 19.6433 24.6047 20.5004 23.3594" stroke="#32071A" stroke-width="0.607141"/>
</svg>
