<svg width="38" height="38" viewBox="0 0 38 38" fill="none" xmlns="http://www.w3.org/2000/svg">
<circle cx="19" cy="19" r="18" fill="#FFFBEC" stroke="#CACACA" stroke-width="0.5"/>
<path d="M20.381 19.9819C18.8556 12.7023 22.7116 10.6535 24.8303 10.5391H25.1679C25.303 10.5391 25.3368 13.0212 25.3368 14.2622L24.8303 14.5161V21.6987L20.54 22.3855L19.4277 20.8403C20.0633 20.4969 20.3811 20.3252 20.381 19.9819Z" fill="#28303F"/>
<path d="M29.6172 19.9819C31.1426 12.7023 27.2866 10.6535 25.1679 10.5391V21.6987L29.4582 22.3855L30.5705 20.8403C29.9349 20.4969 29.6172 20.3252 29.6172 19.9819Z" fill="#28303F"/>
<path d="M19.3848 25.3853C19.3848 22.2841 22.4904 21.3858 24.0432 21.3242H25.3476L25.5339 30.0002H19.7574C19.4593 30.0002 19.3848 29.754 19.3848 29.631V25.3853Z" fill="#A9D6FF"/>
<path d="M30.9998 25.3853C30.9998 22.2841 28.0667 21.3858 26.6002 21.3242H25.3683L25.1923 30.0002H30.6479C30.9294 30.0002 30.9998 29.754 30.9998 29.631V25.3853Z" fill="#A9D6FF"/>
<path d="M21.0439 25.4068C21.0439 25.235 21.1832 25.0957 21.3551 25.0957C21.5269 25.0957 21.6662 25.235 21.6662 25.4068V29.9995H21.0439V25.4068Z" fill="#18A0FB"/>
<path d="M28.9258 25.4068C28.9258 25.235 29.0651 25.0957 29.2369 25.0957C29.4087 25.0957 29.548 25.235 29.548 25.4068V29.9995H28.9258V25.4068Z" fill="#18A0FB"/>
<path d="M25.1657 22.3929C23.8181 22.3929 23.7307 21.2638 23.8555 20.6992H25.1657V22.3929Z" fill="#E8BA8C"/>
<path d="M25.1657 22.3929C26.5134 22.3929 26.6007 21.2638 26.4759 20.6992H25.1657V22.3929Z" fill="#E8BA8C"/>
<path d="M23.4872 14.9405C22.9181 15.0757 22.3134 15.1459 21.6966 15.1092V16.4628C21.2222 16.5192 20.3091 16.835 20.4514 17.6471C20.4515 17.9291 20.7007 18.5269 21.6966 18.6623C22.0718 19.4274 22.7475 20.8566 24.3214 21.0229L24.7402 21.031C24.8271 21.0374 24.9127 21.0398 24.997 21.0385C25.0814 21.0398 25.167 21.0374 25.2538 21.031L25.8416 21.0229C27.4154 20.8566 27.9222 19.4274 28.2975 18.6623C29.2934 18.5269 29.5425 17.9291 29.5426 17.6471C29.6849 16.835 28.7718 16.5192 28.2975 16.4628V15.1092C26.855 14.2642 26.5172 13.5868 26.3483 13.248C26.1794 13.5868 25.8318 14.0281 24.997 14.4129C24.3214 14.7723 23.4769 14.9417 23.4769 14.9417L23.4872 14.9405Z" fill="#F3CEA0"/>
<path d="M21.7878 17.9904C21.2186 18.1256 20.9432 17.8255 20.9432 17.4823C20.9269 17.0459 21.0917 16.9425 21.6966 16.4629C21.2222 16.5193 20.3091 16.8351 20.4514 17.6473C20.4515 17.9293 20.7007 18.5271 21.6966 18.6624C22.0718 19.4275 22.7475 20.8568 24.3214 21.0231L24.997 21.0391C25.0839 21.0454 25.0816 20.5322 25.1659 20.531C24.2103 20.531 23.3119 20.0745 22.7468 19.3018L21.7878 17.9904Z" fill="#EBC498"/>
<path d="M28.2063 17.9904C28.7754 18.1256 29.0508 17.8255 29.0508 17.4823C29.0671 17.0459 28.9024 16.9425 28.2975 16.4629C28.7718 16.5193 29.6849 16.8351 29.5426 17.6473C29.5425 17.9293 29.2934 18.5271 28.2975 18.6624C27.9222 19.4275 27.3617 21.0391 25.6727 21.0231L24.6592 21.0391C24.5724 21.0454 24.9125 20.5322 24.8281 20.531C25.7837 20.531 26.6821 20.0745 27.2472 19.3018L28.2063 17.9904Z" fill="#EBC498"/>
<path d="M25.6627 18.6836H24.4483C24.0475 18.6836 23.8695 19.1876 24.1814 19.4393L24.2989 19.5342C24.7675 19.9123 25.4423 19.8901 25.8849 19.4818L25.9509 19.421C26.2353 19.1586 26.0496 18.6836 25.6627 18.6836Z" fill="#970F0F"/>
<path d="M24.0237 16.6224C24.0237 17.0162 23.6032 16.6224 23.2447 16.6224C22.8863 16.6224 22.4658 17.0162 22.4658 16.6224C22.4658 16.2285 22.8863 16.043 23.2447 16.043C23.6032 16.043 24.0237 16.2285 24.0237 16.6224Z" fill="#28303F"/>
<path d="M27.5295 16.6224C27.5295 17.0162 27.1091 16.6224 26.7506 16.6224C26.3921 16.6224 25.9717 17.0162 25.9717 16.6224C25.9717 16.2285 26.3921 16.043 26.7506 16.043C27.1091 16.043 27.5295 16.2285 27.5295 16.6224Z" fill="#28303F"/>
<path d="M7 25.0761C7 21.768 10.7767 20.8098 12.665 20.7441H14.2512L14.4778 29.9987H7.4532C7.09064 29.9987 7 29.7362 7 29.6049V25.0761Z" fill="#FFA41B"/>
<path d="M21.1247 25.0761C21.1247 21.768 17.5579 20.8098 15.7744 20.7441H14.2764L14.0624 29.9987H20.6967C21.0391 29.9987 21.1247 29.7362 21.1247 29.6049V25.0761Z" fill="#FFA41B"/>
<path d="M9.90723 25.0792C9.90723 24.9071 10.0467 24.7676 10.2188 24.7676C10.3909 24.7676 10.5304 24.9071 10.5304 25.0792V29.9984H9.90723V25.0792Z" fill="#C57600"/>
<path d="M17.8008 25.0792C17.8008 24.9071 17.9403 24.7676 18.1124 24.7676C18.2844 24.7676 18.4239 24.9071 18.4239 25.0792V29.9984H17.8008V25.0792Z" fill="#C57600"/>
<path d="M8.66149 9.27793C13.4805 6.70275 15.7931 8.60731 16.347 9.88149C20.335 9.88149 19.9475 14.0393 19.2552 16.1182L16.7626 14.9111L8.86921 15.7158C6.54278 12.014 7.76139 9.88146 8.66149 9.27793Z" fill="#351509"/>
<path d="M14.0621 22.3556C12.4048 22.3556 12.2974 21.0144 12.4509 20.3438H14.0621V22.3556Z" fill="#E8BA8C"/>
<path d="M14.0621 22.3556C15.7194 22.3556 15.8268 21.0144 15.6734 20.3438H14.0621V22.3556Z" fill="#E8BA8C"/>
<path d="M11.9977 13.5026C11.2978 13.6633 10.5542 13.7466 9.79563 13.703V15.3109C9.2123 15.3779 8.0894 15.7531 8.2644 16.7178C8.26452 17.0528 8.57093 17.7629 9.79563 17.9237C10.2571 18.8325 11.0881 20.5303 13.0236 20.7278L13.5386 20.7375C13.6454 20.745 13.7507 20.7479 13.8544 20.7463C13.9582 20.7479 14.0634 20.745 14.1702 20.7375L14.893 20.7278C16.8285 20.5303 17.4518 18.8325 17.9132 17.9237C19.1379 17.7629 19.4443 17.0528 19.4445 16.7178C19.6195 15.7531 18.4966 15.3779 17.9132 15.3109V13.703C16.1393 12.6993 15.7239 11.8946 15.5162 11.4922C15.3084 11.8946 14.881 12.4188 13.8544 12.8759C13.0236 13.3029 11.985 13.504 11.985 13.504L11.9977 13.5026Z" fill="#F3CEA0"/>
<path d="M9.90782 17.1251C9.20791 17.2857 8.86924 16.9291 8.86924 16.5215C8.8492 16.0031 9.0518 15.8803 9.79563 15.3105C9.2123 15.3775 8.0894 15.7527 8.2644 16.7174C8.26452 17.0524 8.57093 17.7626 9.79563 17.9233C10.2571 18.8321 11.0881 20.5299 13.0236 20.7275L13.8544 20.7465C13.9612 20.754 13.9584 20.1445 14.0621 20.1429C12.887 20.1429 11.7821 19.6007 11.0872 18.6828L9.90782 17.1251Z" fill="#EBC498"/>
<path d="M17.801 17.1251C18.501 17.2857 18.8396 16.9291 18.8396 16.5215C18.8597 16.0031 18.6571 15.8803 17.9132 15.3105C18.4966 15.3775 19.6195 15.7527 19.4445 16.7174C19.4443 17.0524 19.1379 17.7626 17.9132 17.9233C17.4518 18.8321 16.7625 20.7465 14.6853 20.7275L13.439 20.7465C13.3322 20.754 13.7504 20.1445 13.6467 20.1429C14.8219 20.1429 15.9267 19.6007 16.6217 18.6828L17.801 17.1251Z" fill="#EBC498"/>
<path d="M13.7578 17.144C13.0431 17.0458 11.8418 17.2447 11.9995 18.7719C12.3267 18.8986 13.1117 18.9654 13.7578 18.2931C14.404 18.9654 15.1889 18.8986 15.5162 18.7719C15.6739 17.2447 14.4726 17.0458 13.7578 17.144Z" fill="#351509"/>
<path d="M12.816 15.7313C12.816 16.1514 12.3676 15.7313 11.9852 15.7313C11.6028 15.7313 11.1543 16.1514 11.1543 15.7313C11.1543 15.3112 11.6028 15.1133 11.9852 15.1133C12.3676 15.1133 12.816 15.3112 12.816 15.7313Z" fill="#351509"/>
<path d="M16.5553 15.7313C16.5553 16.1514 16.1068 15.7313 15.7244 15.7313C15.342 15.7313 14.8936 16.1514 14.8936 15.7313C14.8936 15.3112 15.342 15.1133 15.7244 15.1133C16.1068 15.1133 16.5553 15.3112 16.5553 15.7313Z" fill="#351509"/>
</svg>
