<svg width="32" height="32" viewBox="0 0 32 32" fill="none" xmlns="http://www.w3.org/2000/svg">
<rect width="32" height="32" rx="16" fill="#EEEEEE" fill-opacity="0.933333"/>
<g clip-path="url(#clip0_180_121)">
<path d="M10 22.5C10 22.8978 10.158 23.2794 10.4393 23.5607C10.7206 23.842 11.1022 24 11.5 24H20.5C20.8978 24 21.2794 23.842 21.5607 23.5607C21.842 23.2794 22 22.8978 22 22.5V12H10V22.5ZM18.5 14.5C18.5 14.3674 18.5527 14.2402 18.6464 14.1465C18.7402 14.0527 18.8674 14 19 14C19.1326 14 19.2598 14.0527 19.3536 14.1465C19.4473 14.2402 19.5 14.3674 19.5 14.5V21.5C19.5 21.6326 19.4473 21.7598 19.3536 21.8536C19.2598 21.9473 19.1326 22 19 22C18.8674 22 18.7402 21.9473 18.6464 21.8536C18.5527 21.7598 18.5 21.6326 18.5 21.5V14.5ZM15.5 14.5C15.5 14.3674 15.5527 14.2402 15.6464 14.1465C15.7402 14.0527 15.8674 14 16 14C16.1326 14 16.2598 14.0527 16.3536 14.1465C16.4473 14.2402 16.5 14.3674 16.5 14.5V21.5C16.5 21.6326 16.4473 21.7598 16.3536 21.8536C16.2598 21.9473 16.1326 22 16 22C15.8674 22 15.7402 21.9473 15.6464 21.8536C15.5527 21.7598 15.5 21.6326 15.5 21.5V14.5ZM12.5 14.5C12.5 14.3674 12.5527 14.2402 12.6464 14.1465C12.7402 14.0527 12.8674 14 13 14C13.1326 14 13.2598 14.0527 13.3536 14.1465C13.4473 14.2402 13.5 14.3674 13.5 14.5V21.5C13.5 21.6326 13.4473 21.7598 13.3536 21.8536C13.2598 21.9473 13.1326 22 13 22C12.8674 22 12.7402 21.9473 12.6464 21.8536C12.5527 21.7598 12.5 21.6326 12.5 21.5V14.5ZM22.5 9.00001H18.75L18.4563 8.41563C18.394 8.2907 18.2982 8.18561 18.1795 8.11218C18.0608 8.03875 17.9239 7.99991 17.7844 8.00001H14.2125C14.0732 7.99947 13.9367 8.03817 13.8184 8.11168C13.7001 8.18519 13.6049 8.29053 13.5437 8.41563L13.25 9.00001H9.5C9.36739 9.00001 9.24021 9.05268 9.14645 9.14645C9.05268 9.24022 9 9.3674 9 9.50001V10.5C9 10.6326 9.05268 10.7598 9.14645 10.8536C9.24021 10.9473 9.36739 11 9.5 11H22.5C22.6326 11 22.7598 10.9473 22.8536 10.8536C22.9473 10.7598 23 10.6326 23 10.5V9.50001C23 9.3674 22.9473 9.24022 22.8536 9.14645C22.7598 9.05268 22.6326 9.00001 22.5 9.00001Z" fill="black"/>
</g>
<defs>
<clipPath id="clip0_180_121">
<rect width="16" height="16" fill="white" transform="translate(8 8)"/>
</clipPath>
</defs>
</svg>
