<svg width="56" height="52" viewBox="0 0 56 52" fill="none" xmlns="http://www.w3.org/2000/svg">
<g id="dog_1">
<path id="Vector 2714" d="M6.73297 43.1698C10.1602 40.8508 16.1578 35.0532 12.7306 30.4151C9.58925 31.7679 3.99186 36.2127 6.73297 43.1698Z" fill="#F59300"/>
<path id="Vector 2715" d="M49.5209 43.1698C46.0937 40.8508 40.0961 35.0532 43.5233 30.4151C46.6647 31.7679 52.262 36.2127 49.5209 43.1698Z" fill="#F59300"/>
<path id="Vector 2701" d="M10.9998 42.6789C10.9998 40.6696 12.5894 38.0816 13.3491 37.2444H42.6514C44.1278 38.8106 46.2614 39.5808 48.3978 39.3188L48.9998 39.245L48.1863 45.0934L48.8375 47.9191L47.2096 50.7447H13.0236L10.9998 42.6789Z" fill="#F3AD66"/>
<g id="Vector">
<path d="M42.0227 43.8959C42.5894 48.2901 44.08 48.4213 45.3382 48.9918C51.5523 48.9131 54.6115 43.6456 54.8052 40.7502C54.6761 38.5126 52.9203 38.757 52.0585 39.1588C52.0828 36.7488 50.0635 36.4384 49.0509 36.5845C49.1489 35.453 47.8181 35.2761 47.1404 35.3291C43.3123 36.2304 41.7918 42.1058 42.0227 43.8959Z" fill="#FAC174"/>
<path d="M50.1037 42.543C51.2677 44.3625 49.2918 46.461 47.2523 47.2429C46.5522 47.5113 45.8513 47.5848 45.1841 47.1838C44.517 46.7828 44.2653 46.1367 44.1909 45.4029C43.9744 43.2651 44.9823 40.5848 47.1632 40.7756C47.7291 40.8252 48.3062 41.0061 48.8407 41.3274C49.3752 41.6486 49.8016 42.0708 50.1037 42.543Z" fill="#3C1826"/>
<path d="M47.805 38.8979C47.621 39.6904 47.0352 40.2353 46.4968 40.1149C45.9583 39.9945 45.6709 39.2545 45.855 38.462C46.039 37.6695 46.6247 37.1247 47.1632 37.245C47.7017 37.3654 47.989 38.1054 47.805 38.8979Z" fill="#3C1826"/>
<path d="M50.9429 39.7113C50.5377 40.4202 49.8187 40.78 49.337 40.515C48.8553 40.2499 48.7933 39.4603 49.1986 38.7514C49.6038 38.0425 50.3228 37.6827 50.8045 37.9478C51.2862 38.2129 51.3482 39.0024 50.9429 39.7113Z" fill="#3C1826"/>
<path d="M53.0002 42.3955C52.4196 42.9753 51.6296 43.1375 51.2356 42.7577C50.8416 42.378 50.9929 41.6001 51.5735 41.0203C52.1541 40.4405 52.9441 40.2783 53.3381 40.6581C53.732 41.0378 53.5808 41.8157 53.0002 42.3955Z" fill="#3C1826"/>
</g>
<path id="Vector 2674" d="M28.1627 7.54706C25.559 2.76319 25.1251 5.55378 25.2336 7.54706C22.5215 7.44214 16.5115 7.92469 14.1682 10.6943C12.9749 10.4845 9.87225 11.7644 7.00825 18.5625C6.14037 20.0312 3.75371 23.0316 1.15008 23.2834C-0.932826 24.7941 0.282203 26.6405 1.15008 27.3749C2.77735 29.7878 7.00825 33.04 7.65916 33.6694C8.31007 34.2989 8.37516 35.8096 9.93734 35.5578C10.8052 36.1873 12.6712 37.3832 13.1919 37.1314C13.8428 36.8167 18.0736 44.3702 28.1627 43.1113C38.2517 44.3702 42.1572 36.8167 42.8081 37.1314C43.3288 37.3832 45.1948 36.1873 46.0626 35.5578C47.6248 35.8096 47.6899 34.2989 48.3408 33.6694C48.9917 33.04 53.2226 29.7878 54.8499 27.3749C55.7178 26.6405 56.9328 24.7941 54.8499 23.2834C52.2463 23.0316 49.8596 20.0312 48.9917 18.5625C46.1277 11.7644 43.0251 10.4845 41.8317 10.6943C39.4885 7.92469 33.4784 7.44214 30.7663 7.54706C30.5059 5.28105 28.9221 6.60289 28.1627 7.54706Z" fill="#FAC174"/>
<path id="Vector 2692" d="M48.9919 18.5631C46.1279 11.765 43.0252 10.4851 41.8319 10.6949C38.4472 23.3633 43.2422 32.5491 46.0628 35.5584C47.625 35.8102 47.6901 34.2995 48.341 33.67C48.9919 33.0406 53.2228 29.7884 54.85 27.3755C55.7179 26.6411 56.9329 24.7947 54.85 23.284C52.2464 23.0322 49.8597 20.0318 48.9919 18.5631Z" fill="#F3AD66"/>
<path id="Vector 2691" d="M7.00825 18.5631C9.87225 11.765 12.9749 10.4851 14.1682 10.6949C17.553 23.3633 12.7579 32.5491 9.93734 35.5584C8.37516 35.8102 8.31007 34.2995 7.65916 33.67C7.00825 33.0406 2.77735 29.7884 1.15008 27.3755C0.282203 26.6411 -0.932826 24.7947 1.15008 23.284C3.75371 23.0322 6.14037 20.0318 7.00825 18.5631Z" fill="#F3AD66"/>
<path id="Ellipse 260" d="M22.3047 24.2279C22.3047 25.6185 21.139 25.8015 19.701 25.8015C18.2631 25.8015 17.0974 25.6185 17.0974 24.2279C17.0974 22.8374 18.2631 21.7101 19.701 21.7101C21.139 21.7101 22.3047 22.8374 22.3047 24.2279Z" fill="#3C1826"/>
<path id="Ellipse 261" d="M38.5774 24.2279C38.5774 25.6185 37.4117 25.8015 35.9738 25.8015C34.5358 25.8015 33.3701 25.6185 33.3701 24.2279C33.3701 22.8374 34.5358 21.7101 35.9738 21.7101C37.4117 21.7101 38.5774 22.8374 38.5774 24.2279Z" fill="#3C1826"/>
<path id="Polygon 2" d="M29.1126 32.5135C28.433 33.2153 27.2418 33.2153 26.5623 32.5135L25.3455 31.2569C24.3627 30.242 25.1445 28.6337 26.6206 28.6337L29.0542 28.6337C30.5303 28.6337 31.3121 30.242 30.3293 31.2569L29.1126 32.5135Z" fill="#3C1826"/>
<path id="Vector 2677" d="M27.8373 33.0408V34.9291" stroke="#32071A" stroke-width="1.2" stroke-linecap="round" stroke-linejoin="round"/>
<path id="Vector 2678" d="M18.5554 32.4109C17.9045 34.8238 18.9748 38.7054 27.8272 34.9287C36.6795 38.7054 37.9163 34.8238 37.2654 32.4109" stroke="#32071A" stroke-width="1.2" stroke-linecap="round" stroke-linejoin="round"/>
<g id="Group 7362">
<path id="Vector 2682" d="M8.36847 43.2309C9.31552 42.0861 12.3146 42.5631 13.6958 42.9447C19.0231 45.5205 19.3191 48.0965 18.1352 50.3861C17.1882 52.2179 15.3729 51.7218 14.5837 51.2448C12.9263 52.8475 11.7227 51.531 11.3281 50.6724C9.67071 52.5041 7.87521 51.4356 7.18463 50.6724C6.47432 51.5882 5.31019 50.8632 4.81692 50.3861C2.44919 47.2379 7.18462 44.6619 8.36847 43.2309Z" fill="#FAC174"/>
<path id="Vector 2683" d="M15.1759 48.3827C15.2746 49.1459 15.2943 50.7868 14.5837 51.2448" stroke="#32071A" stroke-width="0.9" stroke-linecap="round" stroke-linejoin="round"/>
<path id="Vector 2684" d="M11.3276 48.0973V50.6732" stroke="#32071A" stroke-width="0.9" stroke-linecap="round" stroke-linejoin="round"/>
<path id="Vector 2685" d="M7.18479 48.0973C6.9874 48.5743 6.71106 49.7573 7.18479 50.6732" stroke="#32071A" stroke-width="0.9" stroke-linecap="round" stroke-linejoin="round"/>
</g>
<ellipse id="Ellipse 266" cx="20.1862" cy="23.1158" rx="0.651163" ry="0.627923" fill="white"/>
<ellipse id="Ellipse 267" cx="35.1629" cy="23.1158" rx="0.651163" ry="0.627923" fill="white"/>
<path id="Union" d="M10 13.7472C13.2903 14.5109 21.4968 15.962 28 15.6565C34.5032 15.962 42.7097 14.5109 46 13.7472C44.1419 3.36042 33.2258 0.254577 28 0C22.7742 0.254577 11.8581 3.36042 10 13.7472Z" fill="#FFA41B"/>
<g id="Mask group">
<mask id="mask0_110_475" style="mask-type:alpha" maskUnits="userSpaceOnUse" x="10" y="0" width="36" height="16">
<path id="Union_2" d="M10 13.7472C13.2903 14.5109 21.4968 15.962 28 15.6565C34.5032 15.962 42.7097 14.5109 46 13.7472C44.1419 3.36042 33.2258 0.254577 28 0C22.7742 0.254577 11.8581 3.36042 10 13.7472Z" fill="#FFA41B"/>
</mask>
<g mask="url(#mask0_110_475)">
<g id="Group 7426">
<ellipse id="Ellipse 295" cx="24" cy="3.92461" rx="1" ry="0.981132" fill="white"/>
<ellipse id="Ellipse 305" cx="36" cy="6.86797" rx="1" ry="0.981132" fill="white"/>
<ellipse id="Ellipse 301" cx="16" cy="9.81133" rx="1" ry="0.981132" fill="white"/>
<ellipse id="Ellipse 306" cx="28" cy="12.7548" rx="1" ry="0.981132" fill="white"/>
<ellipse id="Ellipse 296" cx="28" cy="0.981132" rx="1" ry="0.981132" fill="white"/>
<ellipse id="Ellipse 307" cx="40" cy="3.92461" rx="1" ry="0.981132" fill="white"/>
<ellipse id="Ellipse 342" cx="24" cy="15.6982" rx="1" ry="0.981132" fill="white"/>
<ellipse id="Ellipse 302" cx="20" cy="6.86797" rx="1" ry="0.981132" fill="white"/>
<ellipse id="Ellipse 308" cx="32" cy="9.81133" rx="1" ry="0.981132" fill="white"/>
<ellipse id="Ellipse 316" cx="44" cy="12.7548" rx="1" ry="0.981132" fill="white"/>
<ellipse id="Ellipse 300" cx="28" cy="6.86797" rx="1" ry="0.981132" fill="white"/>
<ellipse id="Ellipse 309" cx="40" cy="9.81133" rx="1" ry="0.981132" fill="white"/>
<ellipse id="Ellipse 331" cx="20" cy="0.981132" rx="1" ry="0.981132" fill="white"/>
<ellipse id="Ellipse 339" cx="12" cy="12.7548" rx="1" ry="0.981132" fill="white"/>
<ellipse id="Ellipse 303" cx="20" cy="12.7548" rx="1" ry="0.981132" fill="white"/>
<ellipse id="Ellipse 310" cx="32" cy="15.6982" rx="1" ry="0.981132" fill="white"/>
<ellipse id="Ellipse 326" cx="36" cy="0.981132" rx="1" ry="0.981132" fill="white"/>
<ellipse id="Ellipse 299" cx="32" cy="3.92461" rx="1" ry="0.981132" fill="white"/>
<ellipse id="Ellipse 311" cx="44" cy="6.86797" rx="1" ry="0.981132" fill="white"/>
<ellipse id="Ellipse 337" cx="12" cy="6.86797" rx="1" ry="0.981132" fill="white"/>
<ellipse id="Ellipse 304" cx="24" cy="9.81133" rx="1" ry="0.981132" fill="white"/>
<ellipse id="Ellipse 312" cx="36" cy="12.7548" rx="1" ry="0.981132" fill="white"/>
<ellipse id="Ellipse 333" cx="16" cy="3.92461" rx="1" ry="0.981132" fill="white"/>
</g>
</g>
</g>
<path id="Vector 2716" d="M24 36.3019C25.3333 38.5912 29.5 39.2453 31.5 36.3019" stroke="#32071A"/>
</g>
</svg>
