<svg width="25" height="24" viewBox="0 0 25 24" fill="none" xmlns="http://www.w3.org/2000/svg">
<path d="M11.4474 2C6.50587 2 2.5 4.86311 2.5 8.39493C2.5 10.1202 3.45588 11.6858 5.00975 12.8362C4.81192 13.5194 4.3837 14.3155 3.53251 15.006C2.62464 15.7425 6.36081 15.1059 8.27262 14.3756C9.25927 14.6433 10.3294 14.7899 11.4474 14.7899C16.3889 14.7899 20.3947 11.9267 20.3947 8.39493C20.3947 4.86311 16.3889 2 11.4474 2Z" stroke="#1F1F1F" stroke-width="1.5" stroke-linecap="round" stroke-linejoin="round"/>
<path d="M21.1614 13.8066C22.0612 14.6087 22.5 15.6376 22.5 16.7971C22.5 18.0911 21.7128 19.2653 20.4331 20.1281C20.5961 20.6405 20.9487 21.2376 21.6497 21.7554C22.3974 22.3078 19.3205 21.8304 17.7461 21.2826C16.9335 21.4834 16.0523 21.5933 15.1316 21.5933C11.7007 21.5933 8.82038 19.5673 8 17.501" stroke="#1F1F1F" stroke-width="1.5" stroke-linecap="round"/>
<path d="M12.5262 6.44509C12.5262 6.8084 12.2536 7.05619 11.9735 7.05619C11.6934 7.05619 11.4209 6.8084 11.4209 6.44509C11.4209 6.08177 11.6934 5.83398 11.9735 5.83398C12.2536 5.83398 12.5262 6.08177 12.5262 6.44509Z" fill="#1F1F1F" stroke="#1F1F1F"/>
<path d="M8.3162 6.44509C8.3162 6.8084 8.04365 7.05619 7.76357 7.05619C7.48348 7.05619 7.21094 6.8084 7.21094 6.44509C7.21094 6.08177 7.48348 5.83398 7.76357 5.83398C8.04365 5.83398 8.3162 6.08177 8.3162 6.44509Z" fill="#1F1F1F" stroke="#1F1F1F"/>
<path d="M8.81543 9.77712L9.86806 8.66602L10.9207 9.77712" stroke="black" stroke-width="1.4" stroke-linecap="round" stroke-linejoin="round"/>
</svg>
