<svg width="24" height="24" viewBox="0 0 24 24" fill="none" xmlns="http://www.w3.org/2000/svg">
<path d="M6.31965 22C7.79997 22 9 20.8 9 19.3196V15.7949C9 14.6903 9.89543 13.7949 11 13.7949H13C14.1046 13.7949 15 14.6903 15 15.7949V19.3197C15 20.8 16.2 22 17.6804 22V22C19.1607 22 20.3607 20.8 20.3607 19.3196V13.4185C20.3607 12.6921 20.6555 11.9955 21.1803 11.4818C22.3962 10.2918 22.2381 8.32005 20.8475 7.33017L14.4588 2.78256C12.9929 1.73915 11.0071 1.73915 9.54124 2.78256L3.15251 7.33017C1.76187 8.32005 1.60381 10.2918 2.81969 11.4818C3.34447 11.9955 3.6393 12.6921 3.6393 13.4185V19.3196C3.6393 20.8 4.83933 22 6.31965 22V22Z" stroke="#1F1F1F" stroke-width="1.5" stroke-linecap="round"/>
</svg>
