<svg width="24" height="24" viewBox="0 0 24 24" fill="none" xmlns="http://www.w3.org/2000/svg">
<path fill-rule="evenodd" clip-rule="evenodd" d="M12 7.02774C13.1046 7.02774 14 6.1261 14 5.01387C14 3.90164 13.1046 3 12 3C10.8954 3 10 3.90164 10 5.01387C10 6.1261 10.8954 7.02774 12 7.02774ZM12 19.5488L11.589 19.9839C10.3104 21.3372 8.23747 21.3372 6.95892 19.9839C5.7147 18.6669 5.67647 16.5446 6.87236 15.1784L10.3082 11.2534C11.2209 10.2106 12.7791 10.2106 13.6918 11.2534L17.1276 15.1784C18.3235 16.5446 18.2853 18.6669 17.0411 19.9839C15.7625 21.3371 13.6896 21.3371 12.411 19.9839L12 19.5488ZM7 8.03487C7 9.1471 6.10457 10.0487 5 10.0487C3.89543 10.0487 3 9.1471 3 8.03487C3 6.92264 3.89543 6.021 5 6.021C6.10457 6.021 7 6.92264 7 8.03487ZM19 10.0487C20.1046 10.0487 21 9.14707 21 8.03484C21 6.92261 20.1046 6.02097 19 6.02097C17.8954 6.02097 17 6.92261 17 8.03484C17 9.14707 17.8954 10.0487 19 10.0487Z" fill="#FFA41B"/>
<path d="M11.589 19.9839L11.0438 19.4688L11.589 19.9839ZM12 19.5488L12.5452 19.0338L12 18.4567L11.4548 19.0338L12 19.5488ZM6.95892 19.9839L6.41375 20.4989H6.41375L6.95892 19.9839ZM6.87236 15.1784L7.43669 15.6724L6.87236 15.1784ZM10.3082 11.2534L9.74383 10.7594L10.3082 11.2534ZM13.6918 11.2534L14.2562 10.7594L14.2562 10.7594L13.6918 11.2534ZM17.1276 15.1784L16.5633 15.6724L17.1276 15.1784ZM17.0411 19.9839L17.5862 20.4989L17.0411 19.9839ZM12.411 19.9839L12.9562 19.4688L12.411 19.9839ZM13.25 5.01387C13.25 5.71678 12.6855 6.27774 12 6.27774V7.77774C13.5237 7.77774 14.75 6.53542 14.75 5.01387H13.25ZM12 3.75C12.6855 3.75 13.25 4.31096 13.25 5.01387H14.75C14.75 3.49232 13.5237 2.25 12 2.25V3.75ZM10.75 5.01387C10.75 4.31096 11.3145 3.75 12 3.75V2.25C10.4763 2.25 9.25 3.49232 9.25 5.01387H10.75ZM12 6.27774C11.3145 6.27774 10.75 5.71678 10.75 5.01387H9.25C9.25 6.53542 10.4763 7.77774 12 7.77774V6.27774ZM12.1341 20.4989L12.5452 20.0639L11.4548 19.0338L11.0438 19.4688L12.1341 20.4989ZM6.41375 20.4989C7.98825 22.1655 10.5596 22.1655 12.1341 20.4989L11.0438 19.4688C10.0612 20.5088 8.48669 20.5088 7.50408 19.4688L6.41375 20.4989ZM6.30802 14.6844C4.85829 16.3406 4.90304 18.8999 6.41375 20.4989L7.50409 19.4688C6.52636 18.434 6.49465 16.7486 7.43669 15.6724L6.30802 14.6844ZM9.74383 10.7594L6.30802 14.6844L7.43669 15.6724L10.8725 11.7474L9.74383 10.7594ZM14.2562 10.7594C13.0446 9.37529 10.9554 9.37529 9.74383 10.7594L10.8725 11.7474C11.4865 11.046 12.5135 11.046 13.1275 11.7474L14.2562 10.7594ZM17.692 14.6844L14.2562 10.7594L13.1275 11.7474L16.5633 15.6724L17.692 14.6844ZM17.5862 20.4989C19.097 18.8999 19.1417 16.3406 17.692 14.6844L16.5633 15.6724C17.5054 16.7486 17.4736 18.4339 16.4959 19.4688L17.5862 20.4989ZM11.8659 20.4989C13.4404 22.1655 16.0117 22.1655 17.5862 20.4989L16.4959 19.4688C15.5133 20.5088 13.9388 20.5088 12.9562 19.4688L11.8659 20.4989ZM11.4548 20.0639L11.8659 20.4989L12.9562 19.4688L12.5452 19.0338L11.4548 20.0639ZM5 10.7987C6.52366 10.7987 7.75 9.55641 7.75 8.03487H6.25C6.25 8.73778 5.68548 9.29874 5 9.29874V10.7987ZM2.25 8.03487C2.25 9.55641 3.47634 10.7987 5 10.7987V9.29874C4.31452 9.29874 3.75 8.73778 3.75 8.03487H2.25ZM5 5.271C3.47634 5.271 2.25 6.51332 2.25 8.03487H3.75C3.75 7.33195 4.31452 6.771 5 6.771V5.271ZM7.75 8.03487C7.75 6.51332 6.52366 5.271 5 5.271V6.771C5.68548 6.771 6.25 7.33195 6.25 8.03487H7.75ZM20.25 8.03484C20.25 8.73775 19.6855 9.29871 19 9.29871V10.7987C20.5237 10.7987 21.75 9.55639 21.75 8.03484H20.25ZM19 6.77097C19.6855 6.77097 20.25 7.33193 20.25 8.03484H21.75C21.75 6.51329 20.5237 5.27097 19 5.27097V6.77097ZM17.75 8.03484C17.75 7.33193 18.3145 6.77097 19 6.77097V5.27097C17.4763 5.27097 16.25 6.51329 16.25 8.03484H17.75ZM19 9.29871C18.3145 9.29871 17.75 8.73775 17.75 8.03484H16.25C16.25 9.55639 17.4763 10.7987 19 10.7987V9.29871Z" fill="#FFA41B"/>
</svg>
