<svg width="24" height="24" viewBox="0 0 24 24" fill="none" xmlns="http://www.w3.org/2000/svg">
<path fill-rule="evenodd" clip-rule="evenodd" d="M10.75 5.01387C10.75 4.31096 11.3145 3.75 12 3.75C12.6855 3.75 13.25 4.31096 13.25 5.01387C13.25 5.71678 12.6855 6.27774 12 6.27774C11.3145 6.27774 10.75 5.71678 10.75 5.01387ZM12 2.25C10.4763 2.25 9.25 3.49232 9.25 5.01387C9.25 6.53542 10.4763 7.77774 12 7.77774C13.5237 7.77774 14.75 6.53542 14.75 5.01387C14.75 3.49232 13.5237 2.25 12 2.25ZM6.41375 20.4989C7.9443 22.1189 10.4169 22.1642 12 20.6346C13.5831 22.1642 16.0557 22.1189 17.5862 20.4989C19.097 18.8999 19.1417 16.3406 17.692 14.6844L14.2562 10.7594C13.0446 9.37529 10.9554 9.37529 9.74384 10.7594L6.30802 14.6844C4.85829 16.3406 4.90304 18.8999 6.41375 20.4989ZM11.0438 19.4688C10.0612 20.5088 8.48669 20.5088 7.50409 19.4688C6.52636 18.434 6.49465 16.7486 7.43669 15.6724L10.8725 11.7474C11.4865 11.046 12.5135 11.046 13.1275 11.7474L16.5633 15.6724C17.5054 16.7486 17.4736 18.4339 16.4959 19.4688C15.5133 20.5088 13.9388 20.5088 12.9562 19.4688L12.5452 19.0338C12.4035 18.8838 12.2063 18.7988 12 18.7988C11.7937 18.7988 11.5965 18.8838 11.4548 19.0338L11.0438 19.4688ZM5 6.771C4.31452 6.771 3.75 7.33195 3.75 8.03487C3.75 8.73778 4.31452 9.29874 5 9.29874C5.68548 9.29874 6.25 8.73778 6.25 8.03487C6.25 7.33195 5.68548 6.771 5 6.771ZM2.25 8.03487C2.25 6.51332 3.47634 5.271 5 5.271C6.52366 5.271 7.75 6.51332 7.75 8.03487C7.75 9.55641 6.52366 10.7987 5 10.7987C3.47634 10.7987 2.25 9.55641 2.25 8.03487ZM17.75 8.03484C17.75 7.33193 18.3145 6.77097 19 6.77097C19.6855 6.77097 20.25 7.33193 20.25 8.03484C20.25 8.73775 19.6855 9.29871 19 9.29871C18.3145 9.29871 17.75 8.73775 17.75 8.03484ZM19 5.27097C17.4763 5.27097 16.25 6.51329 16.25 8.03484C16.25 9.55639 17.4763 10.7987 19 10.7987C20.5237 10.7987 21.75 9.55639 21.75 8.03484C21.75 6.51329 20.5237 5.27097 19 5.27097Z" fill="#1F1F1F"/>
</svg>
