<svg width="457" height="123" viewBox="0 0 457 123" fill="none" xmlns="http://www.w3.org/2000/svg">
<path d="M65.3478 50.7075L53.4409 119.21H36.3367L40.6836 94.4731H22.2563L18.0039 119.21H0.899597L12.901 50.7075H29.9107L24.8078 79.6309H43.2351L48.338 50.7075H65.3478Z" fill="#FFA41B"/>
<path d="M93.25 72.1146C100.054 72.1146 105.188 73.6052 108.653 76.5863C111.362 78.9332 112.717 82.1997 112.717 86.386C112.717 87.7815 112.559 89.3037 112.244 90.9529L110.26 102.085C109.063 108.808 106.259 113.565 101.849 116.356C97.5025 119.147 91.6751 120.542 84.3672 120.542C77.0592 120.542 71.7043 119.147 68.3023 116.356C65.7824 114.263 64.5224 111.123 64.5224 106.937C64.5224 105.478 64.6799 103.861 64.9949 102.085L66.9794 90.9529C69.1843 78.394 77.9412 72.1146 93.25 72.1146ZM95.8015 92.8557C95.9275 92.2214 95.9905 91.4286 95.9905 90.4772C95.9905 89.4623 95.581 88.3523 94.762 87.1472C93.943 85.942 92.494 85.3395 90.4151 85.3395C88.3991 85.3395 86.6981 86.0372 85.3121 87.4326C83.9262 88.7646 83.0442 90.5723 82.6662 92.8557L81.4377 99.9915C81.3117 100.626 81.2487 101.45 81.2487 102.465C81.2487 103.417 81.6582 104.463 82.4772 105.605C83.2962 106.747 84.7136 107.317 86.7296 107.317C88.8086 107.317 90.5411 106.62 91.9271 105.224C93.313 103.765 94.195 102.021 94.573 99.9915L95.8015 92.8557Z" fill="#FFA41B"/>
<path d="M193.462 73.4466C194.344 76.1106 194.785 79.6626 194.785 84.1026C194.785 88.4792 194.249 92.6972 193.178 96.7566C192.107 100.816 190.469 104.685 188.264 108.364C186.122 111.979 183.098 114.929 179.192 117.212C175.349 119.432 170.908 120.542 165.868 120.542C158.308 120.542 153.268 118.417 150.748 114.168C146.212 118.417 141.141 120.542 135.534 120.542C127.974 120.542 122.776 118.925 119.942 115.69C118.052 113.533 117.107 110.33 117.107 106.081C117.107 103.861 117.359 101.387 117.863 98.6595L122.304 73.4466H138.369L133.927 98.7546C133.738 99.706 133.644 100.562 133.644 101.323C133.644 104.939 135.502 106.747 139.219 106.747C141.802 106.747 143.755 105.637 145.078 103.417C146.401 101.133 147.535 97.1689 148.48 91.5237L151.693 73.4466H167.758L163.316 98.7546C163.127 99.706 163.033 100.562 163.033 101.323C163.033 104.939 164.891 106.747 168.608 106.747C175.16 106.747 178.436 99.8329 178.436 86.0054C178.436 82.7706 178.184 79.1869 177.68 75.2543L177.397 73.4466H193.462Z" fill="#FFA41B"/>
<path d="M256.864 50.7075C265.117 50.7075 271.007 52.8006 274.535 56.9869C277.118 60.1583 278.409 64.1226 278.409 68.8798C278.409 70.5923 278.252 72.4 277.937 74.3029L274.251 95.5197C272.991 102.687 269.905 108.427 264.991 112.741C260.077 117.054 253.714 119.21 245.902 119.21H218.403L230.404 50.7075H256.864ZM250.91 65.5498H244.768L238.058 104.368H247.036C249.997 104.368 252.296 103.575 253.934 101.989C255.635 100.34 256.801 97.6763 257.431 93.9974L260.171 78.394C260.423 76.9986 260.549 75.73 260.549 74.5883C260.549 68.5626 257.336 65.5498 250.91 65.5498Z" fill="#351509"/>
<path d="M308.077 72.1146C314.881 72.1146 320.015 73.6052 323.48 76.5863C326.189 78.9332 327.544 82.1997 327.544 86.386C327.544 87.7815 327.386 89.3037 327.071 90.9529L325.087 102.085C323.89 108.808 321.086 113.565 316.676 116.356C312.329 119.147 306.502 120.542 299.194 120.542C291.886 120.542 286.531 119.147 283.129 116.356C280.609 114.263 279.349 111.123 279.349 106.937C279.349 105.478 279.507 103.861 279.822 102.085L281.806 90.9529C284.011 78.394 292.768 72.1146 308.077 72.1146ZM310.628 92.8557C310.754 92.2214 310.817 91.4286 310.817 90.4772C310.817 89.4623 310.408 88.3523 309.589 87.1472C308.77 85.942 307.321 85.3395 305.242 85.3395C303.226 85.3395 301.525 86.0372 300.139 87.4326C298.753 88.7646 297.871 90.5723 297.493 92.8557L296.264 99.9915C296.138 100.626 296.075 101.45 296.075 102.465C296.075 103.417 296.485 104.463 297.304 105.605C298.123 106.747 299.54 107.317 301.556 107.317C303.635 107.317 305.368 106.62 306.754 105.224C308.14 103.765 309.022 102.021 309.4 99.9915L310.628 92.8557Z" fill="#351509"/>
<path d="M371.645 107.032C373.094 107.032 374.385 106.715 375.519 106.081L375.047 116.832C372.086 119.305 368.715 120.542 364.936 120.542C359.203 120.542 355.486 119.21 353.785 116.546C352.651 114.77 352.084 112.899 352.084 110.933C352.084 108.903 352.21 107.127 352.462 105.605L358.132 73.4466H374.196L368.904 103.417C368.841 103.797 368.81 104.146 368.81 104.463C368.81 106.176 369.755 107.032 371.645 107.032ZM360.022 57.9383C360.022 53.8789 360.904 50.9295 362.668 49.0901C364.495 47.1872 367.298 46.2358 371.078 46.2358C376.37 46.2358 379.016 48.5826 379.016 53.2763C379.016 57.2723 378.102 60.1901 376.275 62.0295C374.511 63.8689 371.708 64.7886 367.865 64.7886C362.636 64.7886 360.022 62.5052 360.022 57.9383Z" fill="#351509"/>
<path d="M421.041 72.2098C421.041 73.6686 421.261 75.0006 421.702 76.2058H404.976C404.598 74.6835 404.409 72.7172 404.409 70.3069C404.409 62.9492 406.96 57.1455 412.063 52.8958C417.166 48.5826 424.474 46.4261 433.987 46.4261C441.484 46.4261 447.028 47.8532 450.619 50.7075C454.273 53.4983 456.1 57.3675 456.1 62.3149C456.1 65.8035 455.249 69.0383 453.548 72.0195C451.91 75.0006 449.863 77.4743 447.406 79.4406C444.949 81.4069 442.492 83.2146 440.035 84.8637C437.578 86.5129 435.404 88.1303 433.514 89.716C431.624 91.3017 430.553 92.824 430.301 94.2829L429.167 100.467H413.292L414.331 94.2829C414.898 91.1749 416.064 88.5426 417.828 86.386C419.592 84.166 421.513 82.4852 423.592 81.3435C425.734 80.1383 427.844 78.9649 429.923 77.8232C434.711 75.1592 437.105 71.3218 437.105 66.3109C437.105 62.8858 434.9 61.1732 430.49 61.1732C427.466 61.1732 425.135 62.188 423.497 64.2178C421.86 66.184 421.041 68.848 421.041 72.2098ZM409.039 116.071C409.039 112.011 409.921 109.062 411.685 107.222C413.512 105.319 416.316 104.368 420.096 104.368C425.387 104.368 428.033 106.715 428.033 111.409C428.033 115.405 427.12 118.322 425.293 120.162C423.529 122.001 420.726 122.921 416.883 122.921C411.654 122.921 409.039 120.637 409.039 116.071Z" fill="#351509"/>
<path d="M171.196 71.2487C171.196 78.2196 165.584 83.8706 158.66 83.8706C151.736 83.8706 146.123 78.2196 146.123 71.2487C146.123 64.2778 151.736 58.6267 158.66 58.6267C165.584 58.6267 171.196 64.2778 171.196 71.2487Z" fill="#FFA41B"/>
<path d="M122.919 57.9385C122.919 53.8791 123.801 50.9297 125.565 49.0902C127.392 47.1874 130.195 46.236 133.975 46.236C139.267 46.236 141.913 48.5828 141.913 53.2765C141.913 57.2725 141 60.1902 139.173 62.0297C137.409 63.8691 134.605 64.7888 130.762 64.7888C125.533 64.7888 122.919 62.5054 122.919 57.9385Z" fill="#FFA41B"/>
<path d="M176.269 57.9385C176.269 53.8791 177.151 50.9297 178.915 49.0902C180.742 47.1874 183.546 46.236 187.326 46.236C192.618 46.236 195.264 48.5828 195.264 53.2765C195.264 57.2725 194.35 60.1902 192.523 62.0297C190.759 63.8691 187.956 64.7888 184.113 64.7888C178.884 64.7888 176.269 62.5054 176.269 57.9385Z" fill="#FFA41B"/>
<path d="M73.9715 49.8304L148.54 10.2897L223.109 49.8304" stroke="#FFA41B" stroke-width="16"/>
</svg>
