<svg width="56" height="47" viewBox="0 0 56 47" fill="none" xmlns="http://www.w3.org/2000/svg">
<path d="M12.6976 36.8567C14 33.6183 14.9583 33.3525 16.6046 31.8105L22.4651 36.7454L28.3255 38.5961L35.4883 35.5117C36.1395 33.8667 37.8976 30.9193 39.7209 32.2894C41.5441 33.6595 42.6511 35.831 42.9767 36.7454L44.6046 45.69H10.7441L12.6976 36.8567Z" fill="#F3AD66"/>
<path d="M39.9353 3.69315C29.3991 -2.36233 19.6313 1.17004 16.0644 3.69315C14.9669 2.99226 12.3606 2.01101 10.7143 3.69315C8.6565 5.79583 -0.397972 16.3088 0.0135948 17.9909C0.425162 19.673 0.0135949 23.8782 9.47964 31.4475C10.5772 31.3073 12.7722 30.3542 12.7722 27.6628C13.8697 28.9244 16.147 31.6998 16.4763 32.7091C16.8878 33.9706 20.1805 40.2206 28.4118 39.8001C36.6431 40.2206 39.1121 33.9706 39.5237 32.7091C39.8529 31.6998 42.1303 28.9244 43.2278 27.6628C43.2278 30.3542 45.4228 31.3073 46.5203 31.4475C55.9864 23.8782 55.5748 19.673 55.9864 17.9909C56.398 16.3088 47.3435 5.79583 45.2856 3.69315C43.6394 2.01101 41.0328 2.99226 39.9353 3.69315Z" fill="#FAC174"/>
<path d="M45.2857 3.69247C43.6394 2.01033 41.0328 2.99158 39.9353 3.69247C39.9353 18.8549 42.1303 28.9237 43.2278 27.6621C43.2278 30.3535 45.4229 31.3067 46.5204 31.4468C55.9864 23.8775 55.5749 19.6723 55.9865 17.9902C56.398 16.3081 47.3435 5.79514 45.2857 3.69247Z" fill="#F3AD66"/>
<path d="M10.7143 3.69247C12.3606 2.01033 14.9669 2.99158 16.0644 3.69247C16.0644 17.9902 13.8697 28.9237 12.7722 27.6621C12.7722 30.3535 10.5771 31.3067 9.47964 31.4468C0.0135949 23.8775 0.425162 19.6723 0.0135948 17.9902C-0.397972 16.3081 8.6565 5.79514 10.7143 3.69247Z" fill="#F3AD66"/>
<path d="M28.3984 30.7715V32.8741" stroke="#3C1826" stroke-width="1.2" stroke-linecap="round" stroke-linejoin="round"/>
<path d="M19.3438 27.4062C21.6485 35.1438 26.3404 34.2747 28.3982 32.873C30.4561 34.2747 35.1479 35.1438 37.4527 27.4062" stroke="#3C1826" stroke-width="1.2" stroke-linecap="round" stroke-linejoin="round"/>
<path d="M24.6941 34.332C25.9288 35.8739 29.139 38.0326 32.1023 34.332" stroke="#3C1826" stroke-width="1.2" stroke-linecap="round" stroke-linejoin="round"/>
<path d="M30.0608 30.2398C29.2015 31.1774 27.695 31.1774 26.8357 30.2398L25.297 28.5607C24.0542 27.2047 25.0428 26.2578 26.9095 26.2578L29.987 26.2578C31.8536 26.2578 32.8423 27.2047 31.5995 28.5607L30.0608 30.2398Z" fill="#3C1826"/>
<path d="M23.0477 17.1489C23.0477 18.2922 21.7148 17.1489 20.5783 17.1489C19.4418 17.1489 18.1089 18.2922 18.1089 17.1489C18.1089 16.0055 19.4418 15.4668 20.5783 15.4668C21.7148 15.4668 23.0477 16.0055 23.0477 17.1489Z" fill="#3C1826"/>
<path d="M37.4525 17.1489C37.4525 18.2922 36.1196 17.1489 34.9831 17.1489C33.8466 17.1489 32.5137 18.2922 32.5137 17.1489C32.5137 16.0055 33.8466 15.4668 34.9831 15.4668C36.1196 15.4668 37.4525 16.0055 37.4525 17.1489Z" fill="#3C1826"/>
<path d="M7.88208 37.5937C8.9239 36.4161 12.2232 36.9068 13.7425 37.2993C19.603 39.9489 19.9286 42.5987 18.6263 44.9539C17.5844 46.8381 15.5875 46.3278 14.7193 45.8372C12.896 47.4858 11.572 46.1316 11.1379 45.2483C9.31464 47.1325 7.33945 46.0334 6.57976 45.2483C5.79836 46.1904 4.51774 45.4446 3.9751 44.9539C1.37041 41.7155 6.57975 39.0658 7.88208 37.5937Z" fill="#FAC174"/>
<path d="M15.3706 42.8926C15.4792 43.6777 15.5009 45.3656 14.7195 45.8366" stroke="#3C1826" stroke-width="0.9" stroke-linecap="round" stroke-linejoin="round"/>
<path d="M11.1379 42.5977V45.2473" stroke="#3C1826" stroke-width="0.9" stroke-linecap="round" stroke-linejoin="round"/>
<path d="M6.57962 42.5977C6.36257 43.0883 6.05869 44.3052 6.57962 45.2473" stroke="#3C1826" stroke-width="0.9" stroke-linecap="round" stroke-linejoin="round"/>
<path d="M47.8367 37.5937C46.7948 36.4161 43.4956 36.9068 41.9762 37.2993C36.1157 39.9489 35.7902 42.5987 37.0925 44.9539C38.1343 46.8381 40.1312 46.3278 40.9995 45.8372C42.8227 47.4858 44.1467 46.1316 44.5809 45.2483C46.4041 47.1325 48.3793 46.0334 49.139 45.2483C49.9204 46.1904 51.201 45.4446 51.7436 44.9539C54.3483 41.7155 49.139 39.0658 47.8367 37.5937Z" fill="#FAC174"/>
<path d="M40.3483 42.8926C40.2398 43.6777 40.2181 45.3656 40.9995 45.8366" stroke="#3C1826" stroke-width="0.9" stroke-linecap="round" stroke-linejoin="round"/>
<path d="M44.5808 42.5977V45.2473" stroke="#3C1826" stroke-width="0.9" stroke-linecap="round" stroke-linejoin="round"/>
<path d="M49.1389 42.5977C49.3559 43.0883 49.6598 44.3052 49.1389 45.2473" stroke="#3C1826" stroke-width="0.9" stroke-linecap="round" stroke-linejoin="round"/>
</svg>
