<svg width="68" height="15" viewBox="0 0 68 15" fill="none" xmlns="http://www.w3.org/2000/svg">
<path d="M7.13281 10.9609H0.304688V1.5625H7.13281V10.9609ZM2.26562 9.39062H5.15625V3.11719H2.26562V9.39062ZM11.0703 14.4375H9.07031V0.203125H11.0703V14.4375ZM13.1797 7.24219H10.6328V5.57812H13.1797V7.24219ZM25.5859 14.4766H23.5625V0.203125H25.5859V14.4766ZM17.8594 1.21094C18.5729 1.21094 19.2135 1.41927 19.7812 1.83594C20.3542 2.2474 20.7995 2.83854 21.1172 3.60938C21.4401 4.375 21.6016 5.26562 21.6016 6.28125C21.6016 7.30208 21.4401 8.19792 21.1172 8.96875C20.7995 9.73438 20.3542 10.3229 19.7812 10.7344C19.2135 11.1458 18.5729 11.3516 17.8594 11.3516C17.1354 11.3568 16.487 11.1536 15.9141 10.7422C15.3464 10.3255 14.901 9.73438 14.5781 8.96875C14.2552 8.19792 14.0938 7.30208 14.0938 6.28125C14.0938 5.26562 14.2552 4.375 14.5781 3.60938C14.901 2.83854 15.3464 2.2474 15.9141 1.83594C16.487 1.41927 17.1354 1.21094 17.8594 1.21094ZM17.8594 3.01562C17.4896 3.01042 17.1641 3.13542 16.8828 3.39062C16.6068 3.64062 16.3932 4.01302 16.2422 4.50781C16.0964 4.9974 16.026 5.58854 16.0312 6.28125C16.026 6.97396 16.0964 7.5651 16.2422 8.05469C16.3932 8.54427 16.6068 8.91667 16.8828 9.17188C17.1641 9.42188 17.4896 9.54688 17.8594 9.54688C18.2188 9.54688 18.5365 9.42188 18.8125 9.17188C19.0885 8.91667 19.3021 8.54427 19.4531 8.05469C19.6042 7.5651 19.6797 6.97396 19.6797 6.28125C19.6797 5.58854 19.6042 4.9974 19.4531 4.50781C19.3021 4.01823 19.0885 3.64583 18.8125 3.39062C18.5365 3.13542 18.2188 3.01042 17.8594 3.01562ZM39.9375 14.4375H38.0312V0.203125H39.9375V14.4375ZM35.7344 7.17188H33.7969V5.39062H35.7344V7.17188ZM37.0703 13.7578H35.1875V0.492188H37.0703V13.7578ZM34.125 3.42969H27.6172V1.82812H34.125V3.42969ZM27.3594 9.55469C28.6667 9.55469 29.9193 9.53385 31.1172 9.49219C32.3203 9.45052 33.4036 9.36198 34.3672 9.22656L34.5 10.6484C33.5052 10.8672 32.4062 11.013 31.2031 11.0859C30 11.1536 28.7917 11.1849 27.5781 11.1797L27.3594 9.55469ZM30.3125 10.0078H28.5312V2.84375H30.3125V10.0078ZM33.2266 10.0078H31.4062V2.84375H33.2266V10.0078ZM53.2422 14.4766H51.2188V0.203125H53.2422V14.4766ZM45.5156 1.21094C46.2292 1.21094 46.8698 1.41927 47.4375 1.83594C48.0104 2.2474 48.4557 2.83854 48.7734 3.60938C49.0964 4.375 49.2578 5.26562 49.2578 6.28125C49.2578 7.30208 49.0964 8.19792 48.7734 8.96875C48.4557 9.73438 48.0104 10.3229 47.4375 10.7344C46.8698 11.1458 46.2292 11.3516 45.5156 11.3516C44.7917 11.3568 44.1432 11.1536 43.5703 10.7422C43.0026 10.3255 42.5573 9.73438 42.2344 8.96875C41.9115 8.19792 41.75 7.30208 41.75 6.28125C41.75 5.26562 41.9115 4.375 42.2344 3.60938C42.5573 2.83854 43.0026 2.2474 43.5703 1.83594C44.1432 1.41927 44.7917 1.21094 45.5156 1.21094ZM45.5156 3.01562C45.1458 3.01042 44.8203 3.13542 44.5391 3.39062C44.263 3.64062 44.0495 4.01302 43.8984 4.50781C43.7526 4.9974 43.6823 5.58854 43.6875 6.28125C43.6823 6.97396 43.7526 7.5651 43.8984 8.05469C44.0495 8.54427 44.263 8.91667 44.5391 9.17188C44.8203 9.42188 45.1458 9.54688 45.5156 9.54688C45.875 9.54688 46.1927 9.42188 46.4688 9.17188C46.7448 8.91667 46.9583 8.54427 47.1094 8.05469C47.2604 7.5651 47.3359 6.97396 47.3359 6.28125C47.3359 5.58854 47.2604 4.9974 47.1094 4.50781C46.9583 4.01823 46.7448 3.64583 46.4688 3.39062C46.1927 3.13542 45.875 3.01042 45.5156 3.01562ZM60.2578 4.08594C60.2526 5.20573 60.0938 6.27344 59.7812 7.28906C59.4688 8.30469 59.0078 9.20573 58.3984 9.99219C57.7891 10.7734 57.0547 11.3646 56.1953 11.7656L55.0547 10.1953C55.8203 9.85156 56.4714 9.35677 57.0078 8.71094C57.5495 8.0599 57.9557 7.33594 58.2266 6.53906C58.5026 5.73698 58.6406 4.91927 58.6406 4.08594V2.42969H60.2578V4.08594ZM60.6719 4.08594C60.6719 4.88281 60.8073 5.65885 61.0781 6.41406C61.349 7.16406 61.75 7.84375 62.2812 8.45312C62.8177 9.05729 63.4714 9.51823 64.2422 9.83594L63.1641 11.3984C62.2839 11.0286 61.5391 10.474 60.9297 9.73438C60.3203 8.98958 59.862 8.13281 59.5547 7.16406C59.2474 6.19531 59.0964 5.16927 59.1016 4.08594V2.42969H60.6719V4.08594ZM63.6562 3.21875H55.625V1.59375H63.6562V3.21875ZM67.0703 14.4375H65.0469V0.203125H67.0703V14.4375Z" fill="#1F1F1F"/>
</svg>
