<svg width="359" height="96" viewBox="0 0 359 96" fill="none" xmlns="http://www.w3.org/2000/svg">
<g filter="url(#filter0_d_593_17776)">
<rect x="10" y="10" width="339" height="76" rx="10" fill="#FFFCF7"/>
<rect x="10" y="10" width="339" height="76" rx="10" stroke="#8A8A8A"/>
</g>
<path d="M117.44 37.1709H114.433V35.7627H117.44V37.1709ZM111.787 33.4795C112.398 33.4795 112.954 33.6094 113.455 33.8691C113.956 34.1243 114.351 34.4821 114.638 34.9424C114.929 35.4027 115.077 35.9245 115.082 36.5078C115.077 37.082 114.929 37.5993 114.638 38.0596C114.351 38.5153 113.956 38.873 113.455 39.1328C112.954 39.3926 112.398 39.5225 111.787 39.5225C111.167 39.5225 110.602 39.3926 110.092 39.1328C109.586 38.873 109.189 38.5153 108.902 38.0596C108.615 37.5993 108.472 37.082 108.472 36.5078C108.472 35.929 108.615 35.4095 108.902 34.9492C109.189 34.4844 109.586 34.1243 110.092 33.8691C110.598 33.6094 111.163 33.4795 111.787 33.4795ZM111.787 34.9219C111.468 34.9264 111.181 34.9925 110.926 35.1201C110.675 35.2432 110.479 35.4255 110.338 35.667C110.197 35.904 110.126 36.1842 110.126 36.5078C110.126 36.8268 110.197 37.1025 110.338 37.335C110.479 37.5628 110.675 37.7406 110.926 37.8682C111.176 37.9912 111.464 38.0505 111.787 38.0459C112.097 38.0505 112.375 37.9912 112.621 37.8682C112.867 37.7451 113.061 37.5674 113.202 37.335C113.343 37.098 113.414 36.8223 113.414 36.5078C113.414 36.1842 113.343 35.904 113.202 35.667C113.061 35.4255 112.867 35.2432 112.621 35.1201C112.375 34.9925 112.097 34.9264 111.787 34.9219ZM118.801 39.8711H117.064V32.8027H118.801V39.8711ZM118.801 45.1211H110.44V40.418H118.801V45.1211ZM112.184 43.7197H117.099V41.7988H112.184V43.7197ZM130.736 45.2578H129.007V32.8027H130.736V45.2578ZM131.994 38.8662H129.779V37.417H131.994V38.8662ZM121.945 36.8291H122.731V33.9307H124.16V42.3799H120.503V33.9307H121.945V36.8291ZM122.731 40.958V38.2031H121.945V40.958H122.731ZM126.074 36.8291H126.874V33.9307H128.31V42.3799H124.659V33.9307H126.074V36.8291ZM126.874 40.958V38.2031H126.074V40.958H126.874ZM137.47 42.4004H135.733V40.3701H137.47V42.4004ZM142.966 45.2578H141.236V32.8027H142.966V45.2578ZM133.061 41.7441C134.61 41.735 135.973 41.71 137.148 41.6689C138.329 41.6234 139.464 41.5277 140.553 41.3818L140.662 42.6738C139.459 42.8835 138.222 43.0202 136.95 43.084C135.679 43.1432 134.296 43.1729 132.801 43.1729L132.568 41.7441H133.061ZM140.375 35.5713H132.814V34.2041H140.375V35.5713ZM136.588 36.0635C137.199 36.0635 137.741 36.1615 138.215 36.3574C138.693 36.5488 139.062 36.8223 139.322 37.1777C139.587 37.5332 139.719 37.9411 139.719 38.4014C139.719 38.8571 139.587 39.2627 139.322 39.6182C139.062 39.9691 138.693 40.2425 138.215 40.4385C137.741 40.6344 137.199 40.7324 136.588 40.7324C135.986 40.7324 135.451 40.6344 134.981 40.4385C134.512 40.2425 134.145 39.9691 133.881 39.6182C133.621 39.2627 133.491 38.8571 133.491 38.4014C133.491 37.9411 133.621 37.5332 133.881 37.1777C134.145 36.8223 134.512 36.5488 134.981 36.3574C135.451 36.1615 135.986 36.0635 136.588 36.0635ZM136.588 37.3828C136.305 37.3828 136.055 37.4238 135.836 37.5059C135.622 37.5833 135.453 37.6995 135.33 37.8545C135.207 38.0094 135.146 38.1917 135.146 38.4014C135.146 38.6156 135.205 38.7979 135.323 38.9482C135.446 39.0941 135.617 39.208 135.836 39.29C136.055 39.3675 136.305 39.4062 136.588 39.4062C136.88 39.4062 137.137 39.3675 137.36 39.29C137.584 39.208 137.755 39.0941 137.873 38.9482C137.992 38.7979 138.051 38.6156 138.051 38.4014C138.051 38.1917 137.992 38.0094 137.873 37.8545C137.755 37.6995 137.584 37.5833 137.36 37.5059C137.137 37.4238 136.88 37.3828 136.588 37.3828ZM137.483 34.9834H135.733V32.8643H137.483V34.9834ZM149.651 41.9287H147.895V39.1807H149.651V41.9287ZM155.154 42.2295H153.404V32.8301H155.154V42.2295ZM155.428 45.0459H146.145V43.6377H155.428V45.0459ZM147.901 44.0137H146.145V41.3271H147.901V44.0137ZM144.565 38.3467C146.224 38.333 147.683 38.3034 148.94 38.2578C150.198 38.2077 151.406 38.1097 152.563 37.9639L152.652 39.2148C151.449 39.4154 150.189 39.5521 148.872 39.625C147.56 39.6934 146.192 39.7253 144.771 39.7207L144.565 38.3467ZM153.801 41.2383H151.025V40.0488H153.801V41.2383ZM148.612 33.2471C149.209 33.2471 149.745 33.3405 150.219 33.5273C150.693 33.7142 151.062 33.9785 151.326 34.3203C151.59 34.6576 151.723 35.0426 151.723 35.4756C151.723 35.9176 151.59 36.3027 151.326 36.6309C151.062 36.959 150.693 37.2165 150.219 37.4033C149.749 37.5856 149.214 37.6768 148.612 37.6768C148.002 37.6768 147.459 37.5856 146.985 37.4033C146.516 37.2165 146.149 36.959 145.885 36.6309C145.62 36.3027 145.488 35.9176 145.488 35.4756C145.488 35.0426 145.62 34.6553 145.885 34.3135C146.149 33.9717 146.518 33.7096 146.992 33.5273C147.466 33.3405 148.006 33.2471 148.612 33.2471ZM148.612 34.5254C148.316 34.5254 148.059 34.5618 147.84 34.6348C147.621 34.7077 147.448 34.8171 147.32 34.9629C147.197 35.1042 147.138 35.2751 147.143 35.4756C147.138 35.6761 147.197 35.847 147.32 35.9883C147.448 36.1296 147.621 36.2367 147.84 36.3096C148.059 36.3825 148.316 36.4189 148.612 36.4189C148.899 36.4189 149.15 36.3825 149.364 36.3096C149.583 36.2367 149.754 36.1296 149.877 35.9883C150 35.847 150.062 35.6761 150.062 35.4756C150.062 35.2796 150 35.1087 149.877 34.9629C149.754 34.8171 149.583 34.7077 149.364 34.6348C149.15 34.5618 148.899 34.5254 148.612 34.5254Z" fill="#8A8A8A"/>
<path d="M111.719 55.7305C111.719 56.4375 111.586 57.1406 111.32 57.8398C111.055 58.5352 110.693 59.1582 110.236 59.709C109.779 60.2598 109.285 60.6719 108.754 60.9453L108.191 60.2188C108.688 59.9766 109.148 59.6133 109.574 59.1289C110.004 58.6445 110.346 58.1016 110.6 57.5C110.857 56.8984 110.988 56.3086 110.992 55.7305V54.0078H111.719V55.7305ZM111.895 55.7305C111.891 56.2773 112.008 56.832 112.246 57.3945C112.488 57.957 112.816 58.4668 113.23 58.9238C113.645 59.377 114.102 59.7227 114.602 59.9609L114.074 60.6875C113.531 60.4219 113.037 60.0293 112.592 59.5098C112.15 58.9902 111.801 58.4004 111.543 57.7402C111.285 57.0762 111.156 56.4062 111.156 55.7305V54.0078H111.895V55.7305ZM114.238 54.3711H108.566V53.6094H114.238V54.3711ZM116.43 62.9492H115.516V52.5312H116.43V62.9492ZM118.176 57.5352H116.219V56.75H118.176V57.5352ZM122.512 54.5C122.508 55 122.385 55.4629 122.143 55.8887C121.904 56.3145 121.566 56.6797 121.129 56.9844C120.691 57.2852 120.184 57.5078 119.605 57.6523L119.207 56.9141C119.703 56.8047 120.145 56.6289 120.531 56.3867C120.922 56.1445 121.223 55.8613 121.434 55.5371C121.645 55.2129 121.75 54.8672 121.75 54.5V54.3477H122.512V54.5ZM122.664 54.5C122.664 54.8477 122.771 55.1738 122.986 55.4785C123.201 55.7793 123.498 56.043 123.877 56.2695C124.256 56.4961 124.691 56.6641 125.184 56.7734L124.809 57.5117C124.23 57.3672 123.725 57.1504 123.291 56.8613C122.857 56.5684 122.52 56.2207 122.277 55.8184C122.035 55.416 121.914 54.9766 121.914 54.5V54.3477H122.664V54.5ZM124.984 54.4531H119.43V53.7266H124.984V54.4531ZM122.664 54.2188H121.75V52.5664H122.664V54.2188ZM122.688 62.6445H121.773V58.4961H122.688V62.6445ZM127.328 62.9609H126.426V52.543H127.328V62.9609ZM118.715 58.3906C120.133 58.3867 121.391 58.3672 122.488 58.332C123.59 58.293 124.648 58.207 125.664 58.0742L125.723 58.7422C124.672 58.918 123.586 59.0332 122.465 59.0879C121.348 59.1387 120.141 59.1641 118.844 59.1641L118.715 58.3906ZM137.359 54.1133H132.707V53.3398H137.359V54.1133ZM135.215 58.2617H134.301V55.6484H135.215V58.2617ZM137.898 53.9609C137.895 54.4766 137.877 54.9648 137.846 55.4258C137.814 55.8828 137.742 56.3984 137.629 56.9727L136.703 56.9023C136.82 56.3281 136.896 55.8262 136.932 55.3965C136.967 54.9668 136.988 54.5039 136.996 54.0078V53.8906V53.3398H137.898V53.8906V53.9609ZM140.289 60.3711H139.352V52.5312H140.289V60.3711ZM141.812 56.7148H139.867V55.9297H141.812V56.7148ZM140.629 62.7266H133.668V61.9531H140.629V62.7266ZM134.594 62.1992H133.668V59.668H134.594V62.1992ZM132.062 57.9453C133.305 57.9414 134.475 57.918 135.572 57.875C136.67 57.8281 137.695 57.7383 138.648 57.6055L138.707 58.2852C137.734 58.4531 136.707 58.5645 135.625 58.6191C134.543 58.6738 133.387 58.7031 132.156 58.707L132.062 57.9453ZM143.676 58.0391C144.742 58.0391 145.584 58.0215 146.201 57.9863C146.822 57.9512 147.445 57.8789 148.07 57.7695L148.164 58.5312C147.52 58.6406 146.883 58.7129 146.254 58.748C145.629 58.7832 144.77 58.8008 143.676 58.8008H142.926V58.0391H143.676ZM147.438 56.3164H143.852V58.4844H142.926V55.5898H146.5V54.0312H142.902V53.2812H147.438V56.3164ZM151.129 60.207H150.203V52.543H151.129V60.207ZM150.438 55.0508H148.141V54.3008H150.438V55.0508ZM151.445 62.668H144.355V61.9062H151.445V62.668ZM145.281 62.2578H144.355V59.6445H145.281V62.2578ZM150.438 57.3945H148.141V56.6328H150.438V57.3945ZM164.289 58.168H157.094V57.418H164.289V58.168ZM165.414 61.6367H155.875V60.8633H165.414V61.6367ZM161.066 61.1797H160.164V57.7461H161.066V61.1797ZM164.184 54.1367H158.02V57.7695H157.094V53.3867H164.184V54.1367ZM171.438 59.6562H170.535V57.8398H171.438V59.6562ZM170.992 52.7305C171.746 52.7305 172.398 52.8086 172.949 52.9648C173.504 53.1211 173.93 53.3477 174.227 53.6445C174.523 53.9375 174.672 54.2891 174.672 54.6992C174.672 55.1016 174.523 55.4492 174.227 55.7422C173.93 56.0312 173.504 56.252 172.949 56.4043C172.398 56.5566 171.746 56.6328 170.992 56.6328C170.238 56.6328 169.584 56.5566 169.029 56.4043C168.479 56.252 168.053 56.0312 167.752 55.7422C167.451 55.4492 167.301 55.1016 167.301 54.6992C167.301 54.2891 167.451 53.9375 167.752 53.6445C168.053 53.3477 168.479 53.1211 169.029 52.9648C169.584 52.8086 170.238 52.7305 170.992 52.7305ZM170.992 53.457C170.434 53.457 169.947 53.5059 169.533 53.6035C169.123 53.7012 168.807 53.8438 168.584 54.0312C168.361 54.2188 168.25 54.4414 168.25 54.6992C168.25 54.9492 168.361 55.1641 168.584 55.3438C168.807 55.5234 169.123 55.6621 169.533 55.7598C169.943 55.8574 170.43 55.9062 170.992 55.9062C171.547 55.9062 172.031 55.8574 172.445 55.7598C172.859 55.6621 173.178 55.5234 173.4 55.3438C173.623 55.1641 173.734 54.9492 173.734 54.6992C173.734 54.4414 173.623 54.2188 173.4 54.0312C173.178 53.8438 172.859 53.7012 172.445 53.6035C172.031 53.5059 171.547 53.457 170.992 53.457ZM174.578 62.8086H167.406V59.3867H174.578V62.8086ZM168.32 62.0586H173.676V60.125H168.32V62.0586ZM175.738 58.1914H166.246V57.4297H175.738V58.1914ZM181.363 52.7188C182.133 52.7188 182.793 52.7871 183.344 52.9238C183.898 53.0605 184.32 53.2637 184.609 53.5332C184.898 53.8027 185.043 54.1289 185.043 54.5117C185.043 54.9023 184.898 55.2344 184.609 55.5078C184.32 55.7812 183.9 55.9883 183.35 56.1289C182.799 56.2656 182.137 56.3359 181.363 56.3398C180.586 56.3359 179.922 56.2656 179.371 56.1289C178.824 55.9883 178.404 55.7812 178.111 55.5078C177.818 55.2344 177.672 54.9023 177.672 54.5117C177.672 54.1289 177.818 53.8027 178.111 53.5332C178.404 53.2637 178.826 53.0605 179.377 52.9238C179.928 52.7871 180.59 52.7188 181.363 52.7188ZM181.363 53.4102C180.789 53.4102 180.297 53.4551 179.887 53.5449C179.48 53.6348 179.168 53.7617 178.949 53.9258C178.734 54.0898 178.629 54.2852 178.633 54.5117C178.629 54.75 178.734 54.9551 178.949 55.127C179.168 55.2949 179.48 55.4219 179.887 55.5078C180.297 55.5938 180.789 55.6367 181.363 55.6367C181.938 55.6367 182.43 55.5938 182.84 55.5078C183.254 55.4219 183.568 55.2949 183.783 55.127C183.998 54.959 184.105 54.7539 184.105 54.5117C184.105 54.2852 183.998 54.0898 183.783 53.9258C183.568 53.7617 183.254 53.6348 182.84 53.5449C182.426 53.4551 181.934 53.4102 181.363 53.4102ZM186.109 57.793H176.617V57.043H186.109V57.793ZM184.891 61.0273H178.703V62.293H177.789V60.3477H183.988V59.3984H177.766V58.6953H184.891V61.0273ZM185.207 62.832H177.789V62.1055H185.207V62.832ZM195.039 54.0078C195.039 54.6055 194.846 55.1543 194.459 55.6543C194.072 56.1504 193.564 56.5664 192.936 56.9023C192.307 57.2344 191.637 57.4609 190.926 57.582L190.562 56.8555C191.176 56.7656 191.764 56.582 192.326 56.3047C192.893 56.0234 193.352 55.6816 193.703 55.2793C194.055 54.877 194.23 54.4531 194.23 54.0078V53.5625H195.039V54.0078ZM195.262 54.0078C195.262 54.4531 195.438 54.877 195.789 55.2793C196.141 55.6816 196.598 56.0234 197.16 56.3047C197.727 56.582 198.316 56.7656 198.93 56.8555L198.59 57.582C197.871 57.4609 197.197 57.2344 196.568 56.9023C195.939 56.5664 195.432 56.1504 195.045 55.6543C194.658 55.1543 194.465 54.6055 194.465 54.0078V53.5625H195.262V54.0078ZM195.18 62.9492H194.277V58.9648H195.18V62.9492ZM199.492 59.2344H190V58.4727H199.492V59.2344ZM198.59 53.9375H190.891V53.1875H198.59V53.9375ZM208.152 54.3477H201.379V53.5859H208.152V54.3477ZM209.863 61.4727H200.371V60.7109H209.863V61.4727ZM205 61.1094H204.098V56.9844H205V61.1094ZM208.727 54.7578C208.719 55.6211 208.691 56.3926 208.645 57.0723C208.602 57.752 208.5 58.5391 208.34 59.4336L207.402 59.3281C207.523 58.7266 207.611 58.1562 207.666 57.6172C207.725 57.0781 207.76 56.6094 207.771 56.2109C207.787 55.8086 207.797 55.3047 207.801 54.6992V54.6289V53.5859H208.727V54.6289V54.7578ZM222.355 58.332H221.441V52.543H222.355V58.332ZM217.281 53.9492C217.277 54.5781 217.148 55.1719 216.895 55.7305C216.645 56.2852 216.293 56.7695 215.84 57.1836C215.391 57.5938 214.875 57.9023 214.293 58.1094L213.824 57.3828C214.344 57.2031 214.807 56.9375 215.213 56.5859C215.623 56.2344 215.941 55.832 216.168 55.3789C216.395 54.9219 216.508 54.4453 216.508 53.9492V52.9297H217.281V53.9492ZM217.445 53.9492C217.441 54.4219 217.553 54.875 217.779 55.3086C218.01 55.7383 218.326 56.1191 218.729 56.4512C219.131 56.7793 219.59 57.0273 220.105 57.1953L219.66 57.9219C219.074 57.7227 218.557 57.4277 218.107 57.0371C217.658 56.6426 217.307 56.1816 217.053 55.6543C216.799 55.127 216.672 54.5586 216.672 53.9492V52.9297H217.445V53.9492ZM222.426 59.7031H215.418V58.9531H222.426V59.7031ZM222.531 62.8086H215.324V62.0586H222.531V62.8086ZM217.785 62.5039H216.883V59.2695H217.785V62.5039ZM220.984 62.5039H220.07V59.2695H220.984V62.5039ZM226.926 53.3398C227.43 53.3398 227.879 53.4883 228.273 53.7852C228.672 54.082 228.98 54.5059 229.199 55.0566C229.418 55.6074 229.527 56.2461 229.527 56.9727C229.527 57.7031 229.418 58.3418 229.199 58.8887C228.98 59.4316 228.672 59.8516 228.273 60.1484C227.879 60.4453 227.43 60.5938 226.926 60.5938C226.414 60.5938 225.959 60.4453 225.561 60.1484C225.166 59.8516 224.859 59.4316 224.641 58.8887C224.422 58.3418 224.312 57.7031 224.312 56.9727C224.312 56.2461 224.422 55.6074 224.641 55.0566C224.859 54.5059 225.166 54.082 225.561 53.7852C225.959 53.4883 226.414 53.3398 226.926 53.3398ZM226.926 54.1602C226.586 54.1602 226.285 54.2773 226.023 54.5117C225.766 54.7461 225.562 55.0762 225.414 55.502C225.266 55.9238 225.191 56.4141 225.191 56.9727C225.191 57.5312 225.266 58.0234 225.414 58.4492C225.562 58.8711 225.766 59.1973 226.023 59.4277C226.285 59.6582 226.586 59.7734 226.926 59.7734C227.262 59.7734 227.562 59.6582 227.828 59.4277C228.094 59.1973 228.299 58.8691 228.443 58.4434C228.588 58.0176 228.66 57.5273 228.66 56.9727C228.66 56.418 228.588 55.9277 228.443 55.502C228.299 55.0762 228.094 54.7461 227.828 54.5117C227.562 54.2773 227.262 54.1602 226.926 54.1602ZM232.762 62.9727H231.848V52.5312H232.762V62.9727ZM232.258 57.2773H229.223V56.5156H232.258V57.2773ZM237.766 61.0273H236.863V57.9102H237.766V61.0273ZM241.668 61.0273H240.742V57.9102H241.668V61.0273ZM244.035 61.6133H234.496V60.8398H244.035V61.6133ZM239.242 53.1875C239.98 53.1914 240.637 53.3047 241.211 53.5273C241.789 53.7461 242.24 54.0605 242.564 54.4707C242.889 54.877 243.051 55.3438 243.051 55.8711C243.051 56.4023 242.889 56.8691 242.564 57.2715C242.24 57.6738 241.789 57.9863 241.211 58.209C240.637 58.4316 239.98 58.543 239.242 58.543C238.504 58.543 237.846 58.4316 237.268 58.209C236.693 57.9863 236.244 57.6738 235.92 57.2715C235.596 56.8691 235.434 56.4023 235.434 55.8711C235.434 55.3438 235.596 54.877 235.92 54.4707C236.244 54.0605 236.693 53.7461 237.268 53.5273C237.846 53.3047 238.504 53.1914 239.242 53.1875ZM239.242 53.9492C238.676 53.9453 238.17 54.0234 237.725 54.1836C237.283 54.3398 236.939 54.5645 236.693 54.8574C236.447 55.1504 236.324 55.4883 236.324 55.8711C236.324 56.2539 236.447 56.5918 236.693 56.8848C236.939 57.1777 237.283 57.4062 237.725 57.5703C238.17 57.7344 238.676 57.8164 239.242 57.8164C239.805 57.8164 240.307 57.7344 240.748 57.5703C241.189 57.4062 241.535 57.1777 241.785 56.8848C242.035 56.5918 242.16 56.2539 242.16 55.8711C242.16 55.4883 242.035 55.1504 241.785 54.8574C241.535 54.5645 241.189 54.3398 240.748 54.1836C240.307 54.0234 239.805 53.9453 239.242 53.9492ZM246.473 59.6094H245.488L245.406 53.5156H246.555L246.473 59.6094ZM245.98 62.0703C245.844 62.0703 245.717 62.0352 245.6 61.9648C245.486 61.8945 245.395 61.8027 245.324 61.6895C245.258 61.5723 245.227 61.4453 245.23 61.3086C245.227 61.1758 245.258 61.0508 245.324 60.9336C245.395 60.8164 245.486 60.7246 245.6 60.6582C245.717 60.5918 245.844 60.5586 245.98 60.5586C246.117 60.5586 246.242 60.5918 246.355 60.6582C246.473 60.7246 246.564 60.8164 246.631 60.9336C246.697 61.0508 246.73 61.1758 246.73 61.3086C246.73 61.4453 246.697 61.5723 246.631 61.6895C246.564 61.8027 246.473 61.8945 246.355 61.9648C246.242 62.0352 246.117 62.0703 245.98 62.0703Z" fill="#8A8A8A"/>
<path d="M58.9574 50.3198C55.2674 33.114 64.595 28.2715 69.72 28.001H70.5368C70.8635 28.001 70.9452 33.8676 70.9452 36.801L69.72 37.401V54.3778L59.342 56.001L56.6514 52.3488C58.1889 51.5372 58.9575 51.1314 58.9574 50.3198Z" fill="#373737"/>
<path d="M81.2995 50.3198C84.9895 33.114 75.6619 28.2715 70.5368 28.001V54.3778L80.9148 56.001L83.6055 52.3488C82.068 51.5372 81.2994 51.1314 81.2995 50.3198Z" fill="#373737"/>
<path d="M56.5459 63.0909C56.5459 55.761 64.0584 53.6376 67.8146 53.4922H70.9698L71.4206 73.9985H57.4474C56.7262 73.9985 56.5459 73.4168 56.5459 73.1259V63.0909Z" fill="#94928B"/>
<path d="M84.6425 63.0909C84.6425 55.761 77.5474 53.6376 73.9998 53.4922H71.0199L70.5942 73.9985H83.7911C84.4722 73.9985 84.6425 73.4168 84.6425 73.1259V63.0909Z" fill="#94928B"/>
<path d="M60.5586 63.1608C60.5586 62.7451 60.8955 62.4082 61.3112 62.4082V62.4082C61.7268 62.4082 62.0638 62.7451 62.0638 63.1608V73.9987H60.5586V63.1608Z" fill="#6A6A6A"/>
<path d="M79.625 63.1608C79.625 62.7451 79.9619 62.4082 80.3776 62.4082V62.4082C80.7932 62.4082 81.1302 62.7451 81.1302 63.1608V73.9987H79.625V63.1608Z" fill="#6A6A6A"/>
<path d="M70.5314 56.0226C67.2714 56.0226 67.0601 53.3539 67.362 52.0195H70.5314V56.0226Z" fill="#B0B0B0"/>
<path d="M70.5314 56.0226C73.7913 56.0226 74.0026 53.3539 73.7008 52.0195H70.5314V56.0226Z" fill="#B0B0B0"/>
<path d="M66.4704 38.4056C65.0937 38.7252 63.631 38.8909 62.1388 38.8043V42.0035C60.9914 42.1368 58.7826 42.8833 59.1268 44.8029C59.1271 45.4694 59.7298 46.8824 62.1388 47.2023C63.0466 49.0106 64.6811 52.3888 68.4882 52.7819L69.5014 52.801C69.7115 52.816 69.9186 52.8217 70.1226 52.8187C70.3266 52.8217 70.5337 52.816 70.7438 52.801L72.1655 52.7819C75.9727 52.3888 77.1986 49.0106 78.1064 47.2023C80.5154 46.8824 81.1181 45.4694 81.1183 44.8029C81.4626 42.8833 79.2538 42.1368 78.1064 42.0035V38.8043C74.617 36.8071 73.7998 35.2059 73.3913 34.4053C72.9827 35.2059 72.1419 36.249 70.1226 37.1584C68.4882 38.0081 66.4453 38.4084 66.4453 38.4084L66.4704 38.4056Z" fill="#CCCCCC"/>
<path d="M62.3595 45.6143C60.9827 45.9339 60.3166 45.2244 60.3166 44.4134C60.2771 43.3819 60.6757 43.1376 62.1388 42.0039C60.9914 42.1372 58.7826 42.8837 59.1268 44.8033C59.1271 45.4698 59.7298 46.8828 62.1388 47.2027C63.0466 49.011 64.6811 52.3892 68.4882 52.7823L70.1226 52.8201C70.3326 52.8351 70.3271 51.6222 70.5312 51.6191C68.2196 51.6191 66.0463 50.5401 64.6794 48.7138L62.3595 45.6143Z" fill="#C0C0C0"/>
<path d="M77.8857 45.6143C79.2624 45.9339 79.9286 45.2244 79.9286 44.4134C79.968 43.3819 79.5695 43.1376 78.1064 42.0039C79.2538 42.1372 81.4626 42.8837 81.1183 44.8033C81.1181 45.4698 80.5154 46.8828 78.1064 47.2027C77.1986 49.011 75.8428 52.8201 71.7569 52.7823L69.3054 52.8201C69.0954 52.8351 69.918 51.6222 69.714 51.6191C72.0256 51.6191 74.1989 50.5401 75.5658 48.7138L77.8857 45.6143Z" fill="#C0C0C0"/>
<path d="M72.5404 47.252H67.9018C67.2377 47.252 66.9468 48.0903 67.4683 48.5016L69.0813 49.7737C69.8464 50.3771 70.935 50.3413 71.6588 49.6889L73.0091 48.4719C73.4854 48.0426 73.1817 47.252 72.5404 47.252Z" fill="#494949"/>
<path d="M67.7674 42.3802C67.7674 43.311 66.7504 42.3802 65.8832 42.3802C65.016 42.3802 63.999 43.311 63.999 42.3802C63.999 41.4493 65.016 41.0107 65.8832 41.0107C66.7504 41.0107 67.7674 41.4493 67.7674 42.3802Z" fill="#343434"/>
<path d="M76.2479 42.3802C76.2479 43.311 75.2309 42.3802 74.3637 42.3802C73.4965 42.3802 72.4795 43.311 72.4795 42.3802C72.4795 41.4493 73.4965 41.0107 74.3637 41.0107C75.2309 41.0107 76.2479 41.4493 76.2479 42.3802Z" fill="#343434"/>
<path d="M26.5869 62.3639C26.5869 54.5451 35.7226 52.2801 40.2904 52.125H44.1274L44.6755 73.9989H27.6832C26.8062 73.9989 26.5869 73.3784 26.5869 73.0681V62.3639Z" fill="#A29A8E"/>
<path d="M60.7543 62.3639C60.7543 54.5451 52.1262 52.2801 47.8121 52.125H44.1883L43.6706 73.9989H59.7189C60.5472 73.9989 60.7543 73.3784 60.7543 73.0681V62.3639Z" fill="#A29A8E"/>
<path d="M33.6211 62.3894C33.6211 61.9732 33.9585 61.6357 34.3748 61.6357V61.6357C34.791 61.6357 35.1285 61.9732 35.1285 62.3894V73.9993H33.6211V62.3894Z" fill="#666666"/>
<path d="M52.7148 62.3894C52.7148 61.9732 53.0523 61.6357 53.4685 61.6357V61.6357C53.8848 61.6357 54.2222 61.9732 54.2222 62.3894V73.9993H52.7148V62.3894Z" fill="#666666"/>
<path d="M30.6058 25.0205C42.2629 18.9338 47.857 23.4354 49.1969 26.4471C58.8438 26.4471 57.9063 36.2743 56.2318 41.188L50.2022 38.3349L31.1082 40.2369C25.4807 31.4874 28.4284 26.447 30.6058 25.0205Z" fill="#221D1C"/>
<path d="M43.6701 55.929C39.6611 55.929 39.4013 52.7589 39.7725 51.1738H43.6701V55.929Z" fill="#B0B0B0"/>
<path d="M43.6701 55.929C47.6791 55.929 47.9389 52.7589 47.5677 51.1738H43.6701V55.929Z" fill="#B0B0B0"/>
<path d="M38.6767 35.0029C36.9837 35.3825 35.1849 35.5794 33.3499 35.4765V39.2768C31.9388 39.4351 29.2225 40.3219 29.6458 42.6021C29.6461 43.3938 30.3873 45.0723 33.3499 45.4524C34.4662 47.6004 36.4762 51.6133 41.1582 52.0802L42.4041 52.103C42.6624 52.1208 42.9171 52.1276 43.168 52.124C43.4189 52.1276 43.6736 52.1208 43.9319 52.103L45.6803 52.0802C50.3623 51.6133 51.8699 47.6004 52.9862 45.4524C55.9487 45.0723 56.6899 43.3938 56.6902 42.6021C57.1135 40.3219 54.3972 39.4351 52.9862 39.2768V35.4765C48.6951 33.1041 47.6902 31.202 47.1877 30.251C46.6853 31.202 45.6513 32.4411 43.168 33.5214C41.1582 34.5307 38.6459 35.0062 38.6459 35.0062L38.6767 35.0029Z" fill="#CCCCCC"/>
<path d="M33.6213 43.5651C31.9282 43.9447 31.1089 43.102 31.1089 42.1385C31.0605 40.9133 31.5506 40.6231 33.3499 39.2764C31.9388 39.4347 29.2225 40.3215 29.6458 42.6017C29.6461 43.3934 30.3873 45.0719 33.3499 45.4519C34.4662 47.6 36.4762 51.6129 41.1582 52.0798L43.168 52.1247C43.4263 52.1425 43.4196 50.7017 43.6705 50.6981C40.8278 50.6981 38.1552 49.4164 36.4742 47.2469L33.6213 43.5651Z" fill="#C0C0C0"/>
<path d="M52.7148 43.5651C54.4079 43.9447 55.2271 43.102 55.2271 42.1385C55.2756 40.9133 54.7855 40.6231 52.9862 39.2764C54.3972 39.4347 57.1135 40.3215 56.6902 42.6017C56.6899 43.3934 55.9487 45.0719 52.9862 45.4519C51.8699 47.6 50.2025 52.1247 45.1779 52.0798L42.1631 52.1247C41.9048 52.1425 42.9165 50.7017 42.6656 50.6981C45.5083 50.6981 48.1809 49.4164 49.8619 47.2469L52.7148 43.5651Z" fill="#C0C0C0"/>
<path d="M42.9341 43.6151C41.205 43.3829 38.2992 43.8529 38.6806 47.4625C39.4723 47.7621 41.3712 47.9201 42.9341 46.3308C44.497 47.9201 46.3959 47.7621 47.1876 47.4625C47.569 43.8529 44.6631 43.3829 42.9341 43.6151Z" fill="#221D1C"/>
<path d="M40.6554 40.2723C40.6554 41.2652 39.5706 40.2723 38.6456 40.2723C37.7206 40.2723 36.6357 41.2652 36.6357 40.2723C36.6357 39.2794 37.7206 38.8115 38.6456 38.8115C39.5706 38.8115 40.6554 39.2794 40.6554 40.2723Z" fill="#221D1C"/>
<path d="M49.7004 40.2723C49.7004 41.2652 48.6155 40.2723 47.6905 40.2723C46.7655 40.2723 45.6807 41.2652 45.6807 40.2723C45.6807 39.2794 46.7655 38.8115 47.6905 38.8115C48.6155 38.8115 49.7004 39.2794 49.7004 40.2723Z" fill="#221D1C"/>
<defs>
<filter id="filter0_d_593_17776" x="0.5" y="0.5" width="358" height="95" filterUnits="userSpaceOnUse" color-interpolation-filters="sRGB">
<feFlood flood-opacity="0" result="BackgroundImageFix"/>
<feColorMatrix in="SourceAlpha" type="matrix" values="0 0 0 0 0 0 0 0 0 0 0 0 0 0 0 0 0 0 127 0" result="hardAlpha"/>
<feMorphology radius="1" operator="dilate" in="SourceAlpha" result="effect1_dropShadow_593_17776"/>
<feOffset/>
<feGaussianBlur stdDeviation="4"/>
<feComposite in2="hardAlpha" operator="out"/>
<feColorMatrix type="matrix" values="0 0 0 0 0 0 0 0 0 0 0 0 0 0 0 0 0 0 0.1 0"/>
<feBlend mode="normal" in2="BackgroundImageFix" result="effect1_dropShadow_593_17776"/>
<feBlend mode="normal" in="SourceGraphic" in2="effect1_dropShadow_593_17776" result="shape"/>
</filter>
</defs>
</svg>
