<svg width="339" height="56" viewBox="0 0 339 56" fill="none" xmlns="http://www.w3.org/2000/svg">
<rect width="339" height="56" rx="10" fill="#8A8A8A"/>
<path d="M153.141 34.9766H151.141V20.7031H153.141V34.9766ZM155.25 27.625H152.703V25.9922H155.25V27.625ZM143.688 29.875C144.974 29.8802 146.115 29.849 147.109 29.7812C148.104 29.7135 149.107 29.5938 150.117 29.4219L150.336 31.0938C149.31 31.2656 148.292 31.3802 147.281 31.4375C146.276 31.4948 145.078 31.5208 143.688 31.5156H142.484V29.875H143.688ZM149.156 23.6484H144.477V30.6875H142.484V22.0312H149.156V23.6484ZM162.234 20.9766C163.286 20.9766 164.201 21.0885 164.977 21.3125C165.753 21.5312 166.349 21.8516 166.766 22.2734C167.188 22.6953 167.398 23.1927 167.398 23.7656C167.398 24.3333 167.188 24.8255 166.766 25.2422C166.349 25.6589 165.753 25.9766 164.977 26.1953C164.201 26.4089 163.286 26.5156 162.234 26.5156C161.188 26.5156 160.273 26.4089 159.492 26.1953C158.711 25.9766 158.107 25.6589 157.68 25.2422C157.258 24.8255 157.047 24.3333 157.047 23.7656C157.047 23.1927 157.258 22.6953 157.68 22.2734C158.107 21.8516 158.711 21.5312 159.492 21.3125C160.273 21.0885 161.188 20.9766 162.234 20.9766ZM162.234 22.5234C161.568 22.5234 161.003 22.5703 160.539 22.6641C160.076 22.7578 159.721 22.8984 159.477 23.0859C159.237 23.2682 159.117 23.4948 159.117 23.7656C159.117 24.026 159.237 24.2474 159.477 24.4297C159.721 24.6068 160.076 24.7422 160.539 24.8359C161.003 24.9297 161.568 24.9766 162.234 24.9766C162.891 24.9766 163.451 24.9297 163.914 24.8359C164.378 24.7422 164.732 24.6068 164.977 24.4297C165.221 24.2474 165.344 24.026 165.344 23.7656C165.344 23.4948 165.221 23.2682 164.977 23.0859C164.732 22.8984 164.378 22.7578 163.914 22.6641C163.451 22.5703 162.891 22.5234 162.234 22.5234ZM167.172 34.7812H157.258V29.9297H167.172V34.7812ZM159.219 33.1797H165.219V31.5078H159.219V33.1797ZM168.727 28.9375H155.758V27.3438H168.727V28.9375ZM176.062 21.4453C177.062 21.4453 177.969 21.6172 178.781 21.9609C179.599 22.2995 180.242 22.7786 180.711 23.3984C181.18 24.0182 181.414 24.7292 181.414 25.5312C181.414 26.3385 181.18 27.0547 180.711 27.6797C180.242 28.2995 179.599 28.7812 178.781 29.125C177.969 29.4635 177.062 29.6302 176.062 29.625C175.062 29.6302 174.156 29.4635 173.344 29.125C172.531 28.7812 171.891 28.2995 171.422 27.6797C170.953 27.0547 170.719 26.3385 170.719 25.5312C170.719 24.7292 170.953 24.0182 171.422 23.3984C171.891 22.7786 172.531 22.2995 173.344 21.9609C174.156 21.6172 175.062 21.4453 176.062 21.4453ZM176.062 23.0547C175.406 23.0547 174.82 23.1562 174.305 23.3594C173.789 23.5573 173.385 23.8438 173.094 24.2188C172.802 24.5938 172.659 25.0312 172.664 25.5312C172.659 26.0365 172.802 26.4766 173.094 26.8516C173.385 27.2214 173.786 27.5052 174.297 27.7031C174.812 27.8958 175.401 27.9948 176.062 28C176.719 27.9948 177.302 27.8958 177.812 27.7031C178.328 27.5052 178.729 27.2214 179.016 26.8516C179.302 26.4766 179.445 26.0365 179.445 25.5312C179.445 25.0312 179.299 24.5938 179.008 24.2188C178.721 23.8438 178.32 23.5573 177.805 23.3594C177.294 23.1562 176.714 23.0547 176.062 23.0547ZM182.586 33.2109H169.586V31.6016H182.586V33.2109ZM196.414 33.3594H183.414V31.7266H196.414V33.3594ZM190.867 32.4062H188.906V29.0312H190.867V32.4062ZM194.914 26.3516H186.898V28.7812H184.914V24.7891H192.945V23.2422H184.891V21.6406H194.914V26.3516ZM195.25 29.5703H184.914V27.9531H195.25V29.5703Z" fill="white"/>
</svg>
