<svg width="56" height="52" viewBox="0 0 56 52" fill="none" xmlns="http://www.w3.org/2000/svg">
<path d="M6.73297 43.1699C10.1602 40.8509 16.1578 35.0533 12.7306 30.4152C9.58925 31.768 3.99186 36.2128 6.73297 43.1699Z" fill="#F59300"/>
<path d="M49.5209 43.1699C46.0937 40.8509 40.0961 35.0533 43.5233 30.4152C46.6647 31.768 52.262 36.2128 49.5209 43.1699Z" fill="#F59300"/>
<path d="M11 42.6787C11 40.6693 12.5897 38.0814 13.3494 37.2441H42.6517C44.1801 38.8655 45.1722 40.9181 45.4933 43.1231L45.5 43.1693L48.1866 45.0932L48.8377 47.9188L47.2098 50.7445H13.0238L11 42.6787Z" fill="#F3AD66"/>
<path d="M28.1627 7.54767C25.559 2.7638 25.1251 5.55439 25.2336 7.54767C22.5215 7.44275 16.5115 7.9253 14.1682 10.6949C12.9749 10.4851 9.87225 11.765 7.00825 18.5631C6.14037 20.0318 3.75371 23.0322 1.15008 23.284C-0.932826 24.7947 0.282203 26.6411 1.15008 27.3755C2.77735 29.7884 7.00825 33.0406 7.65916 33.67C8.31007 34.2995 8.37516 35.8102 9.93734 35.5584C10.8052 36.1879 12.6712 37.3838 13.1919 37.132C13.8428 36.8173 18.0736 44.3708 28.1627 43.1119C38.2517 44.3708 42.1572 36.8173 42.8081 37.1321C43.3288 37.3838 45.1948 36.1879 46.0626 35.5584C47.6248 35.8102 47.6899 34.2995 48.3408 33.67C48.9917 33.0406 53.2226 29.7884 54.8499 27.3755C55.7178 26.6411 56.9328 24.7947 54.8499 23.284C52.2463 23.0322 49.8596 20.0318 48.9917 18.5631C46.1277 11.765 43.0251 10.4851 41.8317 10.6949C39.4885 7.9253 33.4784 7.44275 30.7663 7.54767C30.5059 5.28166 28.9221 6.6035 28.1627 7.54767Z" fill="#FAC174"/>
<path d="M48.9921 18.563C46.1281 11.7648 43.0255 10.4849 41.8321 10.6948C38.4474 23.3632 43.2424 32.5489 46.063 35.5583C47.6252 35.81 47.6903 34.2993 48.3412 33.6699C48.9921 33.0404 53.223 29.7882 54.8503 27.3753C55.7182 26.641 56.9332 24.7946 54.8503 23.2839C52.2466 23.0321 49.86 20.0317 48.9921 18.563Z" fill="#F3AD66"/>
<path d="M7.00825 18.563C9.87225 11.7648 12.9749 10.4849 14.1682 10.6948C17.553 23.3632 12.7579 32.5489 9.93734 35.5583C8.37516 35.81 8.31007 34.2993 7.65916 33.6699C7.00825 33.0404 2.77735 29.7882 1.15008 27.3753C0.282203 26.641 -0.932826 24.7946 1.15008 23.2839C3.75371 23.0321 6.14037 20.0317 7.00825 18.563Z" fill="#F3AD66"/>
<path d="M22.26 23.0832C22.8477 24.3435 21.8686 25.002 20.5654 25.6097C19.2622 26.2174 18.1283 26.5441 17.5406 25.2839C16.953 24.0236 17.533 22.5093 18.8363 21.9016C20.1395 21.2939 21.6724 21.8229 22.26 23.0832Z" fill="#3C1826"/>
<path d="M38.1338 25.2853C37.5461 26.5456 36.4123 26.2189 35.1091 25.6112C33.8059 25.0035 32.8268 24.3449 33.4144 23.0847C34.0021 21.8244 35.535 21.2954 36.8382 21.9031C38.1414 22.5108 38.7215 24.0251 38.1338 25.2853Z" fill="#3C1826"/>
<path d="M29.1124 32.5127C28.4329 33.2144 27.2417 33.2144 26.5621 32.5127L25.3454 31.256C24.3626 30.2411 25.1444 28.6328 26.6205 28.6328L29.0541 28.6328C30.5302 28.6328 31.312 30.2411 30.3292 31.256L29.1124 32.5127Z" fill="#3C1826"/>
<path d="M27.8369 33.041V34.9294" stroke="#3C1826" stroke-width="1.2" stroke-linecap="round" stroke-linejoin="round"/>
<path d="M8.36847 43.2314C9.31552 42.0866 12.3146 42.5635 13.6958 42.9452C19.0231 45.521 19.3191 48.097 18.1352 50.3866C17.1882 52.2184 15.3729 51.7223 14.5837 51.2453C12.9263 52.848 11.7227 51.5315 11.3281 50.6728C9.67071 52.5046 7.87521 51.4361 7.18463 50.6728C6.47432 51.5887 5.31019 50.8637 4.81692 50.3866C2.44919 47.2384 7.18462 44.6624 8.36847 43.2314Z" fill="#FAC174"/>
<path d="M15.1761 48.3828C15.2748 49.146 15.2946 50.787 14.584 51.2449" stroke="#32071A" stroke-width="0.9" stroke-linecap="round" stroke-linejoin="round"/>
<path d="M11.3281 48.0977V50.6735" stroke="#32071A" stroke-width="0.9" stroke-linecap="round" stroke-linejoin="round"/>
<path d="M7.18442 48.0977C6.98703 48.5747 6.71069 49.7577 7.18442 50.6735" stroke="#32071A" stroke-width="0.9" stroke-linecap="round" stroke-linejoin="round"/>
<path d="M46.8024 43.2314C45.8554 42.0866 42.8563 42.5635 41.4751 42.9452C36.1478 45.521 35.8518 48.097 37.0357 50.3866C37.9827 52.2184 39.798 51.7223 40.5872 51.2453C42.2446 52.848 43.4482 51.5315 43.8428 50.6728C45.5002 52.5046 47.2957 51.4361 47.9863 50.6728C48.6966 51.5887 49.8607 50.8637 50.354 50.3866C52.7217 47.2384 47.9863 44.6624 46.8024 43.2314Z" fill="#FAC174"/>
<path d="M39.9948 48.3828C39.8961 49.146 39.8763 50.787 40.5869 51.2449" stroke="#32071A" stroke-width="0.9" stroke-linecap="round" stroke-linejoin="round"/>
<path d="M43.8428 48.0977V50.6735" stroke="#32071A" stroke-width="0.9" stroke-linecap="round" stroke-linejoin="round"/>
<path d="M47.9865 48.0977C48.1839 48.5747 48.4602 49.7577 47.9865 50.6735" stroke="#32071A" stroke-width="0.9" stroke-linecap="round" stroke-linejoin="round"/>
<ellipse cx="20.6512" cy="23.6279" rx="0.651163" ry="0.627923" fill="white"/>
<ellipse cx="34.6512" cy="23.6279" rx="0.651163" ry="0.627923" fill="white"/>
<path d="M10 13.7472C13.2903 14.5109 21.4968 15.962 28 15.6565C34.5032 15.962 42.7097 14.5109 46 13.7472C44.1419 3.36042 33.2258 0.254577 28 0C22.7742 0.254577 11.8581 3.36042 10 13.7472Z" fill="#FFA41B"/>
<mask id="mask0_1195_28394" style="mask-type:alpha" maskUnits="userSpaceOnUse" x="10" y="0" width="36" height="16">
<path d="M10 13.7472C13.2903 14.5109 21.4968 15.962 28 15.6565C34.5032 15.962 42.7097 14.5109 46 13.7472C44.1419 3.36042 33.2258 0.254577 28 0C22.7742 0.254577 11.8581 3.36042 10 13.7472Z" fill="#FFA41B"/>
</mask>
<g mask="url(#mask0_1195_28394)">
<ellipse cx="24" cy="3.92449" rx="1" ry="0.981132" fill="white"/>
<ellipse cx="36" cy="6.86785" rx="1" ry="0.981132" fill="white"/>
<ellipse cx="16" cy="9.81121" rx="1" ry="0.981132" fill="white"/>
<ellipse cx="28" cy="12.7546" rx="1" ry="0.981132" fill="white"/>
<ellipse cx="28" cy="0.981132" rx="1" ry="0.981132" fill="white"/>
<ellipse cx="40" cy="3.92449" rx="1" ry="0.981132" fill="white"/>
<ellipse cx="24" cy="15.6979" rx="1" ry="0.981132" fill="white"/>
<ellipse cx="20" cy="6.86785" rx="1" ry="0.981132" fill="white"/>
<ellipse cx="32" cy="9.81121" rx="1" ry="0.981132" fill="white"/>
<ellipse cx="44" cy="12.7546" rx="1" ry="0.981132" fill="white"/>
<ellipse cx="28" cy="6.86785" rx="1" ry="0.981132" fill="white"/>
<ellipse cx="40" cy="9.81121" rx="1" ry="0.981132" fill="white"/>
<ellipse cx="20" cy="0.981132" rx="1" ry="0.981132" fill="white"/>
<ellipse cx="12" cy="12.7546" rx="1" ry="0.981132" fill="white"/>
<ellipse cx="20" cy="12.7546" rx="1" ry="0.981132" fill="white"/>
<ellipse cx="32" cy="15.6979" rx="1" ry="0.981132" fill="white"/>
<ellipse cx="36" cy="0.981132" rx="1" ry="0.981132" fill="white"/>
<ellipse cx="32" cy="3.92449" rx="1" ry="0.981132" fill="white"/>
<ellipse cx="44" cy="6.86785" rx="1" ry="0.981132" fill="white"/>
<ellipse cx="12" cy="6.86785" rx="1" ry="0.981132" fill="white"/>
<ellipse cx="24" cy="9.81121" rx="1" ry="0.981132" fill="white"/>
<ellipse cx="36" cy="12.7546" rx="1" ry="0.981132" fill="white"/>
<ellipse cx="16" cy="3.92449" rx="1" ry="0.981132" fill="white"/>
</g>
<path fill-rule="evenodd" clip-rule="evenodd" d="M27.8441 34.8064C28.1032 34.6034 28.4052 34.4628 28.7474 34.3823C29.3105 34.2498 29.9594 34.2851 30.6764 34.4175C32.1028 34.6808 34.0334 35.3778 36.5581 36.3105C36.8689 36.4253 37.0278 36.7703 36.913 37.0812C36.7982 37.392 36.4531 37.5509 36.1422 37.4361C33.5797 36.4895 31.7603 35.8378 30.4585 35.5976C29.8114 35.4781 29.3516 35.4729 29.0222 35.5504C28.724 35.6205 28.5194 35.7604 28.3581 35.9967C28.3144 36.0662 28.2556 36.1279 28.1829 36.1763C27.9152 36.3547 27.5564 36.2897 27.3675 36.0335C27.361 36.0247 27.3548 36.0158 27.3488 36.0067C27.0671 35.5873 26.4482 35.3514 24.9828 35.599C23.5579 35.8397 21.6094 36.493 19.0581 37.4355C18.7472 37.5503 18.4022 37.3914 18.2873 37.0806C18.1725 36.7697 18.3314 36.4247 18.6422 36.3098C21.1782 35.373 23.2297 34.6781 24.7829 34.4157C25.9887 34.212 27.0851 34.2375 27.8441 34.8064Z" fill="#3C1826"/>
<ellipse cx="18" cy="26" rx="2" ry="1" fill="#F0F2F2"/>
<ellipse cx="37" cy="26" rx="2" ry="1" fill="#F0F2F2"/>
</svg>
