<svg width="110" height="111" viewBox="0 0 110 111" fill="none" xmlns="http://www.w3.org/2000/svg">
<ellipse cx="55" cy="53.5936" rx="55" ry="53.5936" fill="#FFD93D"/>
<path d="M53.7226 76.7095C49.0191 52.5188 60.9086 45.7104 67.4412 45.3301H68.4824C68.8988 45.3301 69.0029 53.5784 69.0029 57.7025L67.4412 58.5461V82.4148L54.2129 84.697L50.7832 79.5622C52.743 78.4211 53.7227 77.8506 53.7226 76.7095Z" fill="#28303F"/>
<path d="M82.201 76.7095C86.9046 52.5188 75.0151 45.7104 68.4824 45.3301V82.4148L81.7108 84.697L85.1404 79.5622C83.1806 78.4211 82.2009 77.8506 82.201 76.7095Z" fill="#28303F"/>
<path d="M50.6484 94.6653C50.6484 84.3597 60.2242 81.3744 65.0121 81.1699H69.034L69.6085 110.001H51.7975C50.8783 110.001 50.6484 109.183 50.6484 108.774V94.6653Z" fill="#A9D6FF"/>
<path d="M86.4619 94.6653C86.4619 84.3597 77.4181 81.3744 72.8962 81.1699H69.0978L68.5552 110.001H85.3767C86.2449 110.001 86.4619 109.183 86.4619 108.774V94.6653Z" fill="#A9D6FF"/>
<path d="M55.7637 94.6644C55.7637 94.1346 56.1932 93.7051 56.723 93.7051V93.7051C57.2528 93.7051 57.6823 94.1346 57.6823 94.6644V110.001H55.7637V94.6644Z" fill="#18A0FB"/>
<path d="M80.0664 94.6644C80.0664 94.1346 80.4959 93.7051 81.0257 93.7051V93.7051C81.5555 93.7051 81.985 94.1346 81.985 94.6644V110.001H80.0664V94.6644Z" fill="#18A0FB"/>
<path d="M68.475 84.7258C64.3197 84.7258 64.0504 80.9737 64.4351 79.0977H68.475V84.7258Z" fill="#E8BA8C"/>
<path d="M68.475 84.7258C72.6304 84.7258 72.8997 80.9737 72.5149 79.0977H68.475V84.7258Z" fill="#E8BA8C"/>
<path d="M63.299 59.9582C61.5442 60.4076 59.6797 60.6406 57.7777 60.5188V65.0168C56.3151 65.2042 53.4997 66.2538 53.9385 68.9526C53.9388 69.8897 54.707 71.8763 57.7777 72.3261C58.9348 74.8685 61.0182 79.6181 65.8711 80.1708L67.1625 80.1977C67.4302 80.2188 67.6942 80.2268 67.9543 80.2225C68.2143 80.2268 68.4783 80.2188 68.746 80.1977L70.5583 80.1708C75.4111 79.6181 76.9738 74.8685 78.1308 72.3261C81.2015 71.8763 81.9698 69.8897 81.9701 68.9526C82.4088 66.2538 79.5934 65.2042 78.1308 65.0168V60.5188C73.6831 57.7109 72.6415 55.4596 72.1207 54.334C71.5999 55.4596 70.5282 56.9262 67.9543 58.2048C65.8711 59.3994 63.267 59.9622 63.267 59.9622L63.299 59.9582Z" fill="#F3CEA0"/>
<path d="M58.059 70.0937C56.3041 70.543 55.455 69.5455 55.455 68.4052C55.4047 66.955 55.9127 66.6115 57.7777 65.0176C56.3151 65.205 53.4997 66.2545 53.9385 68.9534C53.9388 69.8905 54.707 71.8771 57.7777 72.3269C58.9348 74.8693 61.0182 79.6189 65.8711 80.1715L67.9543 80.2247C68.222 80.2458 68.215 78.5405 68.4751 78.5362C65.5286 78.5362 62.7584 77.0192 61.016 74.4514L58.059 70.0937Z" fill="#EBC498"/>
<path d="M77.8495 70.0937C79.6044 70.543 80.4536 69.5455 80.4536 68.4052C80.5038 66.955 79.9958 66.6115 78.1308 65.0176C79.5934 65.205 82.4088 66.2545 81.9701 68.9534C81.9698 69.8905 81.2015 71.8771 78.1308 72.3269C76.9738 74.8693 75.2455 80.2247 70.0375 80.1715L66.9127 80.2247C66.6449 80.2458 67.6935 78.5405 67.4335 78.5362C70.3799 78.5362 73.1501 77.0192 74.8925 74.4514L77.8495 70.0937Z" fill="#EBC498"/>
<path d="M71.6614 72.3965H64.422C63.7747 72.3965 63.4742 73.1998 63.9626 73.6246L66.9113 76.1897C67.7024 76.8778 68.8905 76.8383 69.634 76.0991L72.1549 73.5929C72.5979 73.1525 72.286 72.3965 71.6614 72.3965Z" fill="#970F0F"/>
<path d="M64.9518 65.5465C64.9518 66.8552 63.6555 65.5465 62.5501 65.5465C61.4448 65.5465 60.1484 66.8552 60.1484 65.5465C60.1484 64.2377 61.4448 63.6211 62.5501 63.6211C63.6555 63.6211 64.9518 64.2377 64.9518 65.5465Z" fill="#28303F"/>
<path d="M75.7604 65.5465C75.7604 66.8552 74.4641 65.5465 73.3587 65.5465C72.2534 65.5465 70.957 66.8552 70.957 65.5465C70.957 64.2377 72.2534 63.6211 73.3587 63.6211C74.4641 63.6211 75.7604 64.2377 75.7604 65.5465Z" fill="#28303F"/>
<path d="M12.4609 93.6435C12.4609 82.6506 24.1058 79.4662 29.9282 79.248H34.819L35.5177 110.002H13.8583C12.7404 110.002 12.4609 109.129 12.4609 108.693V93.6435Z" fill="#FFA41B"/>
<path d="M56.0126 93.6435C56.0126 82.6506 45.0147 79.4662 39.5157 79.248H34.8966L34.2368 110.002H54.6928C55.7486 110.002 56.0126 109.129 56.0126 108.693V93.6435Z" fill="#FFA41B"/>
<path d="M21.4277 93.5798C21.4277 93.0493 21.8579 92.6191 22.3884 92.6191V92.6191C22.919 92.6191 23.3491 93.0493 23.3491 93.5798V110.002H21.4277V93.5798Z" fill="#C57600"/>
<path d="M45.7656 93.5798C45.7656 93.0493 46.1957 92.6191 46.7263 92.6191V92.6191C47.2569 92.6191 47.687 93.0493 47.687 93.5798V110.002H45.7656V93.5798Z" fill="#C57600"/>
<path d="M17.5849 41.1393C32.4437 32.5817 39.5742 38.9107 41.2821 43.145C53.5786 43.145 52.3837 56.9617 50.2491 63.8701L42.5636 59.8587L18.2253 62.533C11.0521 50.2314 14.8095 43.1449 17.5849 41.1393Z" fill="#351509"/>
<path d="M34.237 84.5958C29.1269 84.5958 28.7957 80.1387 29.2689 77.9102H34.237V84.5958Z" fill="#E8BA8C"/>
<path d="M34.237 84.5958C39.3471 84.5958 39.6783 80.1387 39.2051 77.9102H34.237V84.5958Z" fill="#E8BA8C"/>
<path d="M27.8724 55.1731C25.7143 55.7069 23.4215 55.9838 21.0825 55.839V61.1821C19.2839 61.4048 15.8215 62.6515 16.3611 65.8574C16.3615 66.9705 17.3063 69.3304 21.0825 69.8647C22.5054 72.8848 25.0675 78.5268 31.0354 79.1832L32.6235 79.2152C32.9528 79.2403 33.2774 79.2498 33.5972 79.2447C33.9171 79.2498 34.2417 79.2403 34.5709 79.2152L36.7996 79.1832C42.7674 78.5268 44.6891 72.8848 46.112 69.8647C49.8882 69.3304 50.833 66.9705 50.8334 65.8574C51.3729 62.6515 47.9106 61.4048 46.112 61.1821V55.839C40.6424 52.5036 39.3614 49.8293 38.721 48.4922C38.0805 49.8293 36.7626 51.5714 33.5972 53.0903C31.0354 54.5092 27.8331 55.1778 27.8331 55.1778L27.8724 55.1731Z" fill="#F3CEA0"/>
<path d="M21.4284 67.2114C19.2703 67.7452 18.2261 66.5603 18.2261 65.2057C18.1643 63.4831 18.789 63.0751 21.0825 61.1816C19.2839 61.4043 15.8215 62.651 16.3611 65.8569C16.3615 66.97 17.3063 69.3299 21.0825 69.8642C22.5054 72.8843 25.0675 78.5263 31.0354 79.1827L33.5972 79.2459C33.9265 79.271 33.9179 77.2452 34.2377 77.2402C30.6143 77.2402 27.2076 75.4381 25.0649 72.388L21.4284 67.2114Z" fill="#EBC498"/>
<path d="M45.7661 67.2114C47.9242 67.7452 48.9684 66.5603 48.9684 65.2057C49.0302 63.4831 48.4055 63.0751 46.112 61.1816C47.9106 61.4043 51.3729 62.651 50.8334 65.8569C50.833 66.97 49.8882 69.3299 46.112 69.8642C44.6891 72.8843 42.5638 79.2459 36.1591 79.1827L32.3163 79.2459C31.987 79.271 33.2766 77.2452 32.9568 77.2402C36.5802 77.2402 39.9869 75.4381 42.1296 72.388L45.7661 67.2114Z" fill="#EBC498"/>
<path d="M33.2973 67.2827C31.0933 66.9563 27.3894 67.6171 27.8755 72.692C28.8847 73.1132 31.305 73.3353 33.2973 71.1009C35.2895 73.3353 37.7098 73.1132 38.719 72.692C39.2051 67.6171 35.5012 66.9563 33.2973 67.2827Z" fill="#351509"/>
<path d="M30.3933 62.5811C30.3933 63.9772 29.0105 62.5811 27.8314 62.5811C26.6523 62.5811 25.2695 63.9772 25.2695 62.5811C25.2695 61.1851 26.6523 60.5273 27.8314 60.5273C29.0105 60.5273 30.3933 61.1851 30.3933 62.5811Z" fill="#351509"/>
<path d="M41.9225 62.5811C41.9225 63.9772 40.5398 62.5811 39.3607 62.5811C38.1816 62.5811 36.7988 63.9772 36.7988 62.5811C36.7988 61.1851 38.1816 60.5273 39.3607 60.5273C40.5398 60.5273 41.9225 61.1851 41.9225 62.5811Z" fill="#351509"/>
<path d="M20.1248 105.97L20.1248 110.004H11.2518L11.2518 106.846C8.78747 104.394 8.39956 102.029 8.51365 101.153V90.6427C8.51365 90.0588 8.78746 88.8911 9.88272 88.8911C10.978 88.8911 11.2518 90.0588 11.2518 90.6427V94.584C11.2518 94.73 11.3202 95.022 11.5941 95.022C11.8679 95.022 11.9363 94.73 11.9363 94.584V87.1394C11.9363 86.5555 12.2101 85.3877 13.3054 85.3877C14.4007 85.3877 14.6745 86.5555 14.6745 87.1394V94.584C14.6745 94.9344 14.9026 95.022 15.0167 95.022C15.2905 95.022 15.359 94.73 15.359 94.584L15.359 85.0408C15.359 84.4569 15.6328 83.2891 16.7281 83.2891C17.8233 83.2891 18.0802 84.4569 18.0717 85.0408L18.0717 94.584C18.0717 94.73 18.1402 95.022 18.414 95.022C18.6878 95.022 18.7563 94.73 18.7563 94.584V87.1394C18.7563 86.5555 19.03 85.3877 20.1248 85.3877C21.2196 85.3877 21.494 86.5555 21.4944 87.1394V97.6495C22.042 98.3501 22.6353 97.9414 22.8635 97.6495C23.5478 96.4817 25.1903 94.3213 26.2856 95.0219C27.3808 95.7226 26.9701 97.3575 26.6279 98.0874C25.5326 100.54 21.8361 104.364 20.1248 105.97Z" fill="#F3CEA0"/>
<path d="M80.306 107.179L80.306 110.002H86.01L86.01 107.792C87.5942 106.075 87.8436 104.42 87.7702 103.807V96.4494C87.7702 96.0407 87.5942 95.2232 86.8901 95.2232C86.186 95.2232 86.01 96.0407 86.01 96.4494V99.2083C86.01 99.3105 85.966 99.5149 85.79 99.5149C85.614 99.5149 85.57 99.3105 85.57 99.2083V93.9971C85.57 93.5883 85.3939 92.7709 84.6898 92.7709C83.9857 92.7709 83.8097 93.5883 83.8097 93.9971V99.2083C83.8097 99.4536 83.663 99.5149 83.5897 99.5149C83.4137 99.5149 83.3697 99.3105 83.3697 99.2083V92.2477C83.3697 91.8389 83.1936 91.0215 82.4895 91.0215C81.7855 91.0215 81.6203 91.8389 81.6258 92.2477V99.2083C81.6258 99.3105 81.5818 99.5149 81.4057 99.5149C81.2297 99.5149 81.1857 99.3105 81.1857 99.2083V93.9971C81.1857 93.5883 81.0097 92.7709 80.306 92.7709C79.6022 92.7709 79.4257 93.5883 79.4255 93.9971V101.354C79.0734 101.845 78.692 101.558 78.5454 101.354C78.1054 100.537 77.0495 99.0244 76.3454 99.5149C75.6413 100.005 75.9054 101.15 76.1254 101.661C76.8295 103.377 79.2058 106.055 80.306 107.179Z" fill="#F3CEA0"/>
<g clip-path="url(#clip0_983_28939)">
<path d="M59.6953 29.4629L60.7996 29.2482L60.8712 29.6163C60.9107 29.8196 60.7779 30.0165 60.5746 30.056L60.2065 30.1276C60.0032 30.1671 59.8064 30.0343 59.7669 29.831L59.6953 29.4629Z" fill="#0E5195"/>
<path d="M67.0586 28.0312L68.1629 27.8166L68.2345 28.1847C68.274 28.388 68.1412 28.5848 67.9379 28.6244L67.5698 28.6959C67.3665 28.7354 67.1697 28.6027 67.1301 28.3994L67.0586 28.0312Z" fill="#0E5195"/>
<path d="M55.791 17.2324L67.2024 15.0143L69.4206 26.4257C69.5391 27.0356 69.1408 27.6261 68.5309 27.7447L59.3282 29.5335C58.7183 29.6521 58.1277 29.2537 58.0092 28.6438L55.791 17.2324Z" fill="url(#paint0_linear_983_28939)"/>
<path d="M64.4414 15.5527L67.2022 15.0161L69.4204 26.4275C69.5389 27.0374 69.1406 27.6279 68.5307 27.7465L66.8742 28.0685L64.4414 15.5527Z" fill="url(#paint1_linear_983_28939)"/>
<path d="M54.574 10.9754C54.4555 10.3655 54.8538 9.77499 55.4637 9.65643L64.6665 7.8676C65.2764 7.74905 65.8669 8.14737 65.9855 8.75727L67.2019 15.0151L55.7904 17.2333L54.574 10.9754Z" fill="url(#paint2_linear_983_28939)"/>
<path d="M63.0098 8.18945L64.6663 7.86746C65.2762 7.74891 65.8667 8.14723 65.9853 8.75713L67.2017 15.015L64.4408 15.5517L63.0098 8.18945Z" fill="url(#paint3_linear_983_28939)"/>
<path d="M56.2858 13.8891C56.266 13.7875 56.3324 13.6891 56.4341 13.6693L56.8022 13.5977C56.9038 13.578 57.0022 13.6444 57.022 13.746L57.3798 15.5866C57.3995 15.6882 57.3331 15.7867 57.2315 15.8064L56.8634 15.878C56.7617 15.8977 56.6633 15.8313 56.6435 15.7297L56.2858 13.8891Z" fill="white"/>
<path d="M57.1452 18.3071C57.1254 18.2055 57.1918 18.107 57.2934 18.0873L57.6615 18.0157C57.7632 17.996 57.8616 18.0623 57.8814 18.164L58.3822 20.7408C58.402 20.8424 58.3356 20.9408 58.234 20.9606L57.8659 21.0322C57.7642 21.0519 57.6658 20.9855 57.646 20.8839L57.1452 18.3071Z" fill="white"/>
</g>
<g clip-path="url(#clip1_983_28939)">
<path d="M79.386 26.3921C79.5234 25.7861 80.126 25.4063 80.7319 25.5437L94.629 28.6952C95.235 28.8326 95.6148 29.4352 95.4774 30.0412L91.3307 48.3269C91.1933 48.9328 90.5907 49.3126 89.9847 49.1752L76.0876 46.0237C75.4816 45.8863 75.1018 45.2837 75.2392 44.6778L79.386 26.3921Z" fill="#D9D9D9"/>
<path d="M79.386 26.3921C79.5234 25.7861 80.126 25.4063 80.7319 25.5437L94.629 28.6952C95.235 28.8326 95.6148 29.4352 95.4774 30.0412L94.731 33.3326L78.6396 29.6835L79.386 26.3921Z" fill="#C9C9C9"/>
<circle cx="93.0343" cy="30.6414" r="0.75" transform="rotate(12.7771 93.0343 30.6414)" fill="#3E3A3A"/>
<circle cx="85.0262" cy="38.8232" r="4.5" transform="rotate(12.7771 85.0262 38.8232)" fill="white"/>
<circle cx="85.0263" cy="38.8227" r="3.5625" transform="rotate(12.7771 85.0263 38.8227)" fill="#0862CC"/>
<path d="M85.8139 35.3491C83.8952 34.9139 81.9869 36.1167 81.5518 38.0355C81.5518 38.0355 83.4048 37.4944 85.0261 38.8233C86.6473 40.1523 88.5004 39.6112 88.5004 39.6112C88.9355 37.6924 87.7327 35.7842 85.8139 35.3491Z" fill="#2EB5E9"/>
<path d="M84.3409 28.2837C84.3867 28.0817 84.5876 27.9551 84.7895 28.0009L89.9095 29.162C90.1115 29.2078 90.2381 29.4087 90.1923 29.6106L90.0265 30.3421C89.9806 30.544 89.7798 30.6706 89.5778 30.6248L84.4578 29.4638C84.2558 29.418 84.1292 29.2171 84.175 29.0151L84.3409 28.2837Z" fill="#2DB5E8"/>
</g>
<defs>
<linearGradient id="paint0_linear_983_28939" x1="57.0074" y1="23.4903" x2="68.4188" y2="21.2721" gradientUnits="userSpaceOnUse">
<stop stop-color="#0072CB"/>
<stop offset="1" stop-color="#0363AE"/>
</linearGradient>
<linearGradient id="paint1_linear_983_28939" x1="65.5147" y1="21.0744" x2="68.2755" y2="20.5377" gradientUnits="userSpaceOnUse">
<stop stop-color="#0D5297"/>
<stop offset="1" stop-color="#115CA9"/>
</linearGradient>
<linearGradient id="paint2_linear_983_28939" x1="55.1465" y1="13.9203" x2="66.5579" y2="11.7022" gradientUnits="userSpaceOnUse">
<stop stop-color="#36BFF3"/>
<stop offset="1" stop-color="#23AADD"/>
</linearGradient>
<linearGradient id="paint3_linear_983_28939" x1="63.7253" y1="11.8706" x2="66.4861" y2="11.3339" gradientUnits="userSpaceOnUse">
<stop stop-color="#108AE3"/>
<stop offset="1" stop-color="#1999EB"/>
</linearGradient>
<clipPath id="clip0_983_28939">
<rect width="24" height="24" fill="white" transform="translate(48 9.58008) rotate(-11)"/>
</clipPath>
<clipPath id="clip1_983_28939">
<rect width="24" height="24" fill="white" transform="translate(76.3086 23.002) rotate(12.7771)"/>
</clipPath>
</defs>
</svg>

