<svg width="56" height="52" viewBox="0 0 56 52" fill="none" xmlns="http://www.w3.org/2000/svg">
<path d="M31.2244 28.3188C27.665 11.113 36.6624 6.27053 41.6061 6H42.3939C42.7091 6 42.7879 11.8667 42.7879 14.8L41.6061 15.4V32.3768L31.5954 34L29 30.3478C30.4831 29.5362 31.2245 29.1304 31.2244 28.3188Z" fill="#28303F"/>
<path d="M52.7756 28.3188C56.335 11.113 47.3376 6.27053 42.3939 6V32.3768L52.4046 34L55 30.3478C53.5169 29.5362 52.7755 29.1304 52.7756 28.3188Z" fill="#28303F"/>
<path d="M28.8984 41.0889C28.8984 33.759 36.145 31.6357 39.7682 31.4902H42.8118L43.2466 51.9965H29.768C29.0724 51.9965 28.8984 51.4148 28.8984 51.1239V41.0889Z" fill="#A9D6FF"/>
<path d="M56.0005 41.0889C56.0005 33.759 49.1565 31.6357 45.7345 31.4902H42.8601L42.4495 51.9965H55.1792C55.8362 51.9965 56.0005 51.4148 56.0005 51.1239V41.0889Z" fill="#A9D6FF"/>
<path d="M32.7695 41.1322C32.7695 40.7313 33.0945 40.4062 33.4955 40.4062C33.8964 40.4062 34.2214 40.7313 34.2214 41.1322V51.9968H32.7695V41.1322Z" fill="#18A0FB"/>
<path d="M51.1602 41.1322C51.1602 40.7313 51.4852 40.4062 51.8861 40.4062C52.287 40.4062 52.6121 40.7313 52.6121 41.1322V51.9968H51.1602V41.1322Z" fill="#18A0FB"/>
<path d="M42.3893 34.0207C39.2447 34.0207 39.0409 31.3519 39.3321 30.0176H42.3893V34.0207Z" fill="#E8BA8C"/>
<path d="M42.3893 34.0207C45.5339 34.0207 45.7377 31.3519 45.4465 30.0176H42.3893V34.0207Z" fill="#E8BA8C"/>
<path d="M38.4719 16.4046C37.1439 16.7242 35.733 16.89 34.2936 16.8033V20.0025C33.1868 20.1358 31.0562 20.8823 31.3882 22.8019C31.3885 23.4684 31.9699 24.8814 34.2936 25.2013C35.1692 27.0096 36.7459 30.3878 40.4183 30.7809L41.3956 30.8C41.5982 30.8151 41.798 30.8207 41.9948 30.8177C42.1916 30.8207 42.3913 30.8151 42.594 30.8L43.9654 30.7809C47.6378 30.3878 48.8203 27.0096 49.6959 25.2013C52.0197 24.8814 52.6011 23.4684 52.6013 22.8019C52.9333 20.8823 50.8027 20.1358 49.6959 20.0025V16.8033C46.3301 14.8061 45.5419 13.2049 45.1477 12.4043C44.7536 13.2049 43.9426 14.248 41.9948 15.1575C40.4183 16.0071 38.4477 16.4074 38.4477 16.4074L38.4719 16.4046Z" fill="#F3CEA0"/>
<path d="M34.5065 23.6143C33.1785 23.9339 32.5359 23.2244 32.5359 22.4134C32.4978 21.3819 32.8823 21.1376 34.2936 20.0039C33.1868 20.1372 31.0562 20.8837 31.3882 22.8033C31.3885 23.4698 31.9699 24.8828 34.2936 25.2027C35.1692 27.011 36.7459 30.3892 40.4183 30.7823L41.9948 30.8201C42.1974 30.8351 42.1921 29.6222 42.3889 29.6191C40.1591 29.6191 38.0628 28.5401 36.7442 26.7138L34.5065 23.6143Z" fill="#EBC498"/>
<path d="M49.4831 23.6143C50.8111 23.9339 51.4537 23.2244 51.4537 22.4134C51.4917 21.3819 51.1073 21.1376 49.6959 20.0039C50.8027 20.1372 52.9333 20.8837 52.6013 22.8033C52.6011 23.4698 52.0197 24.8828 49.6959 25.2027C48.8203 27.011 47.5125 30.8201 43.5713 30.7823L41.2065 30.8201C41.0039 30.8351 41.7975 29.6222 41.6007 29.6191C43.8304 29.6191 45.9268 28.5401 47.2453 26.7138L49.4831 23.6143Z" fill="#EBC498"/>
<path d="M44.3105 25.25H39.8683C39.2104 25.25 38.9159 26.0755 39.4253 26.4919L40.9145 27.7095C41.6897 28.3433 42.8142 28.3061 43.5459 27.6225L44.7884 26.4615C45.2525 26.0278 44.9456 25.25 44.3105 25.25Z" fill="#970F0F"/>
<path d="M39.7229 20.3792C39.7229 21.3101 38.7419 20.3792 37.9054 20.3792C37.0689 20.3792 36.0879 21.3101 36.0879 20.3792C36.0879 19.4483 37.0689 19.0098 37.9054 19.0098C38.7419 19.0098 39.7229 19.4483 39.7229 20.3792Z" fill="#28303F"/>
<path d="M47.9026 20.3792C47.9026 21.3101 46.9215 20.3792 46.0851 20.3792C45.2486 20.3792 44.2676 21.3101 44.2676 20.3792C44.2676 19.4483 45.2486 19.0098 46.0851 19.0098C46.9215 19.0098 47.9026 19.4483 47.9026 20.3792Z" fill="#28303F"/>
<path d="M0 40.3639C0 32.5451 8.81228 30.2801 13.2184 30.125H16.9196L17.4483 51.9989H1.05747C0.211495 51.9989 0 51.3784 0 51.0681V40.3639Z" fill="#FFA41B"/>
<path d="M32.9579 40.3639C32.9579 32.5451 24.6352 30.2801 20.4739 30.125H16.9783L16.479 51.9989H31.9592C32.7582 51.9989 32.9579 51.3784 32.9579 51.0681V40.3639Z" fill="#FFA41B"/>
<path d="M6.78516 40.3618C6.78516 39.9603 7.11065 39.6348 7.51217 39.6348C7.91369 39.6348 8.23918 39.9603 8.23918 40.3618V51.9983H6.78516V40.3618Z" fill="#C57600"/>
<path d="M25.2031 40.3618C25.2031 39.9603 25.5286 39.6348 25.9301 39.6348C26.3317 39.6348 26.6572 39.9603 26.6572 40.3618V51.9983H25.2031V40.3618Z" fill="#C57600"/>
<path d="M3.87683 3.0205C15.1213 -3.06616 20.5173 1.43543 21.8098 4.44706C31.1152 4.44706 30.211 14.2743 28.5957 19.188L22.7796 16.3349L4.36151 18.2369C-1.06686 9.48736 1.77657 4.44699 3.87683 3.0205Z" fill="#351509"/>
<path d="M16.479 33.929C12.6119 33.929 12.3613 30.7589 12.7193 29.1738H16.479V33.929Z" fill="#E8BA8C"/>
<path d="M16.479 33.929C20.346 33.929 20.5967 30.7589 20.2386 29.1738H16.479V33.929Z" fill="#E8BA8C"/>
<path d="M11.6621 13.0019C10.029 13.3815 8.29389 13.5784 6.52382 13.4755V17.2758C5.16271 17.4342 2.54258 18.3209 2.95091 20.6011C2.95119 21.3929 3.66617 23.0714 6.52382 23.4514C7.60062 25.5994 9.53952 29.6123 14.0557 30.0792L15.2576 30.102C15.5068 30.1198 15.7524 30.1266 15.9944 30.123C16.2365 30.1266 16.4821 30.1198 16.7313 30.102L18.4178 30.0792C22.934 29.6123 24.3882 25.5994 25.465 23.4514C28.3227 23.0714 29.0377 21.3929 29.038 20.6011C29.4463 18.3209 26.8262 17.4342 25.465 17.2758V13.4755C21.3259 11.1031 20.3565 9.20104 19.8718 8.25C19.3872 9.20104 18.3898 10.4401 15.9944 11.5204C14.0557 12.5297 11.6324 13.0052 11.6324 13.0052L11.6621 13.0019Z" fill="#F3CEA0"/>
<path d="M6.78561 21.5641C5.15247 21.9438 4.36223 21.101 4.36223 20.1376C4.31545 18.9123 4.78821 18.6221 6.52382 17.2754C5.16271 17.4337 2.54258 18.3205 2.95091 20.6007C2.95119 21.3924 3.66617 23.0709 6.52382 23.451C7.60062 25.599 9.53952 29.6119 14.0557 30.0788L15.9944 30.1237C16.2436 30.1416 16.2371 28.7008 16.4791 28.6972C13.737 28.6972 11.159 27.4154 9.53751 25.246L6.78561 21.5641Z" fill="#EBC498"/>
<path d="M25.2033 21.5641C26.8364 21.9438 27.6266 21.101 27.6266 20.1376C27.6734 18.9123 27.2007 18.6221 25.465 17.2754C26.8262 17.4337 29.4463 18.3205 29.038 20.6007C29.0377 21.3924 28.3227 23.0709 25.465 23.451C24.3882 25.599 22.7799 30.1237 17.9331 30.0788L15.0251 30.1237C14.7759 30.1416 15.7518 28.7008 15.5098 28.6972C18.2518 28.6972 20.8298 27.4154 22.4514 25.246L25.2033 21.5641Z" fill="#EBC498"/>
<path d="M15.7686 21.6141C14.1008 21.3819 11.2978 21.852 11.6657 25.4615C12.4294 25.7611 14.261 25.9191 15.7686 24.3299C17.2763 25.9191 19.1079 25.7611 19.8716 25.4615C20.2395 21.852 17.4365 21.3819 15.7686 21.6141Z" fill="#351509"/>
<path d="M13.5708 18.2713C13.5708 19.2643 12.5243 18.2713 11.6321 18.2713C10.7398 18.2713 9.69336 19.2643 9.69336 18.2713C9.69336 17.2784 10.7398 16.8105 11.6321 16.8105C12.5243 16.8105 13.5708 17.2784 13.5708 18.2713Z" fill="#351509"/>
<path d="M22.2954 18.2713C22.2954 19.2643 21.2489 18.2713 20.3567 18.2713C19.4644 18.2713 18.418 19.2643 18.418 18.2713C18.418 17.2784 19.4644 16.8105 20.3567 16.8105C21.2489 16.8105 22.2954 17.2784 22.2954 18.2713Z" fill="#351509"/>
</svg>
