<svg width="24" height="24" viewBox="0 0 24 24" fill="none" xmlns="http://www.w3.org/2000/svg">
<path d="M10.9474 2C6.00587 2 2 4.86311 2 8.39493C2 10.1202 2.95588 11.6858 4.50975 12.8362C4.31192 13.5194 3.8837 14.3155 3.03251 15.006C2.12464 15.7425 5.86081 15.1059 7.77262 14.3756C8.75927 14.6433 9.82937 14.7899 10.9474 14.7899C15.8889 14.7899 19.8947 11.9267 19.8947 8.39493C19.8947 4.86311 15.8889 2 10.9474 2Z" stroke="#1F1F1F" stroke-width="1.5" stroke-linecap="round" stroke-linejoin="round"/>
<path d="M20.6614 13.8066C21.5612 14.6087 22 15.6376 22 16.7971C22 18.0911 21.2128 19.2653 19.9331 20.1281C20.0961 20.6405 20.4487 21.2376 21.1497 21.7554C21.8974 22.3078 18.8205 21.8304 17.2461 21.2826C16.4335 21.4834 15.5523 21.5933 14.6316 21.5933C11.2007 21.5933 8.32038 19.5673 7.5 17.501" stroke="#1F1F1F" stroke-width="1.5" stroke-linecap="round"/>
<path d="M12.0262 6.44509C12.0262 6.8084 11.7536 7.05619 11.4735 7.05619C11.1934 7.05619 10.9209 6.8084 10.9209 6.44509C10.9209 6.08177 11.1934 5.83398 11.4735 5.83398C11.7536 5.83398 12.0262 6.08177 12.0262 6.44509Z" fill="#1F1F1F" stroke="#1F1F1F"/>
<path d="M7.81571 6.44509C7.81571 6.8084 7.54317 7.05619 7.26308 7.05619C6.983 7.05619 6.71045 6.8084 6.71045 6.44509C6.71045 6.08177 6.983 5.83398 7.26308 5.83398C7.54317 5.83398 7.81571 6.08177 7.81571 6.44509Z" fill="#1F1F1F" stroke="#1F1F1F"/>
<path d="M8.31592 9.77712L9.36855 8.66602L10.4212 9.77712" stroke="black" stroke-width="1.4" stroke-linecap="round" stroke-linejoin="round"/>
</svg>
