<svg width="56" height="48" viewBox="0 0 56 48" fill="none" xmlns="http://www.w3.org/2000/svg">
<path d="M11.0703 38.0809C11.0703 36.0329 12.5897 33.8143 13.3494 32.9609H42.6517L46.2331 38.0809L48.1866 40.9609L48.8377 43.8409L47.2098 46.7209H13.0238L11.0703 38.0809Z" fill="#F3AD66"/>
<path d="M51.7638 34.34C53.6302 31.4986 45.6887 33.2707 42.9766 33.6984C44.2784 34.9814 45.6622 36.079 47.2075 36.5855C49.8138 37.4398 50.6842 35.9836 51.7638 34.34Z" fill="#F59300"/>
<path d="M13.9993 38.08C11.7212 35.5137 12.0466 33.2816 13.6739 32.64C16.6061 34.2118 24.8087 38.976 27.6738 37.44C30.5389 35.904 39.9429 32.8265 43.9528 32C40.0474 47.3975 17.6427 42.184 13.9993 38.08Z" fill="#FFA41B"/>
<mask id="mask0_380_20185" style="mask-type:alpha" maskUnits="userSpaceOnUse" x="12" y="32" width="32" height="11">
<path d="M13.9993 38.08C11.7212 35.5137 12.0466 33.2816 13.6739 32.64C16.6061 34.2118 24.8087 38.976 27.6738 37.44C30.5389 35.904 39.9429 32.8265 43.9528 32C40.0474 47.3975 17.6427 42.184 13.9993 38.08Z" fill="#A5A5A5"/>
</mask>
<g mask="url(#mask0_380_20185)">
<ellipse cx="22.1389" cy="36.7979" rx="0.976744" ry="0.959998" fill="white"/>
<ellipse cx="29.9523" cy="39.3584" rx="0.976744" ry="0.959998" fill="white"/>
<ellipse cx="15.6271" cy="34.2393" rx="0.976744" ry="0.959998" fill="white"/>
<ellipse cx="25.3947" cy="39.9991" rx="0.976744" ry="0.959998" fill="white"/>
<ellipse cx="17.5803" cy="37.4385" rx="0.976744" ry="0.959998" fill="white"/>
<ellipse cx="28.6506" cy="42.5596" rx="0.976744" ry="0.959998" fill="white"/>
<ellipse cx="20.1848" cy="40.6397" rx="0.976744" ry="0.959998" fill="white"/>
<ellipse cx="32.5568" cy="36.1592" rx="0.976744" ry="0.959998" fill="white"/>
<ellipse cx="35.8127" cy="38.7198" rx="0.976744" ry="0.959998" fill="white"/>
<ellipse cx="33.8596" cy="41.2803" rx="0.976744" ry="0.959998" fill="white"/>
<ellipse cx="37.1154" cy="34.2393" rx="0.976744" ry="0.959998" fill="white"/>
<ellipse cx="42.3244" cy="34.8799" rx="0.976744" ry="0.959998" fill="white"/>
<ellipse cx="39.7199" cy="37.4385" rx="0.976744" ry="0.959998" fill="white"/>
</g>
<path d="M28.1627 2.69222C25.559 -2.18365 25.1251 0.660606 25.2336 2.69222C22.5215 2.58527 16.5115 3.07711 14.1682 5.89998C12.9749 5.68612 9.87225 6.99063 7.00825 13.9195C6.14037 15.4165 3.75371 18.4746 1.15008 18.7312C-0.932826 20.2709 0.282203 22.1528 1.15008 22.9013C2.77735 25.3607 7.00825 28.6754 7.65916 29.3169C8.31007 29.9585 8.37516 31.4983 9.93734 31.2416C10.8052 31.8832 12.6712 33.1021 13.1919 32.8455C13.8428 32.5247 18.0736 40.2235 28.1627 38.9404C38.2517 40.2235 42.1572 32.5247 42.8081 32.8455C43.3288 33.1022 45.1948 31.8832 46.0626 31.2416C47.6248 31.4983 47.6899 29.9585 48.3408 29.3169C48.9917 28.6754 53.2226 25.3607 54.8499 22.9013C55.7178 22.1528 56.9328 20.2709 54.8499 18.7312C52.2463 18.4746 49.8596 15.4165 48.9917 13.9195C46.1277 6.99063 43.0251 5.68612 41.8317 5.89998C39.4885 3.07711 33.4784 2.58527 30.7663 2.69222C30.5059 0.382629 28.9221 1.72989 28.1627 2.69222Z" fill="#FAC174"/>
<path d="M48.9921 13.9197C46.1281 6.99089 43.0255 5.68638 41.8321 5.90024C38.4474 18.8123 43.2424 28.1747 46.063 31.2419C47.6252 31.4985 47.6903 29.9588 48.3412 29.3172C48.9921 28.6756 53.223 25.3609 54.8503 22.9016C55.7182 22.1531 56.9332 20.2712 54.8503 18.7315C52.2466 18.4748 49.86 15.4167 48.9921 13.9197Z" fill="#F3AD66"/>
<path d="M7.00825 13.9197C9.87225 6.99089 12.9749 5.68638 14.1682 5.90024C17.553 18.8123 12.7579 28.1747 9.93734 31.2419C8.37516 31.4985 8.31007 29.9588 7.65916 29.3172C7.00825 28.6756 2.77735 25.3609 1.15008 22.9016C0.282203 22.1531 -0.932826 20.2712 1.15008 18.7315C3.75371 18.4748 6.14037 15.4167 7.00825 13.9197Z" fill="#F3AD66"/>
<path d="M22.3049 19.6932C22.3049 21.1105 21.1392 21.2971 19.7013 21.2971C18.2633 21.2971 17.0977 21.1105 17.0977 19.6932C17.0977 18.2759 18.2633 17.127 19.7013 17.127C21.1392 17.127 22.3049 18.2759 22.3049 19.6932Z" fill="#441200"/>
<path d="M38.5774 19.6932C38.5774 21.1105 37.4117 21.2971 35.9738 21.2971C34.5358 21.2971 33.3701 21.1105 33.3701 19.6932C33.3701 18.2759 34.5358 17.127 35.9738 17.127C37.4117 17.127 38.5774 18.2759 38.5774 19.6932Z" fill="#441200"/>
<path d="M29.1124 28.1381C28.4329 28.8533 27.2417 28.8533 26.5621 28.1381L25.3454 26.8573C24.3626 25.8228 25.1444 24.1836 26.6205 24.1836L29.0541 24.1836C30.5302 24.1836 31.312 25.8228 30.3292 26.8573L29.1124 28.1381Z" fill="#3C1826"/>
<path d="M27.8369 28.6758V30.6005" stroke="#32071A" stroke-width="1.2" stroke-linecap="round" stroke-linejoin="round"/>
<path d="M18.5557 28.0332C17.9048 30.4925 18.9751 34.4488 27.8274 30.5994C36.6798 34.4488 37.9166 30.4925 37.2657 28.0332" stroke="#32071A" stroke-width="1.2" stroke-linecap="round" stroke-linejoin="round"/>
<path d="M8.36847 39.0616C9.31552 37.8948 12.3146 38.3809 13.6958 38.7699C19.0231 41.3952 19.3191 44.0207 18.1352 46.3544C17.1882 48.2214 15.3729 47.7158 14.5837 47.2296C12.9263 48.8632 11.7227 47.5213 11.3281 46.6462C9.67071 48.5131 7.87521 47.4241 7.18463 46.6462C6.47432 47.5796 5.31019 46.8406 4.81692 46.3544C2.44919 43.1456 7.18462 40.5201 8.36847 39.0616Z" fill="#FAC174"/>
<path d="M15.1761 44.3125C15.2748 45.0904 15.2946 46.7629 14.584 47.2296" stroke="#28303F" stroke-width="0.9" stroke-linecap="round" stroke-linejoin="round"/>
<path d="M11.3281 44.0215V46.6469" stroke="#28303F" stroke-width="0.9" stroke-linecap="round" stroke-linejoin="round"/>
<path d="M7.18442 44.0215C6.98703 44.5077 6.71069 45.7134 7.18442 46.6469" stroke="#28303F" stroke-width="0.9" stroke-linecap="round" stroke-linejoin="round"/>
<path d="M46.8024 39.0616C45.8554 37.8948 42.8563 38.3809 41.4751 38.7699C36.1478 41.3952 35.8518 44.0207 37.0357 46.3544C37.9827 48.2214 39.798 47.7158 40.5872 47.2296C42.2446 48.8632 43.4482 47.5213 43.8428 46.6462C45.5002 48.5131 47.2957 47.4241 47.9863 46.6462C48.6966 47.5796 49.8607 46.8406 50.354 46.3544C52.7217 43.1456 47.9863 40.5201 46.8024 39.0616Z" fill="#FAC174"/>
<path d="M39.9948 44.3125C39.8961 45.0904 39.8763 46.7629 40.5869 47.2296" stroke="#28303F" stroke-width="0.9" stroke-linecap="round" stroke-linejoin="round"/>
<path d="M43.8428 44.0215V46.6469" stroke="#28303F" stroke-width="0.9" stroke-linecap="round" stroke-linejoin="round"/>
<path d="M47.9865 44.0215C48.1839 44.5077 48.4602 45.7134 47.9865 46.6469" stroke="#28303F" stroke-width="0.9" stroke-linecap="round" stroke-linejoin="round"/>
<ellipse cx="20.1863" cy="18.5599" rx="0.651163" ry="0.639999" fill="white"/>
<ellipse cx="35.1629" cy="18.5599" rx="0.651163" ry="0.639999" fill="white"/>
<path d="M44.9293 40.3365C43.3671 40.0798 42.9766 35.5248 42.9766 33.2793L45.9088 36.0886C46.5413 36.6946 46.8937 37.536 46.882 38.4118C46.882 39.1603 46.4915 40.5931 44.9293 40.3365Z" fill="#F59300"/>
</svg>

