<svg width="24" height="24" viewBox="0 0 24 24" fill="none" xmlns="http://www.w3.org/2000/svg">
<path d="M8 10.7172H16M12 6.61498V14.8194M5 2H19C20.1046 2 21 2.91831 21 4.0511V19.9471C21 21.3166 19.7231 22.2863 18.4636 21.9233C18.3687 21.896 18.2791 21.8532 18.1925 21.8057L13.9237 19.4641C12.7255 18.8068 11.2745 18.8068 10.0763 19.4641L5.80748 21.8057C5.7209 21.8532 5.63128 21.896 5.5364 21.9233C4.27691 22.2863 3 21.3166 3 19.9471L3 4.0511C3 2.91831 3.89543 2 5 2Z" stroke="#1F1F1F" stroke-width="1.5" stroke-linecap="round"/>
</svg>
