<svg width="242" height="207" viewBox="0 0 242 207" fill="none" xmlns="http://www.w3.org/2000/svg">
<rect width="13.6389" height="3.29955" transform="matrix(0.990218 -0.139533 0.138814 0.990318 209.805 22.9141)" fill="#FFBEBB"/>
<rect width="4.70194" height="6.87638" transform="matrix(0.668158 -0.74402 0.742269 0.670103 52.4062 17.5332)" fill="#FF7272" fill-opacity="0.45"/>
<rect width="11.8798" height="6.86881" transform="matrix(0.173206 -0.984886 0.984729 0.174092 25.5781 189.693)" fill="#FF7272" fill-opacity="0.35"/>
<rect width="15.4299" height="3.29906" transform="matrix(0.961069 0.276308 -0.274968 0.961453 16.6348 6.77441)" fill="#70C8FF" fill-opacity="0.45"/>
<rect width="20.8329" height="3.29335" transform="matrix(0.514043 -0.857765 0.856568 0.516034 170.455 126.927)" fill="#70FF73" fill-opacity="0.65"/>
<rect width="4.70703" height="6.86893" transform="matrix(-0.190326 -0.981721 0.981533 -0.191293 38.0977 101.82)" fill="#FFE070"/>
<rect width="11.8497" height="5.09298" transform="matrix(-0.997551 0.0699394 -0.069574 -0.997577 170.455 128.72)" fill="#FF7272" fill-opacity="0.75"/>
<rect width="10.0737" height="6.87764" transform="matrix(-0.718426 0.695604 -0.693712 -0.720253 242 12.1543)" fill="#70FF73"/>
<rect width="4.69593" height="3.29914" transform="matrix(-0.965755 0.259455 -0.258184 -0.966096 27.3662 3.1875)" fill="#FF7272"/>
<rect width="4.70475" height="5.08261" transform="matrix(0.468509 0.883459 -0.882435 0.470435 13.0576 200.453)" fill="#70C8FF" fill-opacity="0.9"/>
<rect width="10.0621" height="6.88558" transform="matrix(-0.978036 0.208436 -0.207389 -0.978259 11.2695 169.967)" fill="#70FF73" fill-opacity="0.6"/>
<rect width="11.8739" height="5.08261" transform="matrix(-0.468509 -0.883459 0.882435 -0.470435 197.285 135.894)" fill="#FFE070" fill-opacity="0.35"/>
<rect width="4.6998" height="6.87951" transform="matrix(0.787224 -0.616667 0.614655 0.788796 39.8867 82.0938)" fill="#FF7272" fill-opacity="0.35"/>
<rect width="17.2466" height="6.87393" transform="matrix(0.558182 -0.829719 0.828354 0.560204 120.375 39.0537)" fill="#70C8FF" fill-opacity="0.9"/>
<ellipse cx="186.509" cy="112.5" rx="3.98949" ry="3.5" fill="#70FF73" fill-opacity="0.9"/>
<ellipse cx="210.944" cy="127" rx="3.4908" ry="4" fill="#FF7272" fill-opacity="0.85"/>
<ellipse cx="204.96" cy="82.5" rx="2.49343" ry="2.5" fill="#70FF73" fill-opacity="0.45"/>
<ellipse cx="23.4384" cy="94.5" rx="1.49606" ry="1.5" fill="#70FF73" fill-opacity="0.85"/>
<ellipse cx="189.001" cy="50.5" rx="2.49343" ry="2.5" fill="#FFE070" fill-opacity="0.85"/>
<ellipse cx="137.139" cy="195.5" rx="4.48817" ry="4.5" fill="#70FF73" fill-opacity="0.45"/>
<ellipse cx="219.421" cy="176" rx="3.98949" ry="4" fill="#FF7272" fill-opacity="0.65"/>
<ellipse cx="211.442" cy="195" rx="4.98686" ry="5" fill="#70FF73" fill-opacity="0.85"/>
<ellipse cx="133.648" cy="88.5" rx="3.98949" ry="4.5" fill="#FF7272" fill-opacity="0.75"/>
<ellipse cx="206.954" cy="192.5" rx="2.49343" ry="2.5" fill="#70C8FF" fill-opacity="0.9"/>
<ellipse cx="28.4247" cy="97.5" rx="4.48817" ry="4.5" fill="#FFE070" fill-opacity="0.65"/>
<ellipse cx="31.4173" cy="99" rx="2.49343" ry="3" fill="#70FF73" fill-opacity="0.35"/>
<ellipse cx="73.3072" cy="56.5" rx="3.4908" ry="3.5" fill="#FFE070" fill-opacity="0.6"/>
<ellipse cx="90.064" cy="130.387" rx="70.064" ry="68.6133" fill="#FFD93D"/>
<ellipse cx="176.504" cy="63.5541" rx="45.4961" ry="44.5541" fill="#FFA41B"/>
<path d="M34.5557 164.006C34.5557 150.072 50.5926 146.035 58.6111 145.759H65.3467L66.3089 184.742H36.4801C34.9406 184.742 34.5557 183.636 34.5557 183.083V164.006Z" fill="#FFA41B"/>
<path d="M94.534 164.006C94.534 150.072 79.3879 146.035 71.8149 145.759H65.4536L64.5448 184.742H92.7164C94.1705 184.742 94.534 183.636 94.534 183.083V164.006Z" fill="#FFA41B"/>
<path d="M46.9023 164.029C46.9023 163.298 47.4947 162.706 48.2254 162.706C48.9561 162.706 49.5484 163.298 49.5484 164.029V184.74H46.9023V164.029Z" fill="#C57600"/>
<path d="M80.4199 164.029C80.4199 163.298 81.0123 162.706 81.743 162.706C82.4737 162.706 83.066 163.298 83.066 164.029V184.74H80.4199V164.029Z" fill="#C57600"/>
<path d="M41.6148 97.4524C62.078 86.6049 71.898 94.6275 74.25 99.9947C91.1845 99.9947 89.5389 117.509 86.5993 126.265L76.0149 121.181L42.4968 124.571C32.6181 108.977 37.7926 99.9946 41.6148 97.4524Z" fill="#351509"/>
<path d="M64.5485 152.533C57.511 152.533 57.0549 146.883 57.7065 144.059H64.5485V152.533Z" fill="#E8BA8C"/>
<path d="M64.5485 152.533C71.5859 152.533 72.0421 146.883 71.3904 144.059H64.5485V152.533Z" fill="#E8BA8C"/>
<path d="M55.7823 115.242C52.8103 115.919 49.6527 116.27 46.4314 116.086V122.859C43.9544 123.141 39.1862 124.721 39.9293 128.785C39.9298 130.196 41.2309 133.188 46.4314 133.865C48.391 137.693 51.9195 144.845 60.1383 145.677L62.3255 145.717C62.779 145.749 63.226 145.761 63.6665 145.755C64.1069 145.761 64.554 145.749 65.0074 145.717L68.0766 145.677C76.2955 144.845 78.9419 137.693 80.9015 133.865C86.102 133.188 87.4032 130.196 87.4037 128.785C88.1468 124.721 83.3785 123.141 80.9015 122.859V116.086C73.3688 111.858 71.6048 108.468 70.7227 106.773C69.8407 108.468 68.0257 110.677 63.6665 112.602C60.1383 114.401 55.7282 115.248 55.7282 115.248L55.7823 115.242Z" fill="#F3CEA0"/>
<path d="M46.9078 130.503C43.9358 131.179 42.4977 129.677 42.4977 127.96C42.4125 125.777 43.2729 125.259 46.4314 122.859C43.9544 123.142 39.1862 124.722 39.9293 128.786C39.9298 130.197 41.2309 133.188 46.4314 133.865C48.391 137.693 51.9195 144.845 60.1383 145.677L63.6665 145.757C64.1199 145.789 64.1081 143.221 64.5485 143.215C59.5584 143.215 54.8668 140.931 51.9159 137.064L46.9078 130.503Z" fill="#EBC498"/>
<path d="M80.4251 130.503C83.3972 131.179 84.8353 129.677 84.8353 127.96C84.9204 125.777 84.0601 125.259 80.9015 122.859C83.3785 123.142 88.1468 124.722 87.4037 128.786C87.4032 130.197 86.102 133.188 80.9015 133.865C78.9419 137.693 76.0149 145.757 67.1946 145.677L61.9024 145.757C61.4489 145.789 63.2249 143.221 62.7844 143.215C67.7746 143.215 72.4662 140.931 75.4171 137.064L80.4251 130.503Z" fill="#EBC498"/>
<path d="M63.2531 130.592C60.2179 130.179 55.1169 131.016 55.7865 137.449C57.1762 137.983 60.5095 138.265 63.2531 135.432C65.9968 138.265 69.33 137.983 70.7198 137.449C71.3894 131.016 66.2884 130.179 63.2531 130.592Z" fill="#351509"/>
<path d="M59.2535 124.636C59.2535 126.405 57.3492 124.636 55.7254 124.636C54.1016 124.636 52.1973 126.405 52.1973 124.636C52.1973 122.866 54.1016 122.032 55.7254 122.032C57.3492 122.032 59.2535 122.866 59.2535 124.636Z" fill="#351509"/>
<path d="M75.1363 124.636C75.1363 126.405 73.232 124.636 71.6082 124.636C69.9844 124.636 68.0801 126.405 68.0801 124.636C68.0801 122.866 69.9844 122.032 71.6082 122.032C73.232 122.032 75.1363 122.866 75.1363 124.636Z" fill="#351509"/>
<path d="M45.1131 179.632L45.1131 184.744H32.8935L32.8935 180.742C29.4997 177.633 28.9655 174.636 29.1226 173.526V160.203C29.1226 159.463 29.4997 157.983 31.008 157.983C32.5164 157.983 32.8935 159.463 32.8935 160.203V165.199C32.8935 165.384 32.9878 165.754 33.3648 165.754C33.7419 165.754 33.8362 165.384 33.8362 165.199V155.762C33.8362 155.022 34.2133 153.542 35.7217 153.542C37.23 153.542 37.6071 155.022 37.6071 155.762V165.199C37.6071 165.643 37.9214 165.754 38.0785 165.754C38.4556 165.754 38.5498 165.384 38.5498 165.199L38.5498 153.102C38.5498 152.362 38.9269 150.882 40.4353 150.882C41.9436 150.882 42.2974 152.362 42.2858 153.102L42.2858 165.199C42.2858 165.384 42.38 165.754 42.7571 165.754C43.1342 165.754 43.2285 165.384 43.2285 165.199V155.762C43.2285 155.022 43.6054 153.542 45.1131 153.542C46.6209 153.542 46.9989 155.022 46.9994 155.762V169.085C47.7536 169.973 48.5706 169.455 48.8848 169.085C49.8273 167.605 52.0893 164.866 53.5977 165.754C55.106 166.642 54.5404 168.715 54.069 169.64C52.5607 172.748 47.47 177.596 45.1131 179.632Z" fill="#F3CEA0"/>
<path d="M167.999 89.0717C161.522 58.4082 177.896 49.778 186.892 49.2959H188.326C188.9 49.2959 189.043 59.7513 189.043 64.9789L186.892 66.0482V96.3037L168.674 99.1965L163.951 92.6877C166.65 91.2413 167.999 90.5181 167.999 89.0717Z" fill="#28303F"/>
<path d="M207.219 89.0717C213.697 58.4082 197.323 49.778 188.326 49.2959V96.3037L206.544 99.1965L211.267 92.6877C208.568 91.2413 207.219 90.5181 207.219 89.0717Z" fill="#28303F"/>
<path d="M163.773 111.833C163.773 98.7699 176.961 94.9858 183.555 94.7266H189.094L189.885 131.272H165.356C164.09 131.272 163.773 130.235 163.773 129.717V111.833Z" fill="#A9D6FF"/>
<path d="M213.095 111.833C213.095 98.7699 200.64 94.9858 194.413 94.7266H189.181L188.434 131.272H211.6C212.796 131.272 213.095 130.235 213.095 129.717V111.833Z" fill="#A9D6FF"/>
<path d="M170.818 111.936C170.818 111.207 171.41 110.615 172.139 110.615C172.869 110.615 173.461 111.207 173.461 111.936V131.271H170.818V111.936Z" fill="#18A0FB"/>
<path d="M204.283 111.936C204.283 111.207 204.875 110.615 205.604 110.615C206.334 110.615 206.925 111.207 206.925 111.936V131.271H204.283V111.936Z" fill="#18A0FB"/>
<path d="M188.32 99.2347C182.597 99.2347 182.226 94.4786 182.756 92.1006H188.32V99.2347Z" fill="#E8BA8C"/>
<path d="M188.32 99.2347C194.043 99.2347 194.413 94.4786 193.884 92.1006H188.32V99.2347Z" fill="#E8BA8C"/>
<path d="M181.193 67.8382C178.776 68.4077 176.208 68.7032 173.589 68.5487V74.2503C171.575 74.4879 167.697 75.8183 168.301 79.2392C168.302 80.4271 169.36 82.9453 173.589 83.5154C175.182 86.7381 178.052 92.7586 184.735 93.4591L186.513 93.4932C186.882 93.52 187.246 93.5301 187.604 93.5247C187.962 93.5301 188.325 93.52 188.694 93.4932L191.19 93.4591C197.873 92.7586 200.025 86.7381 201.619 83.5154C205.848 82.9453 206.906 80.4271 206.906 79.2392C207.51 75.8183 203.633 74.4879 201.619 74.2503V68.5487C195.493 64.9895 194.059 62.1358 193.342 60.709C192.624 62.1358 191.148 63.9948 187.604 65.6156C184.735 67.1297 181.149 67.8431 181.149 67.8431L181.193 67.8382Z" fill="#F3CEA0"/>
<path d="M173.976 80.6853C171.559 81.2549 170.39 79.9905 170.39 78.5451C170.321 76.7068 171.02 76.2714 173.589 74.251C171.575 74.4885 167.697 75.8189 168.301 79.2399C168.302 80.4277 169.36 82.9459 173.589 83.5161C175.182 86.7388 178.052 92.7593 184.735 93.4598L187.604 93.5272C187.972 93.5539 187.963 91.3923 188.321 91.3869C184.263 91.3869 180.448 89.4639 178.049 86.2091L173.976 80.6853Z" fill="#EBC498"/>
<path d="M201.231 80.6853C203.648 81.2549 204.817 79.9905 204.817 78.5451C204.887 76.7068 204.187 76.2714 201.619 74.251C203.633 74.4885 207.51 75.8189 206.906 79.2399C206.906 80.4277 205.848 82.9459 201.619 83.5161C200.025 86.7388 197.645 93.5272 190.473 93.4598L186.169 93.5272C185.801 93.5539 187.245 91.3923 186.886 91.3869C190.944 91.3869 194.759 89.4639 197.159 86.2091L201.231 80.6853Z" fill="#EBC498"/>
<path d="M191.805 83.6064H183.754C182.563 83.6064 182.037 85.1058 182.966 85.85L185.696 88.0356C187.081 89.1445 189.067 89.079 190.376 87.8813L192.655 85.796C193.503 85.0199 192.954 83.6064 191.805 83.6064Z" fill="#970F0F"/>
<path d="M183.471 74.922C183.471 76.581 181.685 74.922 180.163 74.922C178.641 74.922 176.855 76.581 176.855 74.922C176.855 73.2631 178.641 72.4814 180.163 72.4814C181.685 72.4814 183.471 73.2631 183.471 74.922Z" fill="#28303F"/>
<path d="M198.357 74.922C198.357 76.581 196.572 74.922 195.05 74.922C193.527 74.922 191.742 76.581 191.742 74.922C191.742 73.2631 193.527 72.4814 195.05 72.4814C196.572 72.4814 198.357 73.2631 198.357 74.922Z" fill="#28303F"/>
<path d="M204.615 127.697L204.615 131.276H212.47L212.47 128.474C214.652 126.298 214.995 124.2 214.894 123.423V114.097C214.894 113.579 214.652 112.543 213.682 112.543C212.713 112.543 212.47 113.579 212.47 114.097V117.594C212.47 117.724 212.41 117.983 212.167 117.983C211.925 117.983 211.864 117.724 211.864 117.594V110.989C211.864 110.47 211.622 109.434 210.652 109.434C209.682 109.434 209.44 110.47 209.44 110.989V117.594C209.44 117.905 209.238 117.983 209.137 117.983C208.894 117.983 208.834 117.724 208.834 117.594V108.771C208.834 108.253 208.591 107.217 207.622 107.217C206.652 107.217 206.425 108.253 206.432 108.771V117.594C206.432 117.724 206.372 117.983 206.129 117.983C205.887 117.983 205.826 117.724 205.826 117.594V110.989C205.826 110.47 205.584 109.434 204.615 109.434C203.645 109.434 203.402 110.47 203.402 110.989V120.314C202.917 120.936 202.392 120.573 202.19 120.314C201.584 119.278 200.13 117.361 199.16 117.983C198.191 118.605 198.554 120.055 198.857 120.703C199.827 122.879 203.1 126.272 204.615 127.697Z" fill="#F3CEA0"/>
<path d="M105.609 175.656C109.351 173.177 115.9 166.977 112.158 162.018C108.728 163.464 102.616 168.217 105.609 175.656Z" fill="#F59300"/>
<path d="M152.332 175.654C148.59 173.175 142.041 166.975 145.783 162.016C149.213 163.462 155.325 168.215 152.332 175.654Z" fill="#F59300"/>
<path d="M110.268 175.131C110.268 172.983 112.003 170.216 112.833 169.32H144.828C146.443 170.998 148.751 171.821 151.063 171.543L151.76 171.46L150.872 177.713L151.583 180.735L149.805 183.756H112.477L110.268 175.131Z" fill="#F3AD66"/>
<path d="M144.142 176.431C144.761 181.13 146.388 181.27 147.762 181.88C154.547 181.796 157.888 176.163 158.099 173.067C157.958 170.675 156.041 170.936 155.1 171.366C155.127 168.789 152.922 168.457 151.816 168.613C151.923 167.403 150.47 167.214 149.73 167.271C145.55 168.234 143.89 174.517 144.142 176.431Z" fill="#FAC174"/>
<path d="M152.966 174.984C154.237 176.93 152.079 179.174 149.852 180.01C149.088 180.297 148.322 180.376 147.594 179.947C146.865 179.518 146.591 178.827 146.509 178.042C146.273 175.757 147.374 172.89 149.755 173.095C150.373 173.148 151.003 173.341 151.587 173.685C152.17 174.028 152.636 174.48 152.966 174.984Z" fill="#3C1826"/>
<path d="M150.456 171.087C150.255 171.934 149.615 172.517 149.027 172.388C148.439 172.259 148.125 171.468 148.326 170.621C148.527 169.773 149.167 169.191 149.755 169.319C150.343 169.448 150.657 170.239 150.456 171.087Z" fill="#3C1826"/>
<path d="M153.882 171.956C153.44 172.715 152.654 173.099 152.128 172.816C151.603 172.532 151.535 171.688 151.977 170.93C152.42 170.172 153.205 169.787 153.731 170.071C154.257 170.354 154.325 171.198 153.882 171.956Z" fill="#3C1826"/>
<path d="M156.128 174.827C155.494 175.447 154.632 175.62 154.202 175.214C153.771 174.808 153.937 173.976 154.571 173.356C155.204 172.736 156.067 172.563 156.497 172.969C156.927 173.375 156.762 174.207 156.128 174.827Z" fill="#3C1826"/>
<path d="M129.009 137.565C126.166 132.449 125.692 135.433 125.81 137.565C122.849 137.453 116.287 137.969 113.728 140.93C112.425 140.706 109.037 142.074 105.91 149.343C104.963 150.914 102.357 154.122 99.5136 154.392C97.2393 156.007 98.566 157.981 99.5136 158.767C101.29 161.347 105.91 164.824 106.621 165.497C107.332 166.17 107.403 167.786 109.108 167.517C110.056 168.19 112.094 169.468 112.662 169.199C113.373 168.863 117.992 176.94 129.009 175.593C140.025 176.94 144.289 168.863 145 169.199C145.569 169.468 147.606 168.19 148.554 167.517C150.26 167.786 150.331 166.17 151.041 165.497C151.752 164.824 156.372 161.347 158.149 158.767C159.096 157.981 160.423 156.007 158.149 154.392C155.306 154.122 152.7 150.914 151.752 149.343C148.625 142.074 145.237 140.706 143.934 140.93C141.375 137.969 134.813 137.453 131.852 137.565C131.567 135.142 129.838 136.555 129.009 137.565Z" fill="#FAC174"/>
<path d="M151.749 149.342C148.622 142.073 145.234 140.704 143.931 140.929C140.236 154.475 145.471 164.297 148.551 167.515C150.257 167.784 150.328 166.169 151.039 165.496C151.749 164.823 156.369 161.345 158.146 158.765C159.094 157.98 160.42 156.006 158.146 154.39C155.303 154.121 152.697 150.913 151.749 149.342Z" fill="#F3AD66"/>
<path d="M105.908 149.342C109.035 142.073 112.423 140.704 113.726 140.929C117.422 154.475 112.186 164.297 109.106 167.515C107.401 167.784 107.33 166.169 106.619 165.496C105.908 164.823 101.288 161.345 99.5116 158.765C98.564 157.98 97.2373 156.006 99.5116 154.39C102.355 154.121 104.961 150.913 105.908 149.342Z" fill="#F3AD66"/>
<path d="M122.612 155.399C122.612 156.886 121.339 157.082 119.769 157.082C118.199 157.082 116.926 156.886 116.926 155.399C116.926 153.912 118.199 152.707 119.769 152.707C121.339 152.707 122.612 153.912 122.612 155.399Z" fill="#3C1826"/>
<path d="M140.379 155.399C140.379 156.886 139.106 157.082 137.536 157.082C135.966 157.082 134.693 156.886 134.693 155.399C134.693 153.912 135.966 152.707 137.536 152.707C139.106 152.707 140.379 153.912 140.379 155.399Z" fill="#3C1826"/>
<path d="M130.05 164.258C129.308 165.009 128.007 165.009 127.265 164.258L125.936 162.914C124.863 161.829 125.717 160.109 127.329 160.109L129.986 160.109C131.598 160.109 132.451 161.829 131.378 162.914L130.05 164.258Z" fill="#3C1826"/>
<path d="M128.656 164.828V166.847" stroke="#32071A" stroke-width="1.296" stroke-linecap="round" stroke-linejoin="round"/>
<path d="M118.516 164.152C117.806 166.732 118.974 170.883 128.64 166.845C138.306 170.883 139.657 166.732 138.946 164.152" stroke="#32071A" stroke-width="1.296" stroke-linecap="round" stroke-linejoin="round"/>
<path d="M107.391 175.722C108.425 174.497 111.7 175.007 113.208 175.415C119.025 178.17 119.348 180.924 118.055 183.373C117.021 185.331 115.039 184.801 114.177 184.291C112.367 186.005 111.053 184.597 110.622 183.679C108.813 185.637 106.852 184.495 106.098 183.679C105.322 184.658 104.051 183.883 103.513 183.373C100.927 180.006 106.098 177.252 107.391 175.722Z" fill="#FAC174"/>
<path d="M114.822 181.229C114.93 182.046 114.952 183.8 114.176 184.29" stroke="#32071A" stroke-width="0.971998" stroke-linecap="round" stroke-linejoin="round"/>
<path d="M110.617 180.925V183.679" stroke="#32071A" stroke-width="0.971998" stroke-linecap="round" stroke-linejoin="round"/>
<path d="M106.094 180.925C105.879 181.435 105.577 182.7 106.094 183.679" stroke="#32071A" stroke-width="0.971998" stroke-linecap="round" stroke-linejoin="round"/>
<ellipse cx="120.299" cy="154.214" rx="0.711007" ry="0.671437" fill="white"/>
<ellipse cx="136.652" cy="154.214" rx="0.711007" ry="0.671437" fill="white"/>
<path d="M109.178 144.195C112.77 145.012 121.731 146.563 128.832 146.237C135.933 146.563 144.894 145.012 148.486 144.195C146.457 133.088 134.538 129.767 128.832 129.495C123.126 129.767 111.207 133.088 109.178 144.195Z" fill="#FFA41B"/>
<mask id="mask0_1268_27764" style="mask-type:alpha" maskUnits="userSpaceOnUse" x="109" y="129" width="40" height="18">
<path d="M109.178 144.192C112.77 145.009 121.731 146.56 128.832 146.234C135.933 146.56 144.894 145.009 148.486 144.192C146.457 133.085 134.538 129.764 128.832 129.492C123.126 129.764 111.207 133.085 109.178 144.192Z" fill="#FFA41B"/>
</mask>
<g mask="url(#mask0_1268_27764)">
<ellipse cx="124.459" cy="133.685" rx="1.0919" ry="1.04912" fill="white"/>
<ellipse cx="137.563" cy="136.837" rx="1.0919" ry="1.04912" fill="white"/>
<ellipse cx="115.723" cy="139.98" rx="1.0919" ry="1.04912" fill="white"/>
<ellipse cx="128.826" cy="143.126" rx="1.0919" ry="1.04912" fill="white"/>
<ellipse cx="128.826" cy="130.539" rx="1.0919" ry="1.04912" fill="white"/>
<ellipse cx="141.93" cy="133.685" rx="1.0919" ry="1.04912" fill="white"/>
<ellipse cx="124.459" cy="146.277" rx="1.0919" ry="1.04912" fill="white"/>
<ellipse cx="120.09" cy="136.837" rx="1.0919" ry="1.04912" fill="white"/>
<ellipse cx="133.195" cy="139.98" rx="1.0919" ry="1.04912" fill="white"/>
<ellipse cx="146.297" cy="143.126" rx="1.0919" ry="1.04912" fill="white"/>
<ellipse cx="128.826" cy="136.837" rx="1.0919" ry="1.04912" fill="white"/>
<ellipse cx="141.93" cy="139.98" rx="1.0919" ry="1.04912" fill="white"/>
<ellipse cx="120.09" cy="130.539" rx="1.0919" ry="1.04912" fill="white"/>
<ellipse cx="111.356" cy="143.126" rx="1.0919" ry="1.04912" fill="white"/>
<ellipse cx="120.09" cy="143.126" rx="1.0919" ry="1.04912" fill="white"/>
<ellipse cx="133.195" cy="146.277" rx="1.0919" ry="1.04912" fill="white"/>
<ellipse cx="137.563" cy="130.539" rx="1.0919" ry="1.04912" fill="white"/>
<ellipse cx="133.195" cy="133.685" rx="1.0919" ry="1.04912" fill="white"/>
<ellipse cx="146.297" cy="136.837" rx="1.0919" ry="1.04912" fill="white"/>
<ellipse cx="111.356" cy="136.837" rx="1.0919" ry="1.04912" fill="white"/>
<ellipse cx="124.459" cy="139.98" rx="1.0919" ry="1.04912" fill="white"/>
<ellipse cx="137.563" cy="143.126" rx="1.0919" ry="1.04912" fill="white"/>
<ellipse cx="115.723" cy="133.685" rx="1.0919" ry="1.04912" fill="white"/>
</g>
<path d="M124.465 168.312C125.921 170.759 130.47 171.459 132.654 168.312" stroke="#32071A" stroke-width="1.08"/>
</svg>
