<svg width="112" height="100" viewBox="0 0 112 100" fill="none" xmlns="http://www.w3.org/2000/svg">
<ellipse cx="38.8468" cy="61.8815" rx="38.8468" ry="38.1188" fill="#FFD93D"/>
<ellipse cx="86.7741" cy="24.7525" rx="25.2252" ry="24.7525" fill="#FFA41B"/>
<path d="M8.07227 80.5594C8.07227 72.818 16.9639 70.5755 21.4098 70.4219H25.1443L25.6778 92.0792H9.13927C8.28567 92.0792 8.07227 91.4648 8.07227 91.1576V80.5594Z" fill="#FFA41B"/>
<path d="M41.3271 80.5594C41.3271 72.818 32.9294 70.5755 28.7306 70.4219H25.2035L24.6997 92.0792H40.3194C41.1256 92.0792 41.3271 91.4648 41.3271 91.1576V80.5594Z" fill="#FFA41B"/>
<path d="M14.918 80.5715C14.918 80.1663 15.2464 79.8379 15.6515 79.8379C16.0567 79.8379 16.3851 80.1663 16.3851 80.5715V92.079H14.918V80.5715Z" fill="#C57600"/>
<path d="M33.502 80.5715C33.502 80.1663 33.8304 79.8379 34.2355 79.8379C34.6407 79.8379 34.9691 80.1663 34.9691 80.5715V92.079H33.502V80.5715Z" fill="#C57600"/>
<path d="M11.9847 43.5853C23.3304 37.5589 28.7751 42.0159 30.0792 44.9978C39.4685 44.9978 38.5561 54.7277 36.9262 59.5927L31.0577 56.7678L12.4737 58.6511C6.99643 49.9882 9.86547 44.9977 11.9847 43.5853Z" fill="#351509"/>
<path d="M24.7014 74.1866C20.7995 74.1866 20.5466 71.0479 20.9079 69.4785H24.7014V74.1866Z" fill="#E8BA8C"/>
<path d="M24.7014 74.1866C28.6033 74.1866 28.8562 71.0479 28.4949 69.4785H24.7014V74.1866Z" fill="#E8BA8C"/>
<path d="M19.8406 53.4685C18.1928 53.8444 16.442 54.0394 14.656 53.9374V57.7001C13.2826 57.8569 10.6389 58.7349 11.0509 60.9925C11.0512 61.7764 11.7726 63.4383 14.656 63.8146C15.7425 65.9413 17.6989 69.9145 22.2558 70.3768L23.4684 70.3993C23.7199 70.417 23.9677 70.4237 24.2119 70.4201C24.4561 70.4237 24.704 70.417 24.9554 70.3993L26.6571 70.3768C31.214 69.9145 32.6814 65.9413 33.7679 63.8146C36.6513 63.4383 37.3727 61.7764 37.373 60.9925C37.785 58.7349 35.1412 57.8569 33.7679 57.7001V53.9374C29.5914 51.5885 28.6133 49.7053 28.1243 48.7637C27.6352 49.7053 26.6289 50.9321 24.2119 52.0017C22.2558 53.001 19.8106 53.4718 19.8106 53.4718L19.8406 53.4685Z" fill="#F3CEA0"/>
<path d="M14.9201 61.9465C13.2723 62.3224 12.4749 61.4879 12.4749 60.534C12.4277 59.3209 12.9048 59.0336 14.656 57.7002C13.2826 57.857 10.6389 58.7349 11.0509 60.9926C11.0512 61.7765 11.7726 63.4383 14.656 63.8146C15.7425 65.9414 17.6989 69.9145 22.2558 70.3768L24.2119 70.4213C24.4634 70.439 24.4568 69.0124 24.701 69.0089C21.9342 69.0089 19.333 67.7398 17.6968 65.5918L14.9201 61.9465Z" fill="#EBC498"/>
<path d="M33.5037 61.9465C35.1516 62.3224 35.9489 61.4879 35.9489 60.534C35.9961 59.3209 35.5191 59.0336 33.7679 57.7002C35.1412 57.857 37.785 58.7349 37.373 60.9926C37.3727 61.7765 36.6513 63.4383 33.7679 63.8146C32.6814 65.9414 31.0585 70.4213 26.1681 70.3768L23.2339 70.4213C22.9824 70.439 23.9671 69.0124 23.7229 69.0089C26.4897 69.0089 29.0909 67.7398 30.727 65.5918L33.5037 61.9465Z" fill="#EBC498"/>
<path d="M23.9836 61.9964C22.3008 61.7665 19.4725 62.2319 19.8438 65.8058C20.6143 66.1024 22.4624 66.2588 23.9836 64.6853C25.5048 66.2588 27.353 66.1024 28.1235 65.8058C28.4947 62.2319 25.6665 61.7665 23.9836 61.9964Z" fill="#351509"/>
<path d="M21.7658 58.6865C21.7658 59.6697 20.71 58.6865 19.8097 58.6865C18.9094 58.6865 17.8535 59.6697 17.8535 58.6865C17.8535 57.7034 18.9094 57.2402 19.8097 57.2402C20.71 57.2402 21.7658 57.7034 21.7658 58.6865Z" fill="#351509"/>
<path d="M30.5705 58.6865C30.5705 59.6697 29.5147 58.6865 28.6144 58.6865C27.7141 58.6865 26.6582 59.6697 26.6582 58.6865C26.6582 57.7034 27.7141 57.2402 28.6144 57.2402C29.5147 57.2402 30.5705 57.7034 30.5705 58.6865Z" fill="#351509"/>
<path d="M13.9251 89.2398L13.9251 92.0803H7.14995L7.14995 89.8566C5.26826 88.1297 4.97207 86.4643 5.05918 85.8476V78.4462C5.05918 78.035 5.26826 77.2126 6.10457 77.2126C6.94088 77.2126 7.14995 78.035 7.14995 78.4462V81.2217C7.14995 81.3245 7.20222 81.5301 7.4113 81.5301C7.62038 81.5301 7.67265 81.3245 7.67265 81.2217V75.979C7.67265 75.5678 7.88172 74.7455 8.71803 74.7455C9.55434 74.7455 9.76341 75.5678 9.76341 75.979V81.2217C9.76341 81.4684 9.93765 81.5301 10.0248 81.5301C10.2338 81.5301 10.2861 81.3245 10.2861 81.2217L10.2861 74.5011C10.2861 74.09 10.4952 73.2676 11.3315 73.2676C12.1678 73.2676 12.3639 74.09 12.3575 74.5011L12.3575 81.2217C12.3575 81.3245 12.4097 81.5301 12.6188 81.5301C12.8279 81.5301 12.8802 81.3245 12.8802 81.2217V75.979C12.8802 75.5678 13.0892 74.7455 13.9251 74.7455C14.7611 74.7455 14.9706 75.5678 14.9709 75.979V83.3804C15.3891 83.8738 15.8421 83.586 16.0163 83.3804C16.5389 82.558 17.793 81.0366 18.6294 81.5301C19.4657 82.0235 19.152 83.1748 18.8907 83.6888C18.0544 85.4158 15.2319 88.1091 13.9251 89.2398Z" fill="#F3CEA0"/>
<path d="M82.0589 38.9289C78.4674 21.8935 87.5459 17.0989 92.5341 16.8311H93.3291C93.647 16.8311 93.7265 22.6396 93.7265 25.5439L92.5341 26.138V42.9467L82.4332 44.5538L79.8145 40.9378C81.3109 40.1343 82.059 39.7325 82.0589 38.9289Z" fill="#28303F"/>
<path d="M103.804 38.9289C107.396 21.8935 98.3172 17.0989 93.3291 16.8311V42.9467L103.43 44.5538L106.049 40.9378C104.552 40.1343 103.804 39.7325 103.804 38.9289Z" fill="#28303F"/>
<path d="M79.7148 51.574C79.7148 44.3166 87.0267 42.2143 90.6826 42.0703H93.7535L94.1922 62.3736H80.5923C79.8903 62.3736 79.7148 61.7976 79.7148 61.5096V51.574Z" fill="#A9D6FF"/>
<path d="M107.061 51.574C107.061 44.3166 100.155 42.2143 96.7026 42.0703H93.8023L93.3879 62.3736H106.232C106.895 62.3736 107.061 61.7976 107.061 61.5096V51.574Z" fill="#A9D6FF"/>
<path d="M83.6211 51.6299C83.6211 51.2254 83.949 50.8975 84.3536 50.8975C84.7581 50.8975 85.0861 51.2254 85.0861 51.6299V62.3732H83.6211V51.6299Z" fill="#18A0FB"/>
<path d="M102.176 51.6299C102.176 51.2254 102.504 50.8975 102.908 50.8975C103.313 50.8975 103.641 51.2254 103.641 51.6299V62.3732H102.176V51.6299Z" fill="#18A0FB"/>
<path d="M93.3259 44.5748C90.153 44.5748 89.9474 41.9325 90.2411 40.6113H93.3259V44.5748Z" fill="#E8BA8C"/>
<path d="M93.3259 44.5748C96.4988 44.5748 96.7044 41.9325 96.4107 40.6113H93.3259V44.5748Z" fill="#E8BA8C"/>
<path d="M89.3739 27.1326C88.0339 27.449 86.6103 27.6131 85.158 27.5273V30.6949C84.0412 30.8269 81.8914 31.566 82.2264 33.4665C82.2267 34.1264 82.8133 35.5255 85.158 35.8422C86.0415 37.6326 87.6323 40.9773 91.3378 41.3665L92.324 41.3855C92.5284 41.4004 92.7299 41.406 92.9285 41.403C93.1271 41.406 93.3287 41.4004 93.5331 41.3855L94.9169 41.3665C98.6224 40.9773 99.8156 37.6326 100.699 35.8422C103.044 35.5255 103.63 34.1264 103.631 33.4665C103.966 31.566 101.816 30.8269 100.699 30.6949V27.5273C97.3029 25.5499 96.5076 23.9646 96.1099 23.1719C95.7122 23.9646 94.8939 24.9973 92.9285 25.8978C91.3378 26.739 89.3495 27.1353 89.3495 27.1353L89.3739 27.1326Z" fill="#F3CEA0"/>
<path d="M85.3728 34.27C84.0328 34.5864 83.3844 33.884 83.3844 33.0809C83.346 32.0597 83.7339 31.8178 85.158 30.6953C84.0412 30.8273 81.8914 31.5664 82.2264 33.467C82.2267 34.1269 82.8133 35.5259 85.158 35.8426C86.0415 37.633 87.6323 40.9778 91.3378 41.3669L92.9285 41.4044C93.133 41.4192 93.1276 40.2183 93.3262 40.2153C91.0764 40.2153 88.9611 39.147 87.6307 37.3388L85.3728 34.27Z" fill="#EBC498"/>
<path d="M100.484 34.27C101.824 34.5864 102.473 33.884 102.473 33.0809C102.511 32.0597 102.123 31.8178 100.699 30.6953C101.816 30.8273 103.966 31.5664 103.631 33.467C103.63 34.1269 103.044 35.5259 100.699 35.8426C99.8156 37.633 98.4959 41.4044 94.5192 41.3669L92.1332 41.4044C91.9287 41.4192 92.7294 40.2183 92.5309 40.2153C94.7807 40.2153 96.8959 39.147 98.2264 37.3388L100.484 34.27Z" fill="#EBC498"/>
<path d="M95.2559 35.8916H90.7939C90.1327 35.8916 89.8401 36.7238 90.3558 37.1376L91.8656 38.3488C92.6356 38.9666 93.7411 38.9301 94.4688 38.263L95.7289 37.1076C96.1995 36.6761 95.8942 35.8916 95.2559 35.8916Z" fill="#970F0F"/>
<path d="M90.6365 31.0678C90.6365 31.9894 89.6466 31.0678 88.8026 31.0678C87.9586 31.0678 86.9688 31.9894 86.9688 31.0678C86.9688 30.1462 87.9586 29.7119 88.8026 29.7119C89.6466 29.7119 90.6365 30.1462 90.6365 31.0678Z" fill="#28303F"/>
<path d="M98.8904 31.0678C98.8904 31.9894 97.9005 31.0678 97.0565 31.0678C96.2125 31.0678 95.2227 31.9894 95.2227 31.0678C95.2227 30.1462 96.2125 29.7119 97.0565 29.7119C97.9005 29.7119 98.8904 30.1462 98.8904 31.0678Z" fill="#28303F"/>
<path d="M102.359 60.3868L102.359 62.3751H106.715L106.715 60.8186C107.924 59.6097 108.115 58.444 108.059 58.0122V52.8312C108.059 52.5434 107.924 51.9677 107.387 51.9677C106.849 51.9677 106.715 52.5434 106.715 52.8312V54.7741C106.715 54.846 106.681 54.99 106.547 54.99C106.412 54.99 106.379 54.846 106.379 54.7741V51.1042C106.379 50.8164 106.244 50.2407 105.707 50.2407C105.169 50.2407 105.035 50.8164 105.035 51.1042V54.7741C105.035 54.9468 104.923 54.99 104.867 54.99C104.732 54.99 104.699 54.8461 104.699 54.7741V49.8723C104.699 49.5845 104.564 49.0088 104.027 49.0088C103.489 49.0088 103.363 49.5845 103.367 49.8723V54.7741C103.367 54.846 103.333 54.99 103.199 54.99C103.065 54.99 103.031 54.846 103.031 54.7741V51.1042C103.031 50.8164 102.897 50.2407 102.359 50.2407C101.822 50.2407 101.687 50.8164 101.687 51.1042V56.2852C101.418 56.6306 101.127 56.4291 101.015 56.2852C100.679 55.7095 99.8727 54.6446 99.3351 54.99C98.7975 55.3354 98.9991 56.1413 99.1671 56.5011C99.7047 57.71 101.519 59.5953 102.359 60.3868Z" fill="#F3CEA0"/>
<path d="M47.4658 87.0312C49.5406 85.6536 53.1716 82.2095 51.0968 79.4542C49.195 80.2578 45.8063 82.8983 47.4658 87.0312Z" fill="#F59300"/>
<path d="M73.3706 87.0312C71.2958 85.6536 67.6648 82.2095 69.7396 79.4542C71.6414 80.2578 75.0301 82.8983 73.3706 87.0312Z" fill="#F59300"/>
<path d="M50.0493 86.7402C50.0493 85.5465 51.0117 84.0091 51.4716 83.5117H69.2114C70.1066 84.4436 71.3875 84.9008 72.6705 84.7464L73.0547 84.7002L72.5622 88.1745L72.9564 89.8531L71.9709 91.5317H51.2745L50.0493 86.7402Z" fill="#F3AD66"/>
<path d="M68.8316 87.4623C69.1747 90.0727 70.0771 90.1506 70.8388 90.4896C74.6009 90.4428 76.4529 87.3136 76.5702 85.5935C76.492 84.2643 75.4291 84.4094 74.9073 84.6482C74.922 83.2165 73.6996 83.0321 73.0865 83.1189C73.1459 82.4467 72.3402 82.3416 71.9299 82.3731C69.6124 82.9085 68.6918 86.3988 68.8316 87.4623Z" fill="#FAC174"/>
<path d="M73.7239 86.6586C74.4286 87.7395 73.2324 88.9861 71.9977 89.4506C71.5738 89.61 71.1494 89.6537 70.7455 89.4155C70.3417 89.1773 70.1893 88.7935 70.1443 88.3575C70.0132 87.0875 70.6233 85.4953 71.9437 85.6087C72.2863 85.6381 72.6356 85.7456 72.9593 85.9364C73.2829 86.1273 73.541 86.3781 73.7239 86.6586Z" fill="#3C1826"/>
<path d="M72.3322 84.4932C72.2208 84.964 71.8662 85.2877 71.5402 85.2161C71.2142 85.1446 71.0403 84.705 71.1517 84.2342C71.2631 83.7634 71.6177 83.4398 71.9437 83.5113C72.2697 83.5828 72.4437 84.0224 72.3322 84.4932Z" fill="#3C1826"/>
<path d="M74.232 84.9764C73.9866 85.3975 73.5513 85.6113 73.2597 85.4538C72.9681 85.2963 72.9306 84.8273 73.1759 84.4062C73.4213 83.985 73.8566 83.7713 74.1482 83.9287C74.4398 84.0862 74.4773 84.5553 74.232 84.9764Z" fill="#3C1826"/>
<path d="M75.4774 86.571C75.1259 86.9154 74.6477 87.0117 74.4091 86.7861C74.1706 86.5605 74.2622 86.0984 74.6137 85.754C74.9652 85.4096 75.4435 85.3132 75.682 85.5388C75.9205 85.7644 75.8289 86.2265 75.4774 86.571Z" fill="#3C1826"/>
<path d="M60.4399 65.869C58.8637 63.0271 58.601 64.6848 58.6667 65.869C57.0247 65.8066 53.3863 66.0933 51.9676 67.7386C51.2452 67.614 49.3668 68.3743 47.633 72.4128C47.1075 73.2853 45.6626 75.0677 44.0864 75.2173C42.8254 76.1147 43.561 77.2116 44.0864 77.6479C45.0716 79.0813 47.633 81.0133 48.027 81.3872C48.4211 81.7611 48.4605 82.6586 49.4062 82.509C49.9317 82.8829 51.0613 83.5934 51.3766 83.4438C51.7706 83.2569 54.332 87.7441 60.4399 86.9962C66.5479 87.7441 68.9123 83.2569 69.3063 83.4438C69.6216 83.5934 70.7512 82.8829 71.2767 82.509C72.2224 82.6586 72.2618 81.7611 72.6559 81.3872C73.0499 81.0133 75.6113 79.0813 76.5965 77.6479C77.1219 77.2116 77.8575 76.1147 76.5965 75.2173C75.0202 75.0677 73.5754 73.2853 73.0499 72.4128C71.3161 68.3743 69.4377 67.614 68.7153 67.7386C67.2966 66.0933 63.6581 65.8066 62.0162 65.869C61.8586 64.5228 60.8997 65.3081 60.4399 65.869Z" fill="#FAC174"/>
<path d="M73.0497 72.4132C71.3159 68.3747 69.4375 67.6143 68.715 67.739C66.6659 75.2648 69.5688 80.7217 71.2764 82.5094C72.2222 82.659 72.2616 81.7615 72.6557 81.3876C73.0497 81.0137 75.6111 79.0817 76.5963 77.6482C77.1217 77.212 77.8573 76.1151 76.5963 75.2177C75.02 75.0681 73.5751 73.2857 73.0497 72.4132Z" fill="#F3AD66"/>
<path d="M47.633 72.4132C49.3668 68.3747 51.2452 67.6143 51.9676 67.739C54.0168 75.2648 51.1138 80.7217 49.4062 82.5094C48.4605 82.659 48.4211 81.7615 48.027 81.3876C47.633 81.0137 45.0716 79.0817 44.0864 77.6482C43.561 77.212 42.8254 76.1151 44.0864 75.2177C45.6626 75.0681 47.1075 73.2857 47.633 72.4132Z" fill="#F3AD66"/>
<path d="M56.8942 75.778C56.8942 76.604 56.1885 76.7128 55.3179 76.7128C54.4474 76.7128 53.7417 76.604 53.7417 75.778C53.7417 74.9519 54.4474 74.2822 55.3179 74.2822C56.1885 74.2822 56.8942 74.9519 56.8942 75.778Z" fill="#3C1826"/>
<path d="M66.7438 75.778C66.7438 76.604 66.0381 76.7128 65.1676 76.7128C64.297 76.7128 63.5913 76.604 63.5913 75.778C63.5913 74.9519 64.297 74.2822 65.1676 74.2822C66.0381 74.2822 66.7438 74.9519 66.7438 75.778Z" fill="#3C1826"/>
<path d="M61.0164 80.7004C60.6051 81.1173 59.8839 81.1173 59.4725 80.7004L58.7358 79.9539C58.1409 79.3509 58.6142 78.3955 59.5078 78.3955L60.9811 78.3955C61.8748 78.3955 62.3481 79.3509 61.7531 79.9539L61.0164 80.7004Z" fill="#3C1826"/>
<path d="M60.2451 81.0156V82.1374" stroke="#32071A" stroke-width="0.719999" stroke-linecap="round" stroke-linejoin="round"/>
<path d="M54.6234 80.6406C54.2294 82.074 54.8773 84.38 60.2366 82.1364C65.5958 84.38 66.3446 82.074 65.9505 80.6406" stroke="#32071A" stroke-width="0.719999" stroke-linecap="round" stroke-linejoin="round"/>
<path d="M48.4547 87.068C49.028 86.3879 50.8437 86.6712 51.6798 86.8979C54.905 88.4281 55.0842 89.9584 54.3675 91.3186C53.7941 92.4068 52.6952 92.1121 52.2174 91.8287C51.214 92.7808 50.4853 91.9987 50.2464 91.4886C49.243 92.5768 48.156 91.942 47.7379 91.4886C47.3079 92.0327 46.6032 91.602 46.3045 91.3186C44.8711 89.4483 47.7379 87.9181 48.4547 87.068Z" fill="#FAC174"/>
<path d="M52.5748 90.1279C52.6346 90.5813 52.6465 91.5561 52.2163 91.8282" stroke="#32071A" stroke-width="0.539999" stroke-linecap="round" stroke-linejoin="round"/>
<path d="M50.2432 89.959V91.4892" stroke="#32071A" stroke-width="0.539999" stroke-linecap="round" stroke-linejoin="round"/>
<path d="M47.736 89.959C47.6165 90.2424 47.4492 90.9451 47.736 91.4892" stroke="#32071A" stroke-width="0.539999" stroke-linecap="round" stroke-linejoin="round"/>
<ellipse cx="55.6105" cy="75.1191" rx="0.394217" ry="0.373024" fill="white"/>
<ellipse cx="64.6779" cy="75.1191" rx="0.394217" ry="0.373024" fill="white"/>
<path d="M49.4443 69.5524C51.4363 70.0061 56.4045 70.8681 60.3416 70.6866C64.2787 70.8681 69.2469 70.0061 71.2389 69.5524C70.114 63.382 63.5053 61.537 60.3416 61.3857C57.1779 61.537 50.5692 63.382 49.4443 69.5524Z" fill="#FFA41B"/>
<mask id="mask0_491_17818" style="mask-type:alpha" maskUnits="userSpaceOnUse" x="49" y="61" width="23" height="10">
<path d="M49.4438 69.5524C51.4358 70.0061 56.404 70.8681 60.3411 70.6866C64.2782 70.8681 69.2464 70.0061 71.2384 69.5524C70.1135 63.382 63.5048 61.537 60.3411 61.3857C57.1774 61.537 50.5687 63.382 49.4438 69.5524Z" fill="#FFA41B"/>
</mask>
<g mask="url(#mask0_491_17818)">
<ellipse cx="57.9169" cy="63.7157" rx="0.605404" ry="0.582851" fill="white"/>
<ellipse cx="65.1821" cy="65.4666" rx="0.605404" ry="0.582851" fill="white"/>
<ellipse cx="53.0742" cy="67.2137" rx="0.605404" ry="0.582851" fill="white"/>
<ellipse cx="60.3378" cy="68.9618" rx="0.605404" ry="0.582851" fill="white"/>
<ellipse cx="60.3378" cy="61.9686" rx="0.605404" ry="0.582851" fill="white"/>
<ellipse cx="67.603" cy="63.7157" rx="0.605404" ry="0.582851" fill="white"/>
<ellipse cx="57.9169" cy="70.7108" rx="0.605404" ry="0.582851" fill="white"/>
<ellipse cx="55.4946" cy="65.4666" rx="0.605404" ry="0.582851" fill="white"/>
<ellipse cx="62.7597" cy="67.2137" rx="0.605404" ry="0.582851" fill="white"/>
<ellipse cx="70.0253" cy="68.9618" rx="0.605404" ry="0.582851" fill="white"/>
<ellipse cx="60.3378" cy="65.4666" rx="0.605404" ry="0.582851" fill="white"/>
<ellipse cx="67.603" cy="67.2137" rx="0.605404" ry="0.582851" fill="white"/>
<ellipse cx="55.4946" cy="61.9686" rx="0.605404" ry="0.582851" fill="white"/>
<ellipse cx="50.6518" cy="68.9618" rx="0.605404" ry="0.582851" fill="white"/>
<ellipse cx="55.4946" cy="68.9618" rx="0.605404" ry="0.582851" fill="white"/>
<ellipse cx="62.7597" cy="70.7108" rx="0.605404" ry="0.582851" fill="white"/>
<ellipse cx="65.1821" cy="61.9686" rx="0.605404" ry="0.582851" fill="white"/>
<ellipse cx="62.7597" cy="63.7157" rx="0.605404" ry="0.582851" fill="white"/>
<ellipse cx="70.0253" cy="65.4666" rx="0.605404" ry="0.582851" fill="white"/>
<ellipse cx="50.6518" cy="65.4666" rx="0.605404" ry="0.582851" fill="white"/>
<ellipse cx="57.9169" cy="67.2137" rx="0.605404" ry="0.582851" fill="white"/>
<ellipse cx="65.1821" cy="68.9618" rx="0.605404" ry="0.582851" fill="white"/>
<ellipse cx="53.0742" cy="63.7157" rx="0.605404" ry="0.582851" fill="white"/>
</g>
<path d="M57.9209 82.9521C58.7281 84.3121 61.2506 84.7007 62.4614 82.9521" stroke="#32071A" stroke-width="0.599999"/>
</svg>
