<svg width="110" height="111" viewBox="0 0 110 111" fill="none" xmlns="http://www.w3.org/2000/svg">
<ellipse cx="55" cy="53.5936" rx="55" ry="53.5936" fill="#FFD93D"/>
<path d="M18.0274 97.5879C22.8797 94.3274 31.3712 86.1762 26.5189 79.6553C22.0714 81.5572 14.1465 87.8065 18.0274 97.5879Z" fill="#F59300"/>
<path d="M78.6073 97.5879C73.7551 94.3274 65.2635 86.1762 70.1158 79.6553C74.5634 81.5572 82.4883 87.8065 78.6073 97.5879Z" fill="#F59300"/>
<path d="M24.0684 96.8966C24.0684 94.0716 26.3191 90.433 27.3947 89.2559H68.8813C70.9729 91.4592 73.9843 92.5418 76.9999 92.1745L77.8694 92.0686L76.7177 100.291L77.6396 104.264L75.3348 108.237H26.9337L24.0684 96.8966Z" fill="#F3AD66"/>
<path d="M67.9911 98.609C68.7935 104.787 70.9038 104.971 72.6853 105.774C81.4834 105.663 85.8145 98.2571 86.0888 94.1862C85.906 91.0403 83.4201 91.3838 82.2 91.9488C82.2344 88.5604 79.3755 88.124 77.9417 88.3294C78.0806 86.7386 76.1964 86.4899 75.2369 86.5644C69.817 87.8316 67.6642 96.0921 67.9911 98.609Z" fill="#FAC174"/>
<path d="M79.4323 96.7068C81.0804 99.265 78.2829 102.215 75.3953 103.315C74.4041 103.692 73.4117 103.795 72.4671 103.232C71.5225 102.668 71.1662 101.76 71.0609 100.728C70.7544 97.7221 72.1813 93.9536 75.2692 94.222C76.0704 94.2917 76.8873 94.546 77.6442 94.9977C78.401 95.4494 79.0047 96.043 79.4323 96.7068Z" fill="#3C1826"/>
<path d="M76.1778 91.582C75.9172 92.6962 75.088 93.4623 74.3256 93.293C73.5632 93.1238 73.1564 92.0833 73.4169 90.9691C73.6775 89.8549 74.5068 89.0889 75.2692 89.2581C76.0315 89.4274 76.4384 90.4678 76.1778 91.582Z" fill="#3C1826"/>
<path d="M80.6205 92.7256C80.0468 93.7223 79.0288 94.2282 78.3468 93.8555C77.6648 93.4828 77.5771 92.3727 78.1508 91.376C78.7246 90.3793 79.7426 89.8735 80.4246 90.2462C81.1066 90.6188 81.1943 91.7289 80.6205 92.7256Z" fill="#3C1826"/>
<path d="M83.5332 96.4995C82.7112 97.3146 81.5927 97.5426 81.0349 97.0087C80.4771 96.4748 80.6913 95.3812 81.5133 94.566C82.3353 93.7508 83.4538 93.5228 84.0116 94.0567C84.5694 94.5907 84.3552 95.6843 83.5332 96.4995Z" fill="#3C1826"/>
<path d="M48.3683 47.5028C44.682 40.7769 44.0676 44.7003 44.2212 47.5028C40.3814 47.3553 31.8724 48.0337 28.5547 51.9277C26.8652 51.6327 22.4724 53.4322 18.4175 62.9901C17.1888 65.055 13.8097 69.2735 10.1234 69.6275C7.17441 71.7515 8.89467 74.3474 10.1234 75.3799C12.4273 78.7724 18.4175 83.3448 19.3391 84.2298C20.2606 85.1148 20.3528 87.2388 22.5646 86.8848C23.7933 87.7698 26.4351 89.4513 27.1724 89.0973C28.094 88.6548 34.084 99.2747 48.3683 97.5047C62.6525 99.2747 68.182 88.6548 69.1035 89.0973C69.8408 89.4513 72.4826 87.7698 73.7114 86.8848C75.9231 87.2388 76.0153 85.1148 76.9368 84.2298C77.8584 83.3448 83.8486 78.7724 86.1525 75.3799C87.3812 74.3474 89.1015 71.7515 86.1525 69.6275C82.4662 69.2735 79.0872 65.055 77.8584 62.9901C73.8035 53.4322 69.4107 51.6327 67.7212 51.9277C64.4035 48.0337 55.8944 47.3553 52.0546 47.5028C51.6859 44.3169 49.4434 46.1753 48.3683 47.5028Z" fill="#FAC174"/>
<path d="M77.8587 62.9922C73.8038 53.4343 69.411 51.6348 67.7215 51.9298C62.9293 69.7411 69.7182 82.6559 73.7116 86.8869C75.9234 87.2409 76.0156 85.1169 76.9371 84.232C77.8587 83.347 83.8489 78.7745 86.1528 75.382C87.3815 74.3496 89.1018 71.7536 86.1528 69.6296C82.4665 69.2756 79.0875 65.0572 77.8587 62.9922Z" fill="#F3AD66"/>
<path d="M18.4175 62.9922C22.4724 53.4343 26.8652 51.6348 28.5547 51.9298C33.3469 69.7411 26.558 82.6559 22.5646 86.8869C20.3528 87.2409 20.2606 85.1169 19.3391 84.232C18.4175 83.347 12.4273 78.7745 10.1234 75.382C8.89467 74.3496 7.17441 71.7536 10.1234 69.6296C13.8097 69.2756 17.1888 65.0572 18.4175 62.9922Z" fill="#F3AD66"/>
<path d="M40.0747 70.956C40.0747 72.911 38.4243 73.1685 36.3884 73.1685C34.3525 73.1685 32.7021 72.911 32.7021 70.956C32.7021 69.0009 34.3525 67.416 36.3884 67.416C38.4243 67.416 40.0747 69.0009 40.0747 70.956Z" fill="#3C1826"/>
<path d="M63.1137 70.956C63.1137 72.911 61.4633 73.1685 59.4275 73.1685C57.3916 73.1685 55.7412 72.911 55.7412 70.956C55.7412 69.0009 57.3916 67.416 59.4275 67.416C61.4633 67.416 63.1137 69.0009 63.1137 70.956Z" fill="#3C1826"/>
<path d="M49.7132 82.6053C48.7511 83.592 47.0645 83.592 46.1024 82.6053L44.3797 80.8385C42.9883 79.4116 44.0952 77.1504 46.185 77.1504L49.6306 77.1504C51.7204 77.1504 52.8273 79.4116 51.4359 80.8385L49.7132 82.6053Z" fill="#3C1826"/>
<path d="M47.9072 83.3457V86.0007" stroke="#32071A" stroke-width="1.2" stroke-linecap="round" stroke-linejoin="round"/>
<path d="M34.7662 82.4609C33.8446 85.8534 35.3599 91.3108 47.8932 86.0009C60.4265 91.3108 62.1776 85.8534 61.256 82.4609" stroke="#32071A" stroke-width="1.2" stroke-linecap="round" stroke-linejoin="round"/>
<path d="M20.3437 97.6731C21.6845 96.0636 25.9308 96.7342 27.8862 97.2707C35.4287 100.892 35.8478 104.514 34.1717 107.733C32.8308 110.308 30.2607 109.611 29.1433 108.94C26.7968 111.194 25.0927 109.343 24.534 108.136C22.1874 110.711 19.6453 109.209 18.6676 108.136C17.6619 109.423 16.0137 108.404 15.3154 107.733C11.9631 103.307 18.6676 99.6851 20.3437 97.6731Z" fill="#FAC174"/>
<path d="M29.9819 104.916C30.1217 105.989 30.1496 108.296 29.1436 108.94" stroke="#32071A" stroke-width="0.9" stroke-linecap="round" stroke-linejoin="round"/>
<path d="M24.5332 104.516V108.137" stroke="#32071A" stroke-width="0.9" stroke-linecap="round" stroke-linejoin="round"/>
<path d="M18.6682 104.516C18.3887 105.186 17.9975 106.85 18.6682 108.137" stroke="#32071A" stroke-width="0.9" stroke-linecap="round" stroke-linejoin="round"/>
<ellipse cx="37.0752" cy="69.3926" rx="0.921926" ry="0.882835" fill="white"/>
<ellipse cx="58.2794" cy="69.3926" rx="0.921926" ry="0.882835" fill="white"/>
<path d="M22.6533 56.2206C27.3118 57.2943 38.9306 59.3345 48.138 58.905C57.3454 59.3345 68.9642 57.2943 73.6227 56.2206C70.992 41.6172 55.5368 37.2505 48.138 36.8926C40.7392 37.2505 25.284 41.6172 22.6533 56.2206Z" fill="#FFA41B"/>
<mask id="mask0_670_25197" style="mask-type:alpha" maskUnits="userSpaceOnUse" x="22" y="36" width="52" height="23">
<path d="M22.6533 56.2206C27.3118 57.2943 38.9306 59.3345 48.138 58.905C57.3454 59.3345 68.9642 57.2943 73.6227 56.2206C70.992 41.6172 55.5368 37.2505 48.138 36.8926C40.7392 37.2505 25.284 41.6172 22.6533 56.2206Z" fill="#FFA41B"/>
</mask>
<g mask="url(#mask0_670_25197)">
<ellipse cx="42.4754" cy="42.4107" rx="1.41582" ry="1.37943" fill="white"/>
<ellipse cx="59.4646" cy="46.5474" rx="1.41582" ry="1.37943" fill="white"/>
<ellipse cx="31.1482" cy="50.6861" rx="1.41582" ry="1.37943" fill="white"/>
<ellipse cx="48.1385" cy="54.8247" rx="1.41582" ry="1.37943" fill="white"/>
<ellipse cx="48.1385" cy="38.272" rx="1.41582" ry="1.37943" fill="white"/>
<ellipse cx="65.1277" cy="42.4107" rx="1.41582" ry="1.37943" fill="white"/>
<ellipse cx="42.4754" cy="58.9634" rx="1.41582" ry="1.37943" fill="white"/>
<ellipse cx="36.8113" cy="46.5474" rx="1.41582" ry="1.37943" fill="white"/>
<ellipse cx="53.8016" cy="50.6861" rx="1.41582" ry="1.37943" fill="white"/>
<ellipse cx="70.7908" cy="54.8247" rx="1.41582" ry="1.37943" fill="white"/>
<ellipse cx="48.1385" cy="46.5474" rx="1.41582" ry="1.37943" fill="white"/>
<ellipse cx="65.1277" cy="50.6861" rx="1.41582" ry="1.37943" fill="white"/>
<ellipse cx="36.8113" cy="38.272" rx="1.41582" ry="1.37943" fill="white"/>
<ellipse cx="25.4852" cy="54.8247" rx="1.41582" ry="1.37943" fill="white"/>
<ellipse cx="36.8113" cy="54.8247" rx="1.41582" ry="1.37943" fill="white"/>
<ellipse cx="53.8016" cy="58.9634" rx="1.41582" ry="1.37943" fill="white"/>
<ellipse cx="59.4646" cy="38.272" rx="1.41582" ry="1.37943" fill="white"/>
<ellipse cx="53.8016" cy="42.4107" rx="1.41582" ry="1.37943" fill="white"/>
<ellipse cx="70.7908" cy="46.5474" rx="1.41582" ry="1.37943" fill="white"/>
<ellipse cx="25.4852" cy="46.5474" rx="1.41582" ry="1.37943" fill="white"/>
<ellipse cx="42.4754" cy="50.6861" rx="1.41582" ry="1.37943" fill="white"/>
<ellipse cx="59.4646" cy="54.8247" rx="1.41582" ry="1.37943" fill="white"/>
<ellipse cx="31.1482" cy="42.4107" rx="1.41582" ry="1.37943" fill="white"/>
</g>
<path d="M42.4746 87.9316C44.3624 91.1503 50.2616 92.0699 53.0932 87.9316" stroke="#32071A"/>
<g clip-path="url(#clip0_670_25197)">
<path d="M59.6973 29.4629L60.8016 29.2482L60.8731 29.6163C60.9127 29.8196 60.7799 30.0165 60.5766 30.056L60.2085 30.1276C60.0052 30.1671 59.8083 30.0343 59.7688 29.831L59.6973 29.4629Z" fill="#0E5195"/>
<path d="M67.0586 28.0312L68.1629 27.8166L68.2345 28.1847C68.274 28.388 68.1412 28.5848 67.9379 28.6244L67.5698 28.6959C67.3665 28.7354 67.1697 28.6027 67.1301 28.3994L67.0586 28.0312Z" fill="#0E5195"/>
<path d="M55.791 17.2324L67.2024 15.0143L69.4206 26.4257C69.5391 27.0356 69.1408 27.6261 68.5309 27.7447L59.3282 29.5335C58.7183 29.6521 58.1277 29.2537 58.0092 28.6438L55.791 17.2324Z" fill="url(#paint0_linear_670_25197)"/>
<path d="M64.4424 15.5527L67.2032 15.0161L69.4214 26.4275C69.5399 27.0374 69.1416 27.6279 68.5317 27.7465L66.8752 28.0685L64.4424 15.5527Z" fill="url(#paint1_linear_670_25197)"/>
<path d="M54.575 10.9754C54.4565 10.3655 54.8548 9.77499 55.4647 9.65643L64.6674 7.8676C65.2773 7.74905 65.8679 8.14737 65.9864 8.75727L67.2028 15.0151L55.7914 17.2333L54.575 10.9754Z" fill="url(#paint2_linear_670_25197)"/>
<path d="M63.0107 8.18945L64.6672 7.86746C65.2771 7.74891 65.8677 8.14723 65.9862 8.75713L67.2026 15.015L64.4418 15.5517L63.0107 8.18945Z" fill="url(#paint3_linear_670_25197)"/>
<path d="M56.2877 13.8891C56.268 13.7875 56.3344 13.6891 56.436 13.6693L56.8041 13.5977C56.9058 13.578 57.0042 13.6444 57.024 13.746L57.3817 15.5866C57.4015 15.6882 57.3351 15.7867 57.2334 15.8064L56.8653 15.878C56.7637 15.8977 56.6653 15.8313 56.6455 15.7297L56.2877 13.8891Z" fill="white"/>
<path d="M57.1461 18.3071C57.1264 18.2055 57.1928 18.107 57.2944 18.0873L57.6625 18.0157C57.7642 17.996 57.8626 18.0623 57.8823 18.164L58.3832 20.7408C58.403 20.8424 58.3366 20.9408 58.2349 20.9606L57.8668 21.0322C57.7652 21.0519 57.6668 20.9855 57.647 20.8839L57.1461 18.3071Z" fill="white"/>
</g>
<g clip-path="url(#clip1_670_25197)">
<path d="M79.384 26.3921C79.5214 25.7861 80.124 25.4063 80.73 25.5437L94.6271 28.6952C95.233 28.8326 95.6128 29.4352 95.4754 30.0412L91.3287 48.3269C91.1913 48.9328 90.5887 49.3126 89.9828 49.1752L76.0856 46.0237C75.4797 45.8863 75.0999 45.2837 75.2373 44.6778L79.384 26.3921Z" fill="#D9D9D9"/>
<path d="M79.384 26.3921C79.5214 25.7861 80.124 25.4063 80.73 25.5437L94.6271 28.6952C95.233 28.8326 95.6128 29.4352 95.4754 30.0412L94.729 33.3326L78.6376 29.6835L79.384 26.3921Z" fill="#C9C9C9"/>
<circle cx="93.0324" cy="30.6414" r="0.75" transform="rotate(12.7771 93.0324 30.6414)" fill="#3E3A3A"/>
<circle cx="85.0242" cy="38.8232" r="4.5" transform="rotate(12.7771 85.0242 38.8232)" fill="white"/>
<circle cx="85.0243" cy="38.8227" r="3.5625" transform="rotate(12.7771 85.0243 38.8227)" fill="#0862CC"/>
<path d="M85.813 35.3491C83.8942 34.9139 81.9859 36.1167 81.5508 38.0355C81.5508 38.0355 83.4039 37.4944 85.0251 38.8233C86.6463 40.1523 88.4994 39.6112 88.4994 39.6112C88.9345 37.6924 87.7318 35.7842 85.813 35.3491Z" fill="#2EB5E9"/>
<path d="M84.338 28.2837C84.3838 28.0817 84.5846 27.9551 84.7866 28.0009L89.9066 29.162C90.1086 29.2078 90.2352 29.4087 90.1894 29.6106L90.0235 30.3421C89.9777 30.544 89.7769 30.6706 89.5749 30.6248L84.4549 29.4638C84.2529 29.418 84.1263 29.2171 84.1721 29.0151L84.338 28.2837Z" fill="#2DB5E8"/>
</g>
<defs>
<linearGradient id="paint0_linear_670_25197" x1="57.0074" y1="23.4903" x2="68.4188" y2="21.2721" gradientUnits="userSpaceOnUse">
<stop stop-color="#0072CB"/>
<stop offset="1" stop-color="#0363AE"/>
</linearGradient>
<linearGradient id="paint1_linear_670_25197" x1="65.5157" y1="21.0744" x2="68.2765" y2="20.5377" gradientUnits="userSpaceOnUse">
<stop stop-color="#0D5297"/>
<stop offset="1" stop-color="#115CA9"/>
</linearGradient>
<linearGradient id="paint2_linear_670_25197" x1="55.1474" y1="13.9203" x2="66.5589" y2="11.7022" gradientUnits="userSpaceOnUse">
<stop stop-color="#36BFF3"/>
<stop offset="1" stop-color="#23AADD"/>
</linearGradient>
<linearGradient id="paint3_linear_670_25197" x1="63.7263" y1="11.8706" x2="66.4871" y2="11.3339" gradientUnits="userSpaceOnUse">
<stop stop-color="#108AE3"/>
<stop offset="1" stop-color="#1999EB"/>
</linearGradient>
<clipPath id="clip0_670_25197">
<rect width="24" height="24" fill="white" transform="translate(48 9.58008) rotate(-11)"/>
</clipPath>
<clipPath id="clip1_670_25197">
<rect width="24" height="24" fill="white" transform="translate(76.3076 23.002) rotate(12.7771)"/>
</clipPath>
</defs>
</svg>
