<svg width="80" height="81" viewBox="0 0 80 81" fill="none" xmlns="http://www.w3.org/2000/svg">
<ellipse cx="40.0001" cy="38.9772" rx="40.0001" ry="38.9772" fill="#FFD93D"/>
<path d="M39.0713 55.7902C35.6506 38.1969 44.2975 33.2454 49.0486 32.9688H49.8057C50.1086 32.9688 50.1843 38.9675 50.1843 41.9669L49.0486 42.5804V59.9395L39.4279 61.5993L36.9336 57.8649C38.3589 57.035 39.0714 56.6201 39.0713 55.7902Z" fill="#28303F"/>
<path d="M59.783 55.7902C63.2037 38.1969 54.5568 33.2454 49.8057 32.9688V59.9395L59.4264 61.5993L61.9207 57.8649C60.4954 57.035 59.7829 56.6201 59.783 55.7902Z" fill="#28303F"/>
<path d="M36.834 68.8481C36.834 61.3531 43.7982 59.1819 47.2803 59.0332H50.2053L50.6232 80.0013H37.6697C37.0011 80.0013 36.834 79.4065 36.834 79.109V68.8481Z" fill="#A9D6FF"/>
<path d="M62.8802 68.8481C62.8802 61.3531 56.3029 59.1819 53.0142 59.0332H50.2517L49.8571 80.0013H62.0909C62.7223 80.0013 62.8802 79.4065 62.8802 79.109V68.8481Z" fill="#A9D6FF"/>
<path d="M40.5547 68.8481C40.5547 68.4627 40.867 68.1504 41.2524 68.1504C41.6377 68.1504 41.95 68.4627 41.95 68.8481V80.0019H40.5547V68.8481Z" fill="#18A0FB"/>
<path d="M58.2285 68.8481C58.2285 68.4627 58.5409 68.1504 58.9262 68.1504C59.3115 68.1504 59.6238 68.4627 59.6238 68.8481V80.0019H58.2285V68.8481Z" fill="#18A0FB"/>
<path d="M49.7997 61.6206C46.7776 61.6206 46.5817 58.8918 46.8616 57.5273H49.7997V61.6206Z" fill="#E8BA8C"/>
<path d="M49.7997 61.6206C52.8217 61.6206 53.0176 58.8918 52.7378 57.5273H49.7997V61.6206Z" fill="#E8BA8C"/>
<path d="M46.0344 43.608C44.7582 43.9347 43.4022 44.1043 42.0189 44.0156V47.2869C40.9552 47.4232 38.9076 48.1865 39.2267 50.1493C39.227 50.8308 39.7857 52.2757 42.0189 52.6028C42.8604 54.4518 44.3756 57.9061 47.905 58.308L48.8442 58.3276C49.039 58.3429 49.2309 58.3487 49.4201 58.3456C49.6092 58.3487 49.8012 58.3429 49.9959 58.3276L51.3139 58.308C54.8433 57.9061 55.9797 54.4518 56.8212 52.6028C59.0544 52.2757 59.6132 50.8308 59.6134 50.1493C59.9325 48.1865 57.8849 47.4232 56.8212 47.2869V44.0156C53.5865 41.9735 52.829 40.3362 52.4502 39.5176C52.0714 40.3362 51.292 41.4028 49.4201 42.3327C47.905 43.2015 46.0112 43.6108 46.0112 43.6108L46.0344 43.608Z" fill="#F3CEA0"/>
<path d="M42.2235 50.9788C40.9472 51.3056 40.3297 50.5802 40.3297 49.7508C40.2931 48.6962 40.6626 48.4464 42.0189 47.2871C40.9552 47.4234 38.9076 48.1867 39.2267 50.1495C39.227 50.831 39.7857 52.2759 42.0189 52.603C42.8604 54.452 44.3756 57.9063 47.905 58.3082L49.4201 58.3468C49.6148 58.3622 49.6097 57.122 49.7988 57.1189C47.656 57.1189 45.6413 56.0156 44.3741 54.1481L42.2235 50.9788Z" fill="#EBC498"/>
<path d="M56.6166 50.9788C57.8929 51.3056 58.5105 50.5802 58.5105 49.7508C58.547 48.6962 58.1776 48.4464 56.8212 47.2871C57.8849 47.4234 59.9325 48.1867 59.6134 50.1495C59.6132 50.831 59.0544 52.2759 56.8212 52.603C55.9797 54.452 54.7228 58.3468 50.9351 58.3082L48.6625 58.3468C48.4678 58.3622 49.2304 57.122 49.0413 57.1189C51.1842 57.1189 53.1989 56.0156 54.4661 54.1481L56.6166 50.9788Z" fill="#EBC498"/>
<path d="M52.1162 52.6543H46.8511C46.3803 52.6543 46.1618 53.2385 46.517 53.5475L48.6616 55.413C49.2368 55.9134 50.101 55.8847 50.6417 55.3471L52.4751 53.5244C52.7972 53.2041 52.5704 52.6543 52.1162 52.6543Z" fill="#970F0F"/>
<path d="M47.2375 47.6718C47.2375 48.6236 46.2947 47.6718 45.4908 47.6718C44.6869 47.6718 43.7441 48.6236 43.7441 47.6718C43.7441 46.7199 44.6869 46.2715 45.4908 46.2715C46.2947 46.2715 47.2375 46.7199 47.2375 47.6718Z" fill="#28303F"/>
<path d="M55.0988 47.6718C55.0988 48.6236 54.156 47.6718 53.3522 47.6718C52.5483 47.6718 51.6055 48.6236 51.6055 47.6718C51.6055 46.7199 52.5483 46.2715 53.3522 46.2715C54.156 46.2715 55.0988 46.7199 55.0988 47.6718Z" fill="#28303F"/>
<path d="M9.0625 68.1061C9.0625 60.1113 17.5315 57.7953 21.766 57.6367H25.3229L25.8311 80.0032H10.0788C9.26576 80.0032 9.0625 79.3687 9.0625 79.0514V68.1061Z" fill="#FFA41B"/>
<path d="M40.7365 68.1061C40.7365 60.1113 32.738 57.7953 28.7388 57.6367H25.3794L24.8995 80.0032H39.7767C40.5445 80.0032 40.7365 79.3687 40.7365 79.0514V68.1061Z" fill="#FFA41B"/>
<path d="M15.584 68.06C15.584 67.6741 15.8968 67.3613 16.2827 67.3613C16.6686 67.3613 16.9814 67.6741 16.9814 68.06V80.0033H15.584V68.06Z" fill="#C57600"/>
<path d="M33.2832 68.06C33.2832 67.6741 33.596 67.3613 33.9819 67.3613C34.3678 67.3613 34.6806 67.6741 34.6806 68.06V80.0033H33.2832V68.06Z" fill="#C57600"/>
<path d="M12.7894 29.9205C23.5958 23.6968 28.7816 28.2998 30.0237 31.3792C38.9666 31.3792 38.0976 41.4278 36.5452 46.4521L30.9557 43.5347L13.2552 45.4796C8.03826 36.533 10.7709 31.3792 12.7894 29.9205Z" fill="#351509"/>
<path d="M24.9002 61.5244C21.1838 61.5244 20.9429 58.2829 21.287 56.6621H24.9002V61.5244Z" fill="#E8BA8C"/>
<path d="M24.9002 61.5244C28.6166 61.5244 28.8575 58.2829 28.5134 56.6621H24.9002V61.5244Z" fill="#E8BA8C"/>
<path d="M20.2723 40.1265C18.7028 40.5147 17.0353 40.716 15.3341 40.6107V44.4967C14.0261 44.6586 11.508 45.5653 11.9004 47.8968C11.9007 48.7064 12.5878 50.4227 15.3341 50.8113C16.369 53.0077 18.2324 57.111 22.5726 57.5884L23.7277 57.6117C23.9671 57.6299 24.2032 57.6368 24.4358 57.6331C24.6684 57.6368 24.9045 57.6299 25.144 57.6117L26.7648 57.5884C31.1051 57.111 32.5026 53.0077 33.5375 50.8113C36.2838 50.4227 36.9709 48.7064 36.9712 47.8968C37.3636 45.5653 34.8456 44.6586 33.5375 44.4967V40.6107C29.5595 38.1849 28.6279 36.24 28.1622 35.2676C27.6964 36.24 26.7379 37.507 24.4358 38.6117C22.5726 39.6436 20.2437 40.1299 20.2437 40.1299L20.2723 40.1265Z" fill="#F3CEA0"/>
<path d="M15.5857 48.8814C14.0162 49.2696 13.2568 48.4078 13.2568 47.4227C13.2118 46.1699 13.6661 45.8731 15.3341 44.4961C14.0261 44.658 11.508 45.5647 11.9004 47.8963C11.9007 48.7058 12.5878 50.4221 15.3341 50.8107C16.369 53.0071 18.2324 57.1104 22.5726 57.5878L24.4358 57.6338C24.6753 57.652 24.669 56.1787 24.9016 56.1751C22.2664 56.1751 19.7888 54.8645 18.2304 52.6462L15.5857 48.8814Z" fill="#EBC498"/>
<path d="M33.2859 48.8814C34.8554 49.2696 35.6149 48.4078 35.6149 47.4227C35.6598 46.1699 35.2055 45.8731 33.5375 44.4961C34.8456 44.658 37.3636 45.5647 36.9712 47.8963C36.9709 48.7058 36.2838 50.4221 33.5375 50.8107C32.5026 53.0071 30.9569 57.6338 26.299 57.5878L23.5042 57.6338C23.2648 57.652 24.2026 56.1787 23.97 56.1751C26.6053 56.1751 29.0828 54.8645 30.6412 52.6462L33.2859 48.8814Z" fill="#EBC498"/>
<path d="M24.2169 48.9336C22.614 48.6962 19.9202 49.1768 20.2738 52.8677C21.0077 53.174 22.768 53.3355 24.2169 51.7105C25.6658 53.3355 27.4261 53.174 28.16 52.8677C28.5136 49.1768 25.8198 48.6962 24.2169 48.9336Z" fill="#351509"/>
<path d="M22.1033 45.5152C22.1033 46.5305 21.0976 45.5152 20.2401 45.5152C19.3826 45.5152 18.377 46.5305 18.377 45.5152C18.377 44.4999 19.3826 44.0215 20.2401 44.0215C21.0976 44.0215 22.1033 44.4999 22.1033 45.5152Z" fill="#351509"/>
<path d="M30.49 45.5152C30.49 46.5305 29.4843 45.5152 28.6268 45.5152C27.7693 45.5152 26.7637 46.5305 26.7637 45.5152C26.7637 44.4999 27.7693 44.0215 28.6268 44.0215C29.4843 44.0215 30.49 44.4999 30.49 45.5152Z" fill="#351509"/>
<path d="M14.6355 77.0695L14.6355 80.0029H8.18239L8.18239 77.7065C6.39015 75.9229 6.10803 74.2031 6.19101 73.5661V65.9224C6.19101 65.4977 6.39015 64.6484 7.1867 64.6484C7.98325 64.6484 8.18239 65.4977 8.18239 65.9224V68.7888C8.18239 68.8949 8.23217 69.1073 8.43131 69.1073C8.63045 69.1073 8.68023 68.8949 8.68023 68.7888V63.3744C8.68023 62.9498 8.87937 62.1005 9.67592 62.1005C10.4725 62.1005 10.6716 62.9498 10.6716 63.3744V68.7888C10.6716 69.0436 10.8376 69.1073 10.9205 69.1073C11.1197 69.1073 11.1695 68.8949 11.1695 68.7888L11.1695 61.8482C11.1695 61.4235 11.3686 60.5742 12.1651 60.5742C12.9617 60.5742 13.1485 61.4235 13.1424 61.8482L13.1424 68.7888C13.1424 68.8949 13.1921 69.1073 13.3913 69.1073C13.5904 69.1073 13.6402 68.8949 13.6402 68.7888V63.3744C13.6402 62.9498 13.8393 62.1005 14.6355 62.1005C15.4317 62.1005 15.6313 62.9498 15.6316 63.3744V71.0182C16.0299 71.5278 16.4613 71.2305 16.6273 71.0182C17.125 70.1689 18.3195 68.5977 19.1161 69.1072C19.9126 69.6168 19.6139 70.8059 19.365 71.3367C18.5684 73.1202 15.8801 75.9017 14.6355 77.0695Z" fill="#F3CEA0"/>
<path d="M58.404 77.9479L58.404 80.0013H62.5524L62.5524 78.3937C63.7045 77.1453 63.8859 75.9414 63.8326 75.4955V70.1449C63.8326 69.8476 63.7045 69.2531 63.1925 69.2531C62.6804 69.2531 62.5524 69.8476 62.5524 70.1449V72.1513C62.5524 72.2257 62.5204 72.3743 62.3924 72.3743C62.2644 72.3743 62.2324 72.2257 62.2324 72.1513V68.3613C62.2324 68.0641 62.1043 67.4695 61.5923 67.4695C61.0802 67.4695 60.9522 68.0641 60.9522 68.3613V72.1513C60.9522 72.3297 60.8455 72.3743 60.7922 72.3743C60.6641 72.3743 60.6321 72.2257 60.6321 72.1513V67.089C60.6321 66.7918 60.5041 66.1973 59.9921 66.1973C59.48 66.1973 59.3599 66.7918 59.3638 67.089V72.1513C59.3638 72.2257 59.3318 72.3743 59.2038 72.3743C59.0758 72.3743 59.0438 72.2257 59.0438 72.1513V68.3613C59.0438 68.0641 58.9158 67.4695 58.404 67.4695C57.8921 67.4695 57.7638 68.0641 57.7636 68.3613V73.7119C57.5076 74.0686 57.2302 73.8606 57.1235 73.7119C56.8036 73.1174 56.0357 72.0176 55.5236 72.3743C55.0115 72.731 55.2035 73.5633 55.3636 73.9349C55.8756 75.1834 57.6039 77.1304 58.404 77.9479Z" fill="#F3CEA0"/>
<g clip-path="url(#clip0_881_25628)">
<path d="M43.416 21.4258L44.2192 21.2697L44.2712 21.5374C44.2999 21.6852 44.2034 21.8284 44.0555 21.8571L43.7878 21.9092C43.64 21.9379 43.4968 21.8414 43.4681 21.6935L43.416 21.4258Z" fill="#0E5195"/>
<path d="M48.7715 20.3848L49.5746 20.2286L49.6267 20.4964C49.6554 20.6442 49.5589 20.7874 49.411 20.8161L49.1433 20.8682C48.9954 20.8969 48.8523 20.8003 48.8235 20.6525L48.7715 20.3848Z" fill="#0E5195"/>
<path d="M40.5762 12.5312L48.8754 10.918L50.4886 19.2173C50.5748 19.6608 50.2851 20.0903 49.8416 20.1765L43.1486 21.4775C42.7051 21.5637 42.2756 21.274 42.1894 20.8305L40.5762 12.5312Z" fill="url(#paint0_linear_881_25628)"/>
<path d="M46.8672 11.3105L48.8751 10.9203L50.4883 19.2195C50.5745 19.6631 50.2848 20.0925 49.8412 20.1788L48.6365 20.4129L46.8672 11.3105Z" fill="url(#paint1_linear_881_25628)"/>
<path d="M39.6913 7.98089C39.6051 7.53732 39.8947 7.10784 40.3383 7.02162L47.0312 5.72064C47.4748 5.63442 47.9043 5.92411 47.9905 6.36768L48.8752 10.9189L40.5759 12.5321L39.6913 7.98089Z" fill="url(#paint2_linear_881_25628)"/>
<path d="M45.8262 5.95508L47.0309 5.7209C47.4745 5.63468 47.9039 5.92437 47.9902 6.36794L48.8748 10.9191L46.867 11.3094L45.8262 5.95508Z" fill="url(#paint3_linear_881_25628)"/>
<path d="M40.9362 10.1007C40.9218 10.0267 40.9701 9.95515 41.044 9.94078L41.3117 9.88874C41.3857 9.87437 41.4572 9.92265 41.4716 9.99658L41.7318 11.3352C41.7462 11.4091 41.6979 11.4807 41.624 11.495L41.3562 11.5471C41.2823 11.5615 41.2107 11.5132 41.1964 11.4392L40.9362 10.1007Z" fill="white"/>
<path d="M41.5612 13.3135C41.5468 13.2396 41.5951 13.168 41.669 13.1537L41.9367 13.1016C42.0107 13.0873 42.0822 13.1355 42.0966 13.2095L42.4609 15.0835C42.4753 15.1574 42.427 15.229 42.353 15.2434L42.0853 15.2954C42.0114 15.3098 41.9398 15.2615 41.9254 15.1876L41.5612 13.3135Z" fill="white"/>
</g>
<g clip-path="url(#clip1_881_25628)">
<path d="M57.7351 19.1944C57.835 18.7537 58.2733 18.4775 58.7139 18.5774L68.821 20.8694C69.2617 20.9694 69.5379 21.4076 69.4379 21.8483L66.4221 35.147C66.3222 35.5877 65.884 35.864 65.4433 35.764L55.3362 33.472C54.8956 33.3721 54.6193 32.9338 54.7193 32.4931L57.7351 19.1944Z" fill="#D9D9D9"/>
<path d="M57.7351 19.1944C57.835 18.7537 58.2733 18.4775 58.7139 18.5774L68.821 20.8694C69.2617 20.9694 69.5379 21.4076 69.4379 21.8483L68.8951 24.2421L57.1922 21.5882L57.7351 19.1944Z" fill="#C9C9C9"/>
<circle cx="67.6613" cy="22.2854" r="0.545456" transform="rotate(12.7771 67.6613 22.2854)" fill="#3E3A3A"/>
<circle cx="61.837" cy="28.2358" r="3.27273" transform="rotate(12.7771 61.837 28.2358)" fill="white"/>
<circle cx="61.8366" cy="28.2345" r="2.59091" transform="rotate(12.7771 61.8366 28.2345)" fill="#0862CC"/>
<path d="M62.4101 25.7082C61.0146 25.3918 59.6268 26.2665 59.3104 27.662C59.3104 27.662 60.6581 27.2685 61.8371 28.235C63.0162 29.2015 64.3639 28.808 64.3639 28.808C64.6804 27.4125 63.8056 26.0247 62.4101 25.7082Z" fill="#2EB5E9"/>
<path d="M61.3381 20.5707C61.3714 20.4238 61.5175 20.3317 61.6644 20.365L65.3881 21.2094C65.5349 21.2427 65.627 21.3888 65.5937 21.5357L65.4731 22.0677C65.4398 22.2146 65.2937 22.3066 65.1468 22.2733L61.4231 21.4289C61.2763 21.3956 61.1842 21.2495 61.2175 21.1026L61.3381 20.5707Z" fill="#2DB5E8"/>
</g>
<defs>
<linearGradient id="paint0_linear_881_25628" x1="41.4608" y1="17.0824" x2="49.7601" y2="15.4692" gradientUnits="userSpaceOnUse">
<stop stop-color="#0072CB"/>
<stop offset="1" stop-color="#0363AE"/>
</linearGradient>
<linearGradient id="paint1_linear_881_25628" x1="47.6478" y1="15.3263" x2="49.6556" y2="14.936" gradientUnits="userSpaceOnUse">
<stop stop-color="#0D5297"/>
<stop offset="1" stop-color="#115CA9"/>
</linearGradient>
<linearGradient id="paint2_linear_881_25628" x1="40.1076" y1="10.1226" x2="48.4068" y2="8.50942" gradientUnits="userSpaceOnUse">
<stop stop-color="#36BFF3"/>
<stop offset="1" stop-color="#23AADD"/>
</linearGradient>
<linearGradient id="paint3_linear_881_25628" x1="46.3466" y1="8.63225" x2="48.3544" y2="8.24196" gradientUnits="userSpaceOnUse">
<stop stop-color="#108AE3"/>
<stop offset="1" stop-color="#1999EB"/>
</linearGradient>
<clipPath id="clip0_881_25628">
<rect width="17.4546" height="17.4546" fill="white" transform="translate(34.9082 6.9668) rotate(-11)"/>
</clipPath>
<clipPath id="clip1_881_25628">
<rect width="17.4546" height="17.4546" fill="white" transform="translate(55.498 16.7285) rotate(12.7771)"/>
</clipPath>
</defs>
</svg>
