<svg width="46" height="46" viewBox="0 0 46 46" fill="none" xmlns="http://www.w3.org/2000/svg">
<g filter="url(#filter0_i_1440_28573)">
<rect width="46" height="46" rx="8" fill="#FFA41B"/>
</g>
<path d="M38.2622 18.9859C38.6233 20.0614 38.8039 21.4955 38.8039 23.288C38.8039 25.055 38.5846 26.758 38.1461 28.3969C37.7076 30.0358 37.037 31.5979 36.1342 33.0832C35.2572 34.5429 34.0191 35.7337 32.4199 36.6556C30.8464 37.5519 29.028 38 26.9645 38C23.8692 38 21.8057 37.1421 20.7739 35.4264C18.9168 37.1421 16.8404 38 14.5447 38C11.4494 38 9.32145 37.347 8.16073 36.041C7.38691 35.1703 7 33.8771 7 32.1613C7 31.265 7.10317 30.2663 7.30952 29.1652L9.128 18.9859H15.7054L13.887 29.2036C13.8096 29.5877 13.7709 29.9334 13.7709 30.2407C13.7709 31.7004 14.5318 32.4302 16.0537 32.4302C17.1112 32.4302 17.9108 31.9821 18.4525 31.0858C18.9942 30.1639 19.4585 28.5633 19.8454 26.2842L21.1608 18.9859H27.7383L25.9198 29.2036C25.8424 29.5877 25.8037 29.9334 25.8037 30.2407C25.8037 31.7004 26.5647 32.4302 28.0865 32.4302C30.7691 32.4302 32.1104 29.6389 32.1104 24.0563C32.1104 22.7503 32.0072 21.3034 31.8008 19.7157L31.6847 18.9859H38.2622Z" fill="white"/>
<path d="M29.1461 18.0985C29.1461 20.9129 26.8481 23.1944 24.0133 23.1944C21.1785 23.1944 18.8804 20.9129 18.8804 18.0985C18.8804 15.2841 21.1785 13.0026 24.0133 13.0026C26.8481 13.0026 29.1461 15.2841 29.1461 18.0985Z" fill="white"/>
<path d="M9.37979 12.7247C9.37979 11.0858 9.7409 9.89501 10.4631 9.15237C11.2112 8.38412 12.359 8 13.9066 8C16.0733 8 17.1566 8.94751 17.1566 10.8425C17.1566 12.4558 16.7826 13.6338 16.0346 14.3765C15.3124 15.1191 14.1645 15.4904 12.5911 15.4904C10.4502 15.4904 9.37979 14.5685 9.37979 12.7247Z" fill="white"/>
<path d="M31.2232 12.7247C31.2232 11.0858 31.5843 9.89501 32.3065 9.15237C33.0545 8.38412 34.2023 8 35.75 8C37.9167 8 39 8.94751 39 10.8425C39 12.4558 38.626 13.6338 37.878 14.3765C37.1557 15.1191 36.0079 15.4904 34.4345 15.4904C32.2936 15.4904 31.2232 14.5685 31.2232 12.7247Z" fill="white"/>
<defs>
<filter id="filter0_i_1440_28573" x="0" y="0" width="46" height="49" filterUnits="userSpaceOnUse" color-interpolation-filters="sRGB">
<feFlood flood-opacity="0" result="BackgroundImageFix"/>
<feBlend mode="normal" in="SourceGraphic" in2="BackgroundImageFix" result="shape"/>
<feColorMatrix in="SourceAlpha" type="matrix" values="0 0 0 0 0 0 0 0 0 0 0 0 0 0 0 0 0 0 127 0" result="hardAlpha"/>
<feOffset dy="3"/>
<feGaussianBlur stdDeviation="2"/>
<feComposite in2="hardAlpha" operator="arithmetic" k2="-1" k3="1"/>
<feColorMatrix type="matrix" values="0 0 0 0 0 0 0 0 0 0 0 0 0 0 0 0 0 0 0.1 0"/>
<feBlend mode="normal" in2="shape" result="effect1_innerShadow_1440_28573"/>
</filter>
</defs>
</svg>
