<svg width="234" height="46" viewBox="0 0 234 46" fill="none" xmlns="http://www.w3.org/2000/svg">
<path d="M16.7871 15.7168H0.537109V13.6758H16.7871V15.7168ZM9.85352 14.1641H7.40234V9.68164H9.85352V14.1641ZM14.9805 10.043H2.25586V1.3418H14.9805V10.043ZM4.7168 8.08984H12.5293V3.32422H4.7168V8.08984ZM34.0625 10.7949H17.8223V8.80273H34.0625V10.7949ZM32.2852 7.34766H19.7852V5.35547H32.2852V7.34766ZM32.1094 2.65039H22.2656V6.08789H19.7852V0.667969H32.1094V2.65039ZM32.373 17.4648H19.7754V15.4629H32.373V17.4648ZM22.2266 15.9902H19.7754V12.1719H22.2266V15.9902ZM45.7617 4.85742C45.7617 6.22461 45.5664 7.54622 45.1758 8.82227C44.7917 10.0918 44.222 11.2246 43.4668 12.2207C42.7181 13.2168 41.8197 13.9622 40.7715 14.457L39.3066 12.4941C40.2637 12.0449 41.0775 11.4102 41.748 10.5898C42.4251 9.76953 42.9329 8.86458 43.2715 7.875C43.61 6.88542 43.7826 5.87956 43.7891 4.85742V2.78711H45.7617V4.85742ZM46.2891 4.85742C46.2826 5.80143 46.4453 6.73893 46.7773 7.66992C47.1094 8.60091 47.6009 9.45703 48.252 10.2383C48.9095 11.013 49.707 11.6152 50.6445 12.0449L49.2578 13.998C48.2096 13.5228 47.3145 12.8099 46.5723 11.8594C45.8366 10.9089 45.2767 9.82812 44.8926 8.61719C44.5085 7.39974 44.3164 6.14648 44.3164 4.85742V2.78711H46.2891V4.85742ZM49.873 3.77344H40.0195V1.74219H49.873V3.77344ZM53.75 17.7969H51.25V0.00390625H53.75V17.7969ZM56.3867 8.89062H53.2031V6.81055H56.3867V8.89062ZM63.6719 3.60742C63.6719 4.49284 63.4863 5.30664 63.1152 6.04883C62.7507 6.78451 62.194 7.41602 61.4453 7.94336C60.6966 8.4707 59.7754 8.84505 58.6816 9.06641L57.6465 7.12305C58.5384 6.96029 59.2871 6.70312 59.8926 6.35156C60.498 5.99349 60.944 5.58008 61.2305 5.11133C61.5169 4.64258 61.6634 4.14128 61.6699 3.60742V3.38281H63.6719V3.60742ZM64.1699 3.60742C64.1699 4.10872 64.3164 4.57747 64.6094 5.01367C64.9023 5.44336 65.3418 5.82422 65.9277 6.15625C66.5202 6.48828 67.2526 6.73242 68.125 6.88867L67.1484 8.80273C66.0547 8.5944 65.1367 8.23958 64.3945 7.73828C63.6523 7.23698 63.0957 6.63802 62.7246 5.94141C62.3535 5.23828 62.168 4.46029 62.168 3.60742V3.38281H64.1699V3.60742ZM67.6953 3.72461H58.125V1.80078H67.6953V3.72461ZM64.1699 3.1875H61.6895V0.0527344H64.1699V3.1875ZM64.1699 17.25H61.6699V10.1113H64.1699V17.25ZM71.9922 17.7871H69.5117V0.0429688H71.9922V17.7871ZM57.0508 9.82812C59.349 9.82812 61.4095 9.79883 63.2324 9.74023C65.0553 9.67513 66.7969 9.53516 68.457 9.32031L68.6133 11.127C66.888 11.4264 65.1139 11.6217 63.291 11.7129C61.4681 11.804 59.4922 11.8496 57.3633 11.8496L57.0508 9.82812ZM83.5547 1.06836C83.5547 2.60482 83.2389 3.98503 82.6074 5.20898C81.9824 6.43294 81.0579 7.48112 79.834 8.35352C78.6165 9.2194 77.1387 9.89323 75.4004 10.375L74.4238 8.43164C75.8431 8.05404 77.0378 7.55599 78.0078 6.9375C78.9844 6.31901 79.7168 5.61263 80.2051 4.81836C80.6999 4.02409 80.9473 3.16471 80.9473 2.24023V1.06836H83.5547ZM82.6758 3.04102H75.4004V1.06836H82.6758V3.04102ZM89.2773 17.748H86.7969V13.0508H77.0703V11.0488H89.2773V17.748ZM89.2773 10.3652H86.7969V0.0429688H89.2773V10.3652ZM87.2363 6.39062H83.7305V4.34961H87.2363V6.39062ZM104.727 6.37109H101.309V4.34961H104.727V6.37109ZM106.562 10.5801H104.082V0.00390625H106.562V10.5801ZM100.488 10.9707C101.751 10.9707 102.842 11.1074 103.76 11.3809C104.678 11.6543 105.381 12.0482 105.869 12.5625C106.364 13.0703 106.615 13.6823 106.621 14.3984C106.615 15.1081 106.364 15.7168 105.869 16.2246C105.381 16.7389 104.678 17.1328 103.76 17.4062C102.842 17.6797 101.751 17.8197 100.488 17.8262C99.2318 17.8197 98.1445 17.6797 97.2266 17.4062C96.3151 17.1328 95.612 16.7389 95.1172 16.2246C94.6289 15.7168 94.3848 15.1081 94.3848 14.3984C94.3848 13.6823 94.6289 13.0703 95.1172 12.5625C95.612 12.0482 96.3151 11.6543 97.2266 11.3809C98.1445 11.1074 99.2318 10.9707 100.488 10.9707ZM100.488 12.8652C99.694 12.8652 99.0299 12.9238 98.4961 13.041C97.9622 13.1517 97.5553 13.321 97.2754 13.5488C96.9954 13.7767 96.8555 14.0599 96.8555 14.3984C96.8555 14.7305 96.9954 15.0104 97.2754 15.2383C97.5553 15.4661 97.9622 15.6387 98.4961 15.7559C99.0365 15.8665 99.7005 15.9219 100.488 15.9219C101.283 15.9219 101.95 15.8665 102.49 15.7559C103.037 15.6387 103.447 15.4661 103.721 15.2383C103.994 15.0104 104.131 14.7305 104.131 14.3984C104.131 14.0599 103.994 13.7767 103.721 13.5488C103.447 13.321 103.037 13.1517 102.49 13.041C101.95 12.9238 101.283 12.8652 100.488 12.8652ZM97.7832 2.97266C97.7832 4.125 97.5977 5.20573 97.2266 6.21484C96.862 7.22396 96.3021 8.11263 95.5469 8.88086C94.7982 9.64258 93.8737 10.2122 92.7734 10.5898L91.4746 8.60742C92.4186 8.28841 93.2096 7.83268 93.8477 7.24023C94.4922 6.64779 94.9674 5.98698 95.2734 5.25781C95.5859 4.52214 95.7454 3.76042 95.752 2.97266V1.80078H97.7832V2.97266ZM98.291 2.95312C98.291 3.68229 98.4375 4.38542 98.7305 5.0625C99.0299 5.73307 99.4857 6.3418 100.098 6.88867C100.71 7.43555 101.471 7.86198 102.383 8.16797L101.152 10.1211C100.078 9.76953 99.1732 9.23568 98.4375 8.51953C97.7083 7.79688 97.1615 6.96029 96.7969 6.00977C96.4388 5.05273 96.263 4.03385 96.2695 2.95312V1.80078H98.291V2.95312ZM101.836 3.09961H92.1875V1.08789H101.836V3.09961ZM123.838 17.7969H121.367V0.00390625H123.838V17.7969ZM122.559 8.89062H117.832V6.85938H122.559V8.89062ZM117.93 1.87891C117.923 3.78646 117.679 5.50846 117.197 7.04492C116.722 8.57487 115.898 9.98763 114.727 11.2832C113.561 12.5723 111.976 13.7116 109.971 14.7012L108.701 12.748C110.361 11.9342 111.686 11.0228 112.676 10.0137C113.672 8.99805 114.388 7.86523 114.824 6.61523C115.26 5.36523 115.479 3.93294 115.479 2.31836V1.87891H117.93ZM116.777 3.8418H109.541V1.87891H116.777V3.8418ZM141.055 17.8457H138.564V0.00390625H141.055V17.8457ZM128.701 11.625C130.374 11.638 131.875 11.6022 133.203 11.5176C134.538 11.4264 135.902 11.2669 137.295 11.0391L137.52 13.0508C136.146 13.2917 134.775 13.4577 133.408 13.5488C132.048 13.6335 130.479 13.6758 128.701 13.6758H127.109V11.625H128.701ZM135.537 8.35352H129.678V12.4062H127.109V6.40039H132.998V3.51953H127.09V1.50781H135.537V8.35352ZM159.678 9.83789H143.428V7.98242H159.678V9.83789ZM157.744 14.916H147.773V16.4785H145.283V13.3438H155.273V12.4551H145.273V10.7168H157.744V14.916ZM158.252 17.6309H145.283V15.9316H158.252V17.6309ZM157.715 4.51562H147.93V6H145.449V2.93359H155.215V2.03516H145.42V0.335938H157.715V4.51562ZM158.018 7.15234H145.449V5.47266H158.018V7.15234ZM180.684 17.7969H178.281V0.00390625H180.684V17.7969ZM178.936 8.91016H175.918V6.88867H178.936V8.91016ZM176.621 16.9375H174.287V0.326172H176.621V16.9375ZM168.564 12.2598H166.074V1.99609H168.564V12.2598ZM167.266 11.3027C168.294 11.3027 169.294 11.2669 170.264 11.1953C171.24 11.1237 172.243 10.987 173.271 10.7852L173.535 12.9336C172.409 13.1289 171.331 13.2689 170.303 13.3535C169.281 13.4316 168.268 13.4674 167.266 13.4609H166.074V11.3027H167.266ZM197.607 17.8457H195.137V0.00390625H197.607V17.8457ZM195.566 5.81445H192.158V3.79297H195.566V5.81445ZM184.668 11.8203C186.107 11.8203 187.402 11.7878 188.555 11.7227C189.707 11.6576 190.898 11.5339 192.129 11.3516L192.324 13.3828C191.1 13.5781 189.912 13.7083 188.76 13.7734C187.607 13.832 186.243 13.8613 184.668 13.8613H183.262V11.8203H184.668ZM191.211 8.33398H185.752V12.2988H183.262V6.40039H188.77V3.49023H183.223V1.49805H191.211V8.33398ZM195.508 10.6582H192.1V8.61719H195.508V10.6582ZM214.629 12.4062H201.387V10.5605H214.629V12.4062ZM214.404 5.50195H202.012V3.57812H214.404V5.50195ZM216.162 8.7832H199.912V6.80078H216.162V8.7832ZM204.502 4.75977H202.012V0.296875H204.502V4.75977ZM209.346 7.71875H206.875V4.33008H209.346V7.71875ZM207.988 12.9238C209.134 12.9238 210.117 13.0182 210.938 13.207C211.764 13.3893 212.393 13.666 212.822 14.0371C213.258 14.4017 213.477 14.8411 213.477 15.3555C213.477 15.8698 213.258 16.3125 212.822 16.6836C212.393 17.0547 211.764 17.3314 210.938 17.5137C210.117 17.7025 209.134 17.7969 207.988 17.7969C206.842 17.7969 205.863 17.7025 205.049 17.5137C204.235 17.3314 203.613 17.0547 203.184 16.6836C202.754 16.319 202.539 15.8763 202.539 15.3555C202.539 14.8411 202.754 14.4017 203.184 14.0371C203.613 13.666 204.235 13.3893 205.049 13.207C205.863 13.0182 206.842 12.9238 207.988 12.9238ZM207.705 14.6133C207.087 14.6263 206.602 14.6556 206.25 14.7012C205.898 14.7467 205.632 14.8249 205.449 14.9355C205.267 15.0397 205.179 15.1797 205.186 15.3555C205.179 15.5312 205.277 15.6745 205.479 15.7852C205.687 15.8893 205.993 15.9674 206.396 16.0195C206.8 16.0716 207.331 16.1009 207.988 16.1074C208.639 16.1009 209.17 16.0716 209.58 16.0195C209.997 15.9674 210.309 15.8893 210.518 15.7852C210.732 15.6745 210.84 15.5312 210.84 15.3555C210.84 15.1862 210.745 15.0495 210.557 14.9453C210.368 14.8346 210.098 14.7565 209.746 14.7109C209.395 14.6589 208.906 14.6263 208.281 14.6133H207.988H207.705ZM209.258 11.6836H206.748V9.30078H209.258V11.6836ZM231.65 6.82031H219.219V4.87695H231.65V6.82031ZM233.447 10.6777H217.197V8.72461H233.447V10.6777ZM221.709 5.85352H219.219V0.648438H221.709V5.85352ZM231.758 17.4062H219.062V15.3945H231.758V17.4062ZM221.562 15.9707H219.062V12.1328H221.562V15.9707ZM13.584 31.5293H2.19727V29.5566H13.584V31.5293ZM16.748 43.6191H0.537109V41.5977H16.748V43.6191ZM8.80859 42.6328H6.33789V35.4844H8.80859V42.6328ZM15.166 31.4414C15.166 32.9062 15.1237 34.2507 15.0391 35.4746C14.9609 36.6986 14.7721 38.1243 14.4727 39.752L11.9434 39.4883C12.1647 38.4206 12.3275 37.4115 12.4316 36.4609C12.5358 35.5039 12.6009 34.6608 12.627 33.9316C12.653 33.2025 12.666 32.3464 12.666 31.3633V31.2461V29.5566H15.166V31.2461V31.4414ZM27.3926 38.0137H18.7207V29.4395H27.3926V38.0137ZM21.1621 36.0508H24.9316V31.4316H21.1621V36.0508ZM32.6855 40.6895H30.1953V28.043H32.6855V40.6895ZM33.1738 45.4062H20.7812V43.4043H33.1738V45.4062ZM23.3008 44.3125H20.7812V39.5078H23.3008V44.3125ZM48.3008 32.7109H39.6973V30.7285H48.3008V32.7109ZM44.0332 33.5117C44.7819 33.5117 45.4525 33.6908 46.0449 34.0488C46.6439 34.4069 47.1094 34.9082 47.4414 35.5527C47.7734 36.1908 47.9395 36.9167 47.9395 37.7305C47.9395 38.5508 47.7734 39.2799 47.4414 39.918C47.1094 40.556 46.6439 41.0605 46.0449 41.4316C45.4525 41.7962 44.7819 41.9785 44.0332 41.9785C43.291 41.9785 42.6204 41.7962 42.0215 41.4316C41.4225 41.0605 40.957 40.556 40.625 39.918C40.293 39.2734 40.127 38.5443 40.127 37.7305C40.127 36.9232 40.293 36.2005 40.625 35.5625C40.9635 34.918 41.429 34.4167 42.0215 34.0586C42.6204 33.694 43.291 33.5117 44.0332 33.5117ZM44.0332 35.582C43.6882 35.582 43.3854 35.6667 43.125 35.8359C42.8711 36.0052 42.6725 36.2526 42.5293 36.5781C42.3861 36.9036 42.3177 37.2878 42.3242 37.7305C42.3177 38.1732 42.3861 38.554 42.5293 38.873C42.6725 39.1921 42.8711 39.4362 43.125 39.6055C43.3854 39.7747 43.6849 39.8594 44.0234 39.8594C44.3685 39.8594 44.6712 39.7747 44.9316 39.6055C45.1921 39.4362 45.3939 39.1921 45.5371 38.873C45.6868 38.554 45.7617 38.1732 45.7617 37.7305C45.7617 37.2878 45.6868 36.9036 45.5371 36.5781C45.3939 36.2526 45.1888 36.0052 44.9219 35.8359C44.6615 35.6667 44.3652 35.582 44.0332 35.582ZM55.0977 45.7969H52.7246V28.0039H55.0977V45.7969ZM53.5156 37.2422H50.5273V35.2598H53.5156V37.2422ZM51.2891 45.0352H48.9551V28.375H51.2891V45.0352ZM45.2539 31.9785H42.8027V28.5117H45.2539V31.9785ZM71.9922 36.9688H69.5117V28.0039H71.9922V36.9688ZM66.2695 28.707C66.263 30.2695 65.9538 31.627 65.3418 32.7793C64.7363 33.9251 63.8249 34.8789 62.6074 35.6406C61.3965 36.4023 59.8861 36.9818 58.0762 37.3789L57.2266 35.3574C58.6849 35.0645 59.8828 34.6608 60.8203 34.1465C61.7643 33.6257 62.4544 33.0234 62.8906 32.3398C63.3333 31.6497 63.5547 30.8848 63.5547 30.0449V28.707H66.2695ZM64.5801 30.709H58.2227V28.707H64.5801V30.709ZM69.8047 32.1543H65.5664V30.2598H69.8047V32.1543ZM69.707 35.6016H65.4395V33.707H69.707V35.6016ZM71.9922 42.4766H62.6953V44.7227H60.2051V40.6309H69.4824V39.5664H60.1758V37.6133H71.9922V42.4766ZM72.3828 45.6211H60.2051V43.6484H72.3828V45.6211ZM93.6816 30.377H80.3516V28.5117H93.6816V30.377ZM93.5742 34.5762H80.4785V32.7012H93.5742V34.5762ZM85.1465 33.9219H82.6562V29.2344H85.1465V33.9219ZM91.377 33.9219H88.877V29.2344H91.377V33.9219ZM95.1465 37.457H78.9355V35.5039H95.1465V37.457ZM93.1641 42.8672H83.2617V44.5469H80.8105V41.168H90.7031V40.2598H80.8008V38.4727H93.1641V42.8672ZM93.6328 45.6699H80.8105V43.8438H93.6328V45.6699ZM111.484 39.9863H109.111V28.043H111.484V39.9863ZM109.814 34.3418H106.934V32.3496H109.814V34.3418ZM107.568 38.502H105.264V28.3457H107.568V38.502ZM98.1641 36.4121C99.5312 36.4186 100.674 36.3893 101.592 36.3242C102.516 36.2591 103.454 36.1354 104.404 35.9531L104.629 37.9062C103.678 38.1016 102.741 38.2285 101.816 38.2871C100.898 38.3392 99.681 38.3652 98.1641 38.3652H96.9336V36.4121H98.1641ZM103.701 34.6738H99.3457V37.75H96.9336V32.8672H101.289V31.2461H96.9043V29.2539H103.701V34.6738ZM106.211 39.5176C106.204 40.5592 105.924 41.513 105.371 42.3789C104.824 43.2383 104.033 43.9577 102.998 44.5371C101.969 45.123 100.745 45.5169 99.3262 45.7188L98.3398 43.7949C99.5638 43.6387 100.605 43.3424 101.465 42.9062C102.331 42.4701 102.979 41.959 103.408 41.373C103.844 40.7871 104.062 40.1686 104.062 39.5176V39.1855H106.211V39.5176ZM106.562 39.5176C106.556 40.1686 106.768 40.7871 107.197 41.373C107.633 41.959 108.285 42.4701 109.15 42.9062C110.023 43.3424 111.074 43.6387 112.305 43.7949L111.309 45.7188C109.889 45.5169 108.662 45.123 107.627 44.5371C106.592 43.9577 105.801 43.2383 105.254 42.3789C104.714 41.513 104.447 40.5592 104.453 39.5176V39.1855H106.562V39.5176ZM129.717 38.5996H113.506V36.6465H129.717V38.5996ZM122.822 37.5352H120.322V34.7812H122.822V37.5352ZM128.252 30.5039H114.922V28.5117H128.252V30.5039ZM128.145 35.2109H115.049V33.209H128.145V35.2109ZM119.717 34.5664H117.227V29.2637H119.717V34.5664ZM125.947 34.5664H123.447V29.2637H125.947V34.5664ZM127.773 45.6016H115.381V39.8301H127.773V45.6016ZM117.832 43.5996H125.332V41.7734H117.832V43.5996Z" fill="#351509"/>
</svg>
