<svg width="80" height="81" viewBox="0 0 80 81" fill="none" xmlns="http://www.w3.org/2000/svg">
<circle cx="40" cy="40.5" r="40" fill="#D9D9D9"/>
<path d="M24.6976 53.3761C26 50.0161 26.9583 49.7404 28.6046 48.1406L34.4651 53.2606L40.3255 55.1806L47.4883 51.9806C48.1395 50.2739 49.8976 47.216 51.7209 48.6375C53.5441 50.059 54.6511 52.3118 54.9767 53.2606L56.6046 62.5405H22.7441L24.6976 53.3761Z" fill="#F3AD66"/>
<path d="M51.9353 18.9689C41.3991 12.6864 31.6313 16.3512 28.0644 18.9689C26.9669 18.2418 24.3606 17.2237 22.7143 18.9689C20.6565 21.1505 11.602 32.0577 12.0136 33.8028C12.4252 35.548 12.0136 39.9109 21.4796 47.7641C22.5772 47.6186 24.7722 46.6297 24.7722 43.8375C25.8697 45.1463 28.147 48.0258 28.4763 49.0729C28.8878 50.3818 32.1805 56.8661 40.4118 56.4299C48.6431 56.8661 51.1121 50.3818 51.5237 49.0729C51.8529 48.0258 54.1303 45.1463 55.2278 43.8375C55.2278 46.6297 57.4228 47.6186 58.5203 47.7641C67.9864 39.9109 67.5748 35.548 67.9864 33.8028C68.398 32.0577 59.3435 21.1505 57.2856 18.9689C55.6394 17.2237 53.0328 18.2418 51.9353 18.9689Z" fill="#FAC174"/>
<path d="M57.2857 18.9695C55.6394 17.2243 53.0328 18.2423 51.9353 18.9695C51.9353 34.7005 54.1303 45.1469 55.2278 43.838C55.2278 46.6303 57.4229 47.6192 58.5204 47.7646C67.9864 39.9114 67.5749 35.5485 67.9865 33.8034C68.398 32.0582 59.3435 21.151 57.2857 18.9695Z" fill="#F3AD66"/>
<path d="M22.7143 18.9695C24.3606 17.2243 26.9669 18.2423 28.0644 18.9695C28.0644 33.8034 25.8697 45.1469 24.7722 43.838C24.7722 46.6303 22.5771 47.6192 21.4796 47.7646C12.0136 39.9114 12.4252 35.5485 12.0136 33.8034C11.602 32.0582 20.6565 21.151 22.7143 18.9695Z" fill="#F3AD66"/>
<path d="M40.3984 47.0625V49.2439" stroke="#3C1826" stroke-width="1.2" stroke-linecap="round" stroke-linejoin="round"/>
<path d="M31.3438 43.5723C33.6485 51.6 38.3404 50.6983 40.3982 49.244C42.4561 50.6983 47.1479 51.6 49.4527 43.5723" stroke="#3C1826" stroke-width="1.2" stroke-linecap="round" stroke-linejoin="round"/>
<path d="M36.6941 50.7559C37.9288 52.3556 41.139 54.5952 44.1023 50.7559" stroke="#3C1826" stroke-width="1.2" stroke-linecap="round" stroke-linejoin="round"/>
<path d="M42.0608 46.5102C41.2015 47.483 39.695 47.483 38.8357 46.5102L37.297 44.7682C36.0542 43.3613 37.0428 42.3789 38.9095 42.3789L41.987 42.3789C43.8536 42.3789 44.8423 43.3613 43.5995 44.7682L42.0608 46.5102Z" fill="#3C1826"/>
<path d="M35.0477 32.9307C35.0477 34.1169 33.7148 32.9307 32.5783 32.9307C31.4418 32.9307 30.1089 34.1169 30.1089 32.9307C30.1089 31.7445 31.4418 31.1855 32.5783 31.1855C33.7148 31.1855 35.0477 31.7445 35.0477 32.9307Z" fill="#3C1826"/>
<path d="M49.4525 32.9307C49.4525 34.1169 48.1196 32.9307 46.9831 32.9307C45.8466 32.9307 44.5137 34.1169 44.5137 32.9307C44.5137 31.7445 45.8466 31.1855 46.9831 31.1855C48.1196 31.1855 49.4525 31.7445 49.4525 32.9307Z" fill="#3C1826"/>
<path d="M19.8821 54.1409C20.9239 52.9192 24.2232 53.4282 25.7425 53.8355C31.603 56.5845 31.9286 59.3336 30.6263 61.7772C29.5844 63.732 27.5875 63.2026 26.7193 62.6935C24.896 64.404 23.572 62.9989 23.1379 62.0826C21.3146 64.0375 19.3394 62.8971 18.5798 62.0826C17.7984 63.06 16.5177 62.2862 15.9751 61.7772C13.3704 58.4173 18.5798 55.6682 19.8821 54.1409Z" fill="#FAC174"/>
<path d="M27.3706 59.6387C27.4792 60.4532 27.5009 62.2044 26.7195 62.6931" stroke="#3C1826" stroke-width="0.9" stroke-linecap="round" stroke-linejoin="round"/>
<path d="M23.1379 59.334V62.083" stroke="#3C1826" stroke-width="0.9" stroke-linecap="round" stroke-linejoin="round"/>
<path d="M18.5796 59.334C18.3626 59.8431 18.0587 61.1056 18.5796 62.083" stroke="#3C1826" stroke-width="0.9" stroke-linecap="round" stroke-linejoin="round"/>
<path d="M59.8367 54.1409C58.7948 52.9192 55.4956 53.4282 53.9762 53.8355C48.1157 56.5845 47.7902 59.3336 49.0925 61.7772C50.1343 63.732 52.1312 63.2026 52.9995 62.6935C54.8227 64.404 56.1467 62.9989 56.5809 62.0826C58.4041 64.0375 60.3793 62.8971 61.139 62.0826C61.9204 63.06 63.201 62.2862 63.7436 61.7772C66.3483 58.4173 61.139 55.6682 59.8367 54.1409Z" fill="#FAC174"/>
<path d="M52.3483 59.6387C52.2398 60.4532 52.2181 62.2044 52.9995 62.6931" stroke="#3C1826" stroke-width="0.9" stroke-linecap="round" stroke-linejoin="round"/>
<path d="M56.5808 59.334V62.083" stroke="#3C1826" stroke-width="0.9" stroke-linecap="round" stroke-linejoin="round"/>
<path d="M61.1389 59.334C61.3559 59.8431 61.6598 61.1056 61.1389 62.083" stroke="#3C1826" stroke-width="0.9" stroke-linecap="round" stroke-linejoin="round"/>
</svg>
