<svg width="80" height="80" viewBox="0 0 80 80" fill="none" xmlns="http://www.w3.org/2000/svg">
<circle cx="40" cy="40" r="40" fill="#D9D9D9"/>
<path d="M23.0703 53.0809C23.0703 51.0329 24.5897 48.8143 25.3494 47.9609H54.6517L58.2331 53.0809L60.1866 55.9609L60.8377 58.8409L59.2098 61.7209H25.0238L23.0703 53.0809Z" fill="#F3AD66"/>
<path d="M63.7638 49.34C65.6302 46.4986 57.6887 48.2707 54.9766 48.6984C56.2784 49.9814 57.6622 51.079 59.2075 51.5855C61.8138 52.4398 62.6842 50.9836 63.7638 49.34Z" fill="#F59300"/>
<path d="M25.9993 53.08C23.7212 50.5137 24.0466 48.2816 25.6739 47.64C28.6061 49.2118 36.8087 53.976 39.6738 52.44C42.5389 50.904 51.9429 47.8265 55.9528 47C52.0474 62.3975 29.6427 57.184 25.9993 53.08Z" fill="#FFA41B"/>
<mask id="mask0_380_20183" style="mask-type:alpha" maskUnits="userSpaceOnUse" x="24" y="47" width="32" height="11">
<path d="M25.9993 53.08C23.7212 50.5137 24.0466 48.2816 25.6739 47.64C28.6061 49.2118 36.8087 53.976 39.6738 52.44C42.5389 50.904 51.9429 47.8265 55.9528 47C52.0474 62.3975 29.6427 57.184 25.9993 53.08Z" fill="#A5A5A5"/>
</mask>
<g mask="url(#mask0_380_20183)">
<ellipse cx="34.1389" cy="51.7979" rx="0.976744" ry="0.959998" fill="white"/>
<ellipse cx="41.9523" cy="54.3584" rx="0.976744" ry="0.959998" fill="white"/>
<ellipse cx="27.6271" cy="49.2393" rx="0.976744" ry="0.959998" fill="white"/>
<ellipse cx="37.3947" cy="54.9991" rx="0.976744" ry="0.959998" fill="white"/>
<ellipse cx="29.5803" cy="52.4385" rx="0.976744" ry="0.959998" fill="white"/>
<ellipse cx="40.6506" cy="57.5596" rx="0.976744" ry="0.959998" fill="white"/>
<ellipse cx="32.1848" cy="55.6397" rx="0.976744" ry="0.959998" fill="white"/>
<ellipse cx="44.5568" cy="51.1592" rx="0.976744" ry="0.959998" fill="white"/>
<ellipse cx="47.8127" cy="53.7198" rx="0.976744" ry="0.959998" fill="white"/>
<ellipse cx="45.8596" cy="56.2803" rx="0.976744" ry="0.959998" fill="white"/>
<ellipse cx="49.1154" cy="49.2393" rx="0.976744" ry="0.959998" fill="white"/>
<ellipse cx="54.3244" cy="49.8799" rx="0.976744" ry="0.959998" fill="white"/>
<ellipse cx="51.7199" cy="52.4385" rx="0.976744" ry="0.959998" fill="white"/>
</g>
<path d="M40.1627 17.6922C37.559 12.8164 37.1251 15.6606 37.2336 17.6922C34.5215 17.5853 28.5115 18.0771 26.1682 20.9C24.9749 20.6861 21.8722 21.9906 19.0083 28.9195C18.1404 30.4165 15.7537 33.4746 13.1501 33.7312C11.0672 35.2709 12.2822 37.1528 13.1501 37.9013C14.7773 40.3607 19.0083 43.6754 19.6592 44.3169C20.3101 44.9585 20.3752 46.4983 21.9373 46.2416C22.8052 46.8832 24.6712 48.1021 25.1919 47.8455C25.8428 47.5247 30.0736 55.2235 40.1627 53.9404C50.2517 55.2235 54.1572 47.5247 54.8081 47.8455C55.3288 48.1022 57.1948 46.8832 58.0626 46.2416C59.6248 46.4983 59.6899 44.9585 60.3408 44.3169C60.9917 43.6754 65.2226 40.3607 66.8499 37.9013C67.7178 37.1528 68.9328 35.2709 66.8499 33.7312C64.2463 33.4746 61.8596 30.4165 60.9917 28.9195C58.1277 21.9906 55.0251 20.6861 53.8317 20.9C51.4885 18.0771 45.4784 17.5853 42.7663 17.6922C42.5059 15.3826 40.9221 16.7299 40.1627 17.6922Z" fill="#FAC174"/>
<path d="M60.9921 28.9197C58.1281 21.9909 55.0255 20.6864 53.8321 20.9002C50.4474 33.8123 55.2424 43.1747 58.063 46.2419C59.6252 46.4985 59.6903 44.9588 60.3412 44.3172C60.9921 43.6756 65.223 40.3609 66.8503 37.9016C67.7182 37.1531 68.9332 35.2712 66.8503 33.7315C64.2466 33.4748 61.86 30.4167 60.9921 28.9197Z" fill="#F3AD66"/>
<path d="M19.0083 28.9197C21.8722 21.9909 24.9749 20.6864 26.1682 20.9002C29.553 33.8123 24.7579 43.1747 21.9373 46.2419C20.3752 46.4985 20.3101 44.9588 19.6592 44.3172C19.0083 43.6756 14.7773 40.3609 13.1501 37.9016C12.2822 37.1531 11.0672 35.2712 13.1501 33.7315C15.7537 33.4748 18.1404 30.4167 19.0083 28.9197Z" fill="#F3AD66"/>
<path d="M34.3049 34.6932C34.3049 36.1105 33.1392 36.2971 31.7013 36.2971C30.2633 36.2971 29.0977 36.1105 29.0977 34.6932C29.0977 33.2759 30.2633 32.127 31.7013 32.127C33.1392 32.127 34.3049 33.2759 34.3049 34.6932Z" fill="#441200"/>
<path d="M50.5774 34.6932C50.5774 36.1105 49.4117 36.2971 47.9738 36.2971C46.5358 36.2971 45.3701 36.1105 45.3701 34.6932C45.3701 33.2759 46.5358 32.127 47.9738 32.127C49.4117 32.127 50.5774 33.2759 50.5774 34.6932Z" fill="#441200"/>
<path d="M41.1124 43.1381C40.4329 43.8533 39.2417 43.8533 38.5621 43.1381L37.3454 41.8573C36.3626 40.8228 37.1444 39.1836 38.6205 39.1836L41.0541 39.1836C42.5302 39.1836 43.312 40.8228 42.3292 41.8573L41.1124 43.1381Z" fill="#3C1826"/>
<path d="M39.8369 43.6758V45.6005" stroke="#32071A" stroke-width="1.2" stroke-linecap="round" stroke-linejoin="round"/>
<path d="M30.5557 43.0332C29.9048 45.4925 30.9751 49.4488 39.8274 45.5994C48.6798 49.4488 49.9166 45.4925 49.2657 43.0332" stroke="#32071A" stroke-width="1.2" stroke-linecap="round" stroke-linejoin="round"/>
<path d="M20.3685 54.0616C21.3155 52.8948 24.3146 53.3809 25.6958 53.7699C31.0231 56.3952 31.3191 59.0207 30.1352 61.3544C29.1882 63.2214 27.3729 62.7158 26.5837 62.2296C24.9263 63.8632 23.7227 62.5213 23.3281 61.6462C21.6707 63.5131 19.8752 62.4241 19.1846 61.6462C18.4743 62.5796 17.3102 61.8406 16.8169 61.3544C14.4492 58.1456 19.1846 55.5201 20.3685 54.0616Z" fill="#FAC174"/>
<path d="M27.1761 59.3125C27.2748 60.0904 27.2946 61.7629 26.584 62.2296" stroke="#28303F" stroke-width="0.9" stroke-linecap="round" stroke-linejoin="round"/>
<path d="M23.3281 59.0215V61.6469" stroke="#28303F" stroke-width="0.9" stroke-linecap="round" stroke-linejoin="round"/>
<path d="M19.1844 59.0215C18.987 59.5077 18.7107 60.7134 19.1844 61.6469" stroke="#28303F" stroke-width="0.9" stroke-linecap="round" stroke-linejoin="round"/>
<path d="M58.8024 54.0616C57.8554 52.8948 54.8563 53.3809 53.4751 53.7699C48.1478 56.3952 47.8518 59.0207 49.0357 61.3544C49.9827 63.2214 51.798 62.7158 52.5872 62.2296C54.2446 63.8632 55.4482 62.5213 55.8428 61.6462C57.5002 63.5131 59.2957 62.4241 59.9863 61.6462C60.6966 62.5796 61.8607 61.8406 62.354 61.3544C64.7217 58.1456 59.9863 55.5201 58.8024 54.0616Z" fill="#FAC174"/>
<path d="M51.9948 59.3125C51.8961 60.0904 51.8763 61.7629 52.5869 62.2296" stroke="#28303F" stroke-width="0.9" stroke-linecap="round" stroke-linejoin="round"/>
<path d="M55.8428 59.0215V61.6469" stroke="#28303F" stroke-width="0.9" stroke-linecap="round" stroke-linejoin="round"/>
<path d="M59.9865 59.0215C60.1839 59.5077 60.4602 60.7134 59.9865 61.6469" stroke="#28303F" stroke-width="0.9" stroke-linecap="round" stroke-linejoin="round"/>
<ellipse cx="32.1863" cy="33.5599" rx="0.651163" ry="0.639999" fill="white"/>
<ellipse cx="47.1629" cy="33.5599" rx="0.651163" ry="0.639999" fill="white"/>
<path d="M56.9293 55.3365C55.3671 55.0798 54.9766 50.5248 54.9766 48.2793L57.9088 51.0886C58.5413 51.6946 58.8937 52.536 58.882 53.4118C58.882 54.1603 58.4915 55.5931 56.9293 55.3365Z" fill="#F59300"/>
</svg>
